M48
; DRILL file {KiCad (6.0.9)} date Sun Jan  8 00:24:46 2023
; FORMAT={-:-/ absolute / metric / decimal}
; #@! TF.CreationDate,2023-01-08T00:24:46-05:00
; #@! TF.GenerationSoftware,Kicad,Pcbnew,(6.0.9)
; #@! TF.FileFunction,Plated,1,2,PTH
FMAT,2
METRIC
; #@! TA.AperFunction,Plated,PTH,ViaDrill
T1C0.400
%
G90
G05
T1
X125.11Y-90.02
X125.16Y-88.88
X126.68Y-90.04
X128.21Y-118.78
X128.45Y-79.98
X128.48Y-78.97
X128.59Y-112.44
X128.65Y-99.03
X129.17Y-90.07
X129.37Y-70.09
X129.46Y-116.07
X129.46Y-117.41
X129.47Y-114.67
X129.49Y-118.77
X129.8Y-112.42
X129.84Y-99.03
X130.76Y-91.83
X130.78Y-92.97
X130.85Y-118.58
X132.02Y-120.15
X132.67Y-81.84
X133.09Y-77.11
X133.59Y-118.78
X133.81Y-70.09
X134.21Y-109.4
X134.23Y-105.38
X134.23Y-106.68
X134.23Y-108.02
X134.24Y-113.45
X134.28Y-112.12
X134.29Y-110.77
X134.32Y-100.88
X134.93Y-81.99
X135.48Y-104.51
X135.68Y-100.84
X135.98Y-82.0
X137.03Y-100.87
X138.27Y-70.09
X138.39Y-100.82
X138.4Y-102.21
X138.83Y-87.05
X139.03Y-90.91
X139.34Y-93.19
X139.93Y-87.81
X140.06Y-82.22
X140.15Y-100.91
X140.18Y-113.31
X140.18Y-114.69
X140.26Y-90.91
X140.64Y-93.13
X140.89Y-106.23
X141.3Y-116.76
X141.39Y-81.77
X141.53Y-100.85
X141.77Y-87.34
X141.97Y-115.65
X141.98Y-112.82
X142.05Y-114.15
X142.26Y-93.42
X142.41Y-117.86
X142.42Y-99.49
X142.73Y-70.07
X144.7Y-94.99
X146.12Y-109.15
X146.27Y-85.22
X146.5Y-116.91
X146.76Y-101.97
X147.22Y-70.11
X147.78Y-85.2
X147.79Y-117.67
X148.08Y-107.82
X149.28Y-78.57
X149.32Y-85.2
X149.47Y-107.86
X149.67Y-96.57
X150.33Y-89.98
X151.02Y-104.21
X151.04Y-96.79
X151.04Y-99.46
X151.04Y-105.98
X151.11Y-98.18
X151.96Y-100.6
X152.14Y-101.99
X152.16Y-108.47
X152.18Y-103.34
X152.2Y-107.13
X152.23Y-105.15
X156.4Y-98.78
X156.56Y-109.46
X156.66Y-113.06
X156.8Y-114.45
X156.91Y-117.52
X157.06Y-115.8
X158.29Y-99.51
X158.51Y-101.77
X158.74Y-105.36
X158.76Y-103.59
X158.78Y-106.73
X159.61Y-99.91
X159.78Y-104.48
X159.86Y-101.75
X160.19Y-113.09
X160.62Y-114.44
X160.71Y-93.18
X161.08Y-115.86
X161.23Y-103.01
X162.42Y-115.78
X162.49Y-114.41
X162.66Y-110.81
X162.74Y-97.41
X163.35Y-112.15
X163.49Y-100.59
X163.79Y-113.31
X163.83Y-97.42
X164.7Y-114.41
X164.7Y-115.8
X164.75Y-117.14
X165.15Y-93.16
X165.56Y-118.24
X166.73Y-118.91
X167.275Y-89.625
X168.18Y-84.26
X168.62Y-79.33
X169.41Y-73.68
X169.5Y-77.2
X170.1Y-79.33
X170.17Y-118.95
X170.85Y-120.45
X171.61Y-79.28
X172.1Y-73.66
X172.14Y-77.18
X172.48Y-100.33
X172.48Y-104.79
X172.55Y-109.34
X172.57Y-113.87
X172.57Y-116.16
X172.82Y-121.16
X173.08Y-83.81
X173.225Y-91.4
X173.26Y-95.85
T0
M30
