G04 #@! TF.GenerationSoftware,KiCad,Pcbnew,(6.0.9)*
G04 #@! TF.CreationDate,2023-01-08T00:32:06-05:00*
G04 #@! TF.ProjectId,DMG-DECN-02,444d472d-4445-4434-9e2d-30322e6b6963,rev?*
G04 #@! TF.SameCoordinates,Original*
G04 #@! TF.FileFunction,Copper,L1,Top*
G04 #@! TF.FilePolarity,Positive*
%FSLAX46Y46*%
G04 Gerber Fmt 4.6, Leading zero omitted, Abs format (unit mm)*
G04 Created by KiCad (PCBNEW (6.0.9)) date 2023-01-08 00:32:06*
%MOMM*%
%LPD*%
G01*
G04 APERTURE LIST*
G04 Aperture macros list*
%AMFreePoly0*
4,1,55,1.015063,1.095106,1.030902,1.095106,1.043716,1.085796,1.058779,1.080902,1.068089,1.068089,1.080902,1.058779,1.085796,1.043716,1.095106,1.030902,1.095106,1.015063,1.100000,1.000000,1.100000,0.762000,1.143000,0.762000,1.143000,-0.762000,0.879422,-0.762000,0.600000,-1.041422,0.600000,-2.500000,0.595106,-2.515063,0.595106,-2.530902,0.585796,-2.543716,0.580902,-2.558779,
0.568089,-2.568089,0.558779,-2.580902,0.543716,-2.585796,0.530902,-2.595106,0.515063,-2.595106,0.500000,-2.600000,-0.500000,-2.600000,-0.515063,-2.595106,-0.530902,-2.595106,-0.543716,-2.585796,-0.558779,-2.580902,-0.568089,-2.568089,-0.580902,-2.558779,-0.585796,-2.543716,-0.595106,-2.530902,-0.595106,-2.515063,-0.600000,-2.500000,-0.600000,-1.041422,-0.879422,-0.762000,-1.143000,-0.762000,
-1.143000,0.762000,-1.100000,0.762000,-1.100000,1.000000,-1.095106,1.015063,-1.095106,1.030902,-1.085796,1.043716,-1.080902,1.058779,-1.068089,1.068089,-1.058779,1.080902,-1.043716,1.085796,-1.030902,1.095106,-1.015063,1.095106,-1.000000,1.100000,1.000000,1.100000,1.015063,1.095106,1.015063,1.095106,$1*%
G04 Aperture macros list end*
G04 #@! TA.AperFunction,SMDPad,CuDef*
%ADD10R,1.250000X1.500000*%
G04 #@! TD*
G04 #@! TA.AperFunction,SMDPad,CuDef*
%ADD11R,2.200000X0.600000*%
G04 #@! TD*
G04 #@! TA.AperFunction,SMDPad,CuDef*
%ADD12R,1.500000X1.250000*%
G04 #@! TD*
G04 #@! TA.AperFunction,SMDPad,CuDef*
%ADD13R,1.400000X6.000000*%
G04 #@! TD*
G04 #@! TA.AperFunction,SMDPad,CuDef*
%ADD14R,1.000000X6.000000*%
G04 #@! TD*
G04 #@! TA.AperFunction,SMDPad,CuDef*
%ADD15R,4.000000X5.000000*%
G04 #@! TD*
G04 #@! TA.AperFunction,SMDPad,CuDef*
%ADD16R,5.200000X3.200000*%
G04 #@! TD*
G04 #@! TA.AperFunction,SMDPad,CuDef*
%ADD17R,1.000000X1.000000*%
G04 #@! TD*
G04 #@! TA.AperFunction,SMDPad,CuDef*
%ADD18FreePoly0,90.000000*%
G04 #@! TD*
G04 #@! TA.AperFunction,SMDPad,CuDef*
%ADD19FreePoly0,270.000000*%
G04 #@! TD*
G04 #@! TA.AperFunction,SMDPad,CuDef*
%ADD20R,0.600000X2.200000*%
G04 #@! TD*
G04 #@! TA.AperFunction,SMDPad,CuDef*
%ADD21FreePoly0,180.000000*%
G04 #@! TD*
G04 #@! TA.AperFunction,SMDPad,CuDef*
%ADD22FreePoly0,0.000000*%
G04 #@! TD*
G04 #@! TA.AperFunction,ViaPad*
%ADD23C,0.800000*%
G04 #@! TD*
G04 #@! TA.AperFunction,Conductor*
%ADD24C,0.200000*%
G04 #@! TD*
G04 APERTURE END LIST*
D10*
X148540000Y-76950000D03*
X145290000Y-76950000D03*
D11*
X132340000Y-100460000D03*
X132340000Y-101730000D03*
X132340000Y-103000000D03*
X132340000Y-104270000D03*
X132340000Y-105540000D03*
X132340000Y-106810000D03*
X132340000Y-108080000D03*
X132340000Y-109350000D03*
X132340000Y-110620000D03*
X132340000Y-111890000D03*
X132340000Y-113160000D03*
X132340000Y-114430000D03*
X132340000Y-115700000D03*
X132340000Y-116970000D03*
X144240000Y-116970000D03*
X144240000Y-115700000D03*
X144240000Y-114430000D03*
X144240000Y-113160000D03*
X144240000Y-111890000D03*
X144240000Y-110620000D03*
X144240000Y-109350000D03*
X144240000Y-108080000D03*
X144240000Y-106810000D03*
X144240000Y-105540000D03*
X144240000Y-104270000D03*
X144240000Y-103000000D03*
X144240000Y-101730000D03*
X144240000Y-100460000D03*
D12*
X168085000Y-91775000D03*
X168085000Y-95025000D03*
D13*
X125880000Y-124950000D03*
D14*
X127580000Y-124950000D03*
X129080000Y-124950000D03*
X130580000Y-124950000D03*
X132080000Y-124950000D03*
X133580000Y-124950000D03*
X135080000Y-124950000D03*
X136580000Y-124950000D03*
X138080000Y-124950000D03*
X139580000Y-124950000D03*
X141080000Y-124950000D03*
X142580000Y-124950000D03*
X144080000Y-124950000D03*
X145580000Y-124950000D03*
X147080000Y-124950000D03*
X148580000Y-124950000D03*
X150080000Y-124950000D03*
X151580000Y-124950000D03*
X153080000Y-124950000D03*
X154580000Y-124950000D03*
X156080000Y-124950000D03*
X157580000Y-124950000D03*
X159080000Y-124950000D03*
X160580000Y-124950000D03*
X162080000Y-124950000D03*
X163580000Y-124950000D03*
X165080000Y-124950000D03*
X166580000Y-124950000D03*
X168080000Y-124950000D03*
X169580000Y-124950000D03*
X171080000Y-124950000D03*
D13*
X172780000Y-124950000D03*
D15*
X147440000Y-81860000D03*
D16*
X170290000Y-81860000D03*
D12*
X147335000Y-97135000D03*
X147335000Y-100385000D03*
X126050000Y-84210000D03*
X126050000Y-87460000D03*
D17*
X151400000Y-118830000D03*
D18*
X125950000Y-74490000D03*
D19*
X136150000Y-74490000D03*
D11*
X154404000Y-97625000D03*
X154404000Y-98895000D03*
X154404000Y-100165000D03*
X154404000Y-101435000D03*
X154404000Y-102705000D03*
X154404000Y-103975000D03*
X154404000Y-105245000D03*
X154404000Y-106515000D03*
X154404000Y-107785000D03*
X154404000Y-109055000D03*
X154404000Y-110325000D03*
X154404000Y-111595000D03*
X154404000Y-112865000D03*
X154404000Y-114135000D03*
X154404000Y-115420000D03*
X154404000Y-116720000D03*
X168390000Y-116720000D03*
X168390000Y-115450000D03*
X168390000Y-114180000D03*
X168390000Y-112910000D03*
X168390000Y-111640000D03*
X168390000Y-110370000D03*
X168390000Y-109100000D03*
X168390000Y-107830000D03*
X168390000Y-106560000D03*
X168390000Y-105290000D03*
X168390000Y-104020000D03*
X168390000Y-102750000D03*
X168390000Y-101520000D03*
X168390000Y-100220000D03*
X168390000Y-98920000D03*
X168390000Y-97620000D03*
D20*
X129335000Y-96706000D03*
X130605000Y-96706000D03*
X131875000Y-96706000D03*
X133145000Y-96706000D03*
X134415000Y-96706000D03*
X135685000Y-96706000D03*
X136955000Y-96706000D03*
X138225000Y-96706000D03*
X139495000Y-96706000D03*
X140765000Y-96706000D03*
X142035000Y-96706000D03*
X143305000Y-96706000D03*
X143305000Y-84806000D03*
X142035000Y-84806000D03*
X140765000Y-84806000D03*
X139495000Y-84806000D03*
X138225000Y-84806000D03*
X136955000Y-84806000D03*
X135685000Y-84806000D03*
X134415000Y-84806000D03*
X133145000Y-84806000D03*
X131875000Y-84806000D03*
X130605000Y-84806000D03*
X129335000Y-84806000D03*
D21*
X170770000Y-95360000D03*
D22*
X170770000Y-85160000D03*
D18*
X140260000Y-74703500D03*
D19*
X150460000Y-74703500D03*
D11*
X130784000Y-77465000D03*
X130784000Y-78735000D03*
X130784000Y-80005000D03*
X130784000Y-81275000D03*
X137770000Y-81275000D03*
X137770000Y-80005000D03*
X137770000Y-78735000D03*
X137770000Y-77465000D03*
D21*
X129233500Y-110870000D03*
D22*
X129233500Y-100670000D03*
D23*
X130780000Y-92970000D03*
X162740000Y-97410000D03*
X163830000Y-97420000D03*
X130760000Y-91830000D03*
X125160000Y-88880000D03*
X169410000Y-73680000D03*
X170100000Y-79330000D03*
X133810000Y-70090000D03*
X129370000Y-70090000D03*
X138270000Y-70090000D03*
X172820000Y-121160000D03*
X144700000Y-94990000D03*
X130850000Y-118580000D03*
X125110000Y-90020000D03*
X169500000Y-77200000D03*
X172480000Y-100330000D03*
X171610000Y-79280000D03*
X129800000Y-112420000D03*
X168620000Y-79330000D03*
X172570000Y-113870000D03*
X170170000Y-118950000D03*
X172100000Y-73660000D03*
X150330000Y-89980000D03*
X156910000Y-117520000D03*
X172570000Y-116160000D03*
X160710000Y-93180000D03*
X172480000Y-104790000D03*
X142730000Y-70070000D03*
X173225000Y-91400000D03*
X135980000Y-82000000D03*
X167275000Y-89625000D03*
X173260000Y-95850000D03*
X168180000Y-84260000D03*
X173080000Y-83810000D03*
X147220000Y-70110000D03*
X165150000Y-93160000D03*
X172550000Y-109340000D03*
X142260000Y-93420000D03*
X133590000Y-118780000D03*
X172140000Y-77180000D03*
X128590000Y-112440000D03*
X170850000Y-120450000D03*
X134930000Y-81990000D03*
X156400000Y-98780000D03*
X133090000Y-77110000D03*
X146270000Y-85220000D03*
X149280000Y-78570000D03*
X149320000Y-85200000D03*
X147780000Y-85200000D03*
X132670000Y-81840000D03*
X129840000Y-99030000D03*
X128450000Y-79980000D03*
X128480000Y-78970000D03*
X129170000Y-90070000D03*
X126680000Y-90040000D03*
X142420000Y-99490000D03*
X128650000Y-99030000D03*
X146760000Y-101970000D03*
X129490000Y-118770000D03*
X141530000Y-100850000D03*
X151040000Y-99460000D03*
X140150000Y-100910000D03*
X134240000Y-113450000D03*
X140180000Y-114690000D03*
X158740000Y-105360000D03*
X132020000Y-120150000D03*
X128210000Y-118780000D03*
X156560000Y-109460000D03*
X134280000Y-112120000D03*
X149470000Y-107860000D03*
X134290000Y-110770000D03*
X134210000Y-109400000D03*
X152160000Y-108470000D03*
X152200000Y-107130000D03*
X134230000Y-108020000D03*
X151040000Y-105980000D03*
X134230000Y-106680000D03*
X134230000Y-105380000D03*
X152230000Y-105150000D03*
X151020000Y-104210000D03*
X135480000Y-104510000D03*
X138400000Y-102210000D03*
X152180000Y-103340000D03*
X149670000Y-96570000D03*
X161230000Y-103010000D03*
X151040000Y-96790000D03*
X158760000Y-103590000D03*
X158780000Y-106730000D03*
X146500000Y-116910000D03*
X151960000Y-100600000D03*
X146120000Y-109150000D03*
X147790000Y-117670000D03*
X159780000Y-104480000D03*
X151110000Y-98180000D03*
X140180000Y-113310000D03*
X138390000Y-100820000D03*
X152140000Y-101990000D03*
X158510000Y-101770000D03*
X158290000Y-99510000D03*
X159610000Y-99910000D03*
X159860000Y-101750000D03*
X129470000Y-114670000D03*
X156660000Y-113060000D03*
X160190000Y-113090000D03*
X160620000Y-114440000D03*
X129460000Y-116070000D03*
X156800000Y-114450000D03*
X134320000Y-100880000D03*
X129460000Y-117410000D03*
X161080000Y-115860000D03*
X157060000Y-115800000D03*
X164700000Y-115800000D03*
X142410000Y-117860000D03*
X162420000Y-115780000D03*
X135680000Y-100840000D03*
X162490000Y-114410000D03*
X164700000Y-114410000D03*
X137030000Y-100870000D03*
X141300000Y-116760000D03*
X141970000Y-115650000D03*
X163790000Y-113310000D03*
X163350000Y-112150000D03*
X164750000Y-117140000D03*
X142050000Y-114150000D03*
X162660000Y-110810000D03*
X165560000Y-118240000D03*
X141980000Y-112820000D03*
X163490000Y-100590000D03*
X166730000Y-118910000D03*
X141770000Y-87340000D03*
X141390000Y-81770000D03*
X140640000Y-93130000D03*
X148080000Y-107820000D03*
X140890000Y-106230000D03*
X140060000Y-82220000D03*
X139340000Y-93190000D03*
X139930000Y-87810000D03*
X140260000Y-90910000D03*
X138830000Y-87050000D03*
X139030000Y-90910000D03*
D24*
X140765000Y-87985000D02*
X140765000Y-84806000D01*
X141010000Y-88230000D02*
X140765000Y-87985000D01*
X145490000Y-88230000D02*
X141010000Y-88230000D01*
X150200000Y-92940000D02*
X145490000Y-88230000D01*
X152530000Y-92940000D02*
X150200000Y-92940000D01*
X156160000Y-93850000D02*
X153440000Y-93850000D01*
X161740000Y-100480000D02*
X161740000Y-99430000D01*
X161740000Y-99430000D02*
X156160000Y-93850000D01*
X162870000Y-101610000D02*
X161740000Y-100480000D01*
X153440000Y-93850000D02*
X152530000Y-92940000D01*
X165380000Y-101610000D02*
X162870000Y-101610000D01*
X166770000Y-100220000D02*
X165380000Y-101610000D01*
X168390000Y-100220000D02*
X166770000Y-100220000D01*
X136955000Y-86295000D02*
X136955000Y-84806000D01*
X139330000Y-88670000D02*
X136955000Y-86295000D01*
X145310000Y-88670000D02*
X139330000Y-88670000D01*
X150000000Y-93360000D02*
X145310000Y-88670000D01*
X152340000Y-93360000D02*
X150000000Y-93360000D01*
X153280000Y-94300000D02*
X152340000Y-93360000D01*
X162230000Y-102020000D02*
X161190000Y-100980000D01*
X166180000Y-102020000D02*
X162230000Y-102020000D01*
X161190000Y-100980000D02*
X161190000Y-99660000D01*
X166680000Y-101520000D02*
X166180000Y-102020000D01*
X161190000Y-99660000D02*
X155830000Y-94300000D01*
X168390000Y-101520000D02*
X166680000Y-101520000D01*
X155830000Y-94300000D02*
X153280000Y-94300000D01*
X154404000Y-97625000D02*
X155245000Y-97625000D01*
X155245000Y-97625000D02*
X156400000Y-98780000D01*
X136190000Y-77110000D02*
X133090000Y-77110000D01*
X136545000Y-77465000D02*
X136190000Y-77110000D01*
X137770000Y-77465000D02*
X136545000Y-77465000D01*
X133950000Y-83120000D02*
X146180000Y-83120000D01*
X146180000Y-83120000D02*
X147440000Y-81860000D01*
X132670000Y-81840000D02*
X133950000Y-83120000D01*
X143390000Y-100460000D02*
X142420000Y-99490000D01*
X126680000Y-90040000D02*
X129140000Y-90040000D01*
X144240000Y-100460000D02*
X143390000Y-100460000D01*
X129140000Y-90040000D02*
X129170000Y-90070000D01*
X128100000Y-117380000D02*
X128100000Y-115550000D01*
X141530000Y-100850000D02*
X142410000Y-101730000D01*
X127585000Y-94525000D02*
X133245000Y-94525000D01*
X134150000Y-93620000D02*
X134150000Y-88490000D01*
X131875000Y-86215000D02*
X131875000Y-84806000D01*
X133245000Y-94525000D02*
X134150000Y-93620000D01*
X126620000Y-114070000D02*
X126620000Y-95490000D01*
X129490000Y-118770000D02*
X128100000Y-117380000D01*
X128100000Y-115550000D02*
X126620000Y-114070000D01*
X142410000Y-101730000D02*
X144240000Y-101730000D01*
X134150000Y-88490000D02*
X131875000Y-86215000D01*
X129490000Y-119890000D02*
X129490000Y-118770000D01*
X126620000Y-95490000D02*
X127585000Y-94525000D01*
X129080000Y-124950000D02*
X129080000Y-120300000D01*
X129080000Y-120300000D02*
X129490000Y-119890000D01*
X131610000Y-119190000D02*
X132370000Y-119190000D01*
X150840000Y-102370000D02*
X150840000Y-99660000D01*
X149730000Y-103940000D02*
X149730000Y-103480000D01*
X160220000Y-105360000D02*
X158740000Y-105360000D01*
X130580000Y-120220000D02*
X131610000Y-119190000D01*
X134000000Y-119820000D02*
X134690000Y-119130000D01*
X141070000Y-113800000D02*
X141070000Y-112300000D01*
X168390000Y-107830000D02*
X166790000Y-107830000D01*
X132370000Y-119190000D02*
X133000000Y-119820000D01*
X145590000Y-108080000D02*
X149730000Y-103940000D01*
X133000000Y-119820000D02*
X134000000Y-119820000D01*
X150840000Y-99660000D02*
X151040000Y-99460000D01*
X142620000Y-110750000D02*
X142620000Y-108170000D01*
X144240000Y-108080000D02*
X145590000Y-108080000D01*
X134690000Y-119130000D02*
X134690000Y-113900000D01*
X134690000Y-113900000D02*
X134240000Y-113450000D01*
X142620000Y-108170000D02*
X142710000Y-108080000D01*
X166790000Y-107830000D02*
X163860000Y-104900000D01*
X163860000Y-104900000D02*
X160680000Y-104900000D01*
X140150000Y-99990000D02*
X140150000Y-100910000D01*
X142035000Y-96706000D02*
X142035000Y-98105000D01*
X142035000Y-98105000D02*
X140150000Y-99990000D01*
X142710000Y-108080000D02*
X144240000Y-108080000D01*
X160680000Y-104900000D02*
X160220000Y-105360000D01*
X149730000Y-103480000D02*
X150840000Y-102370000D01*
X130580000Y-124950000D02*
X130580000Y-120220000D01*
X140180000Y-114690000D02*
X141070000Y-113800000D01*
X141070000Y-112300000D02*
X142620000Y-110750000D01*
X132080000Y-120210000D02*
X132020000Y-120150000D01*
X130605000Y-86295000D02*
X130605000Y-84806000D01*
X127650000Y-117495686D02*
X127650000Y-115730000D01*
X128210000Y-118055686D02*
X127650000Y-117495686D01*
X127650000Y-115730000D02*
X126170000Y-114250000D01*
X126170000Y-95260000D02*
X127350000Y-94080000D01*
X126170000Y-114250000D02*
X126170000Y-95260000D01*
X127350000Y-94080000D02*
X133050000Y-94080000D01*
X132080000Y-124950000D02*
X132080000Y-120210000D01*
X128210000Y-118780000D02*
X128210000Y-118055686D01*
X133680000Y-93450000D02*
X133680000Y-89370000D01*
X133680000Y-89370000D02*
X130605000Y-86295000D01*
X133050000Y-94080000D02*
X133680000Y-93450000D01*
X132570000Y-112120000D02*
X132340000Y-111890000D01*
X135260000Y-119250000D02*
X135260000Y-113100000D01*
X133580000Y-120420000D02*
X133720000Y-120280000D01*
X156520000Y-111230000D02*
X156155000Y-111595000D01*
X134230000Y-120280000D02*
X135260000Y-119250000D01*
X135260000Y-113100000D02*
X134280000Y-112120000D01*
X156560000Y-109460000D02*
X156520000Y-109500000D01*
X156155000Y-111595000D02*
X154404000Y-111595000D01*
X133580000Y-124950000D02*
X133580000Y-120420000D01*
X156520000Y-109500000D02*
X156520000Y-111230000D01*
X134280000Y-112120000D02*
X132570000Y-112120000D01*
X133720000Y-120280000D02*
X134230000Y-120280000D01*
X154404000Y-110325000D02*
X152835000Y-110325000D01*
X132490000Y-110770000D02*
X132340000Y-110620000D01*
X135080000Y-124950000D02*
X135080000Y-120400000D01*
X152835000Y-110325000D02*
X150370000Y-107860000D01*
X134290000Y-110770000D02*
X132490000Y-110770000D01*
X135710000Y-112330000D02*
X134290000Y-110910000D01*
X135710000Y-119770000D02*
X135710000Y-112330000D01*
X134290000Y-110910000D02*
X134290000Y-110770000D01*
X150370000Y-107860000D02*
X149470000Y-107860000D01*
X135080000Y-120400000D02*
X135710000Y-119770000D01*
X132390000Y-109400000D02*
X132340000Y-109350000D01*
X136580000Y-120630000D02*
X136110000Y-120160000D01*
X136110000Y-120160000D02*
X136110000Y-111451372D01*
X134210000Y-109400000D02*
X132390000Y-109400000D01*
X136110000Y-111451372D02*
X134210000Y-109551372D01*
X134210000Y-109551372D02*
X134210000Y-109400000D01*
X154404000Y-109055000D02*
X152745000Y-109055000D01*
X152745000Y-109055000D02*
X152160000Y-108470000D01*
X136580000Y-124950000D02*
X136580000Y-120630000D01*
X134230000Y-108020000D02*
X132400000Y-108020000D01*
X132400000Y-108020000D02*
X132340000Y-108080000D01*
X152855000Y-107785000D02*
X152200000Y-107130000D01*
X154404000Y-107785000D02*
X152855000Y-107785000D01*
X135240000Y-109030000D02*
X134230000Y-108020000D01*
X138080000Y-124950000D02*
X138080000Y-120630000D01*
X138080000Y-120630000D02*
X136570000Y-119120000D01*
X136570000Y-119120000D02*
X136570000Y-111345686D01*
X136570000Y-111345686D02*
X135240000Y-110015686D01*
X135240000Y-110015686D02*
X135240000Y-109030000D01*
X136970000Y-111180000D02*
X135650000Y-109860000D01*
X134230000Y-106680000D02*
X132470000Y-106680000D01*
X154349000Y-106460000D02*
X152519950Y-106460000D01*
X135650000Y-108100000D02*
X134230000Y-106680000D01*
X139580000Y-124950000D02*
X139580000Y-120460000D01*
X135650000Y-109860000D02*
X135650000Y-108100000D01*
X132470000Y-106680000D02*
X132340000Y-106810000D01*
X139580000Y-120460000D02*
X136970000Y-117850000D01*
X154404000Y-106515000D02*
X154349000Y-106460000D01*
X152519950Y-106460000D02*
X152039950Y-105980000D01*
X152039950Y-105980000D02*
X151040000Y-105980000D01*
X136970000Y-117850000D02*
X136970000Y-111180000D01*
X134240000Y-105380000D02*
X134230000Y-105380000D01*
X136120000Y-107260000D02*
X134240000Y-105380000D01*
X137390000Y-111020000D02*
X136120000Y-109750000D01*
X141080000Y-120550000D02*
X137390000Y-116860000D01*
X132500000Y-105380000D02*
X132340000Y-105540000D01*
X141080000Y-124950000D02*
X141080000Y-120550000D01*
X152325000Y-105245000D02*
X152230000Y-105150000D01*
X134230000Y-105380000D02*
X132500000Y-105380000D01*
X137390000Y-116860000D02*
X137390000Y-111020000D01*
X154404000Y-105245000D02*
X152325000Y-105245000D01*
X136120000Y-109750000D02*
X136120000Y-107260000D01*
X140110000Y-107560000D02*
X137060000Y-104510000D01*
X138000000Y-112144314D02*
X140110000Y-110034314D01*
X138000000Y-116710000D02*
X138000000Y-112144314D01*
X142580000Y-124950000D02*
X142580000Y-120960000D01*
X142060000Y-120770000D02*
X138000000Y-116710000D01*
X151090000Y-104140000D02*
X151020000Y-104210000D01*
X142580000Y-120960000D02*
X142390000Y-120770000D01*
X135480000Y-104510000D02*
X135240000Y-104270000D01*
X142390000Y-120770000D02*
X142060000Y-120770000D01*
X154239000Y-104140000D02*
X151090000Y-104140000D01*
X154404000Y-103975000D02*
X154239000Y-104140000D01*
X140110000Y-110034314D02*
X140110000Y-107560000D01*
X137060000Y-104510000D02*
X135480000Y-104510000D01*
X135240000Y-104270000D02*
X132340000Y-104270000D01*
X144080000Y-124950000D02*
X144080000Y-120520000D01*
X138400000Y-102210000D02*
X134610000Y-102210000D01*
X154404000Y-102705000D02*
X152815000Y-102705000D01*
X134610000Y-102210000D02*
X133820000Y-103000000D01*
X138400000Y-116530000D02*
X138400000Y-112310000D01*
X152815000Y-102705000D02*
X152180000Y-103340000D01*
X133820000Y-103000000D02*
X132340000Y-103000000D01*
X140510000Y-110200000D02*
X140510000Y-107320000D01*
X140510000Y-107320000D02*
X138400000Y-105210000D01*
X142020000Y-120150000D02*
X138400000Y-116530000D01*
X144080000Y-120520000D02*
X143710000Y-120150000D01*
X138400000Y-105210000D02*
X138400000Y-102210000D01*
X138400000Y-112310000D02*
X140510000Y-110200000D01*
X143710000Y-120150000D02*
X142020000Y-120150000D01*
X149290000Y-96950000D02*
X149670000Y-96570000D01*
X142660000Y-104270000D02*
X144240000Y-104270000D01*
X142520000Y-104390000D02*
X142540000Y-104390000D01*
X161770000Y-103550000D02*
X161230000Y-103010000D01*
X168390000Y-104020000D02*
X166570000Y-104020000D01*
X166570000Y-104020000D02*
X166100000Y-103550000D01*
X141090000Y-110240000D02*
X141090000Y-107280000D01*
X145580000Y-124950000D02*
X145580000Y-120590000D01*
X149160000Y-102010000D02*
X149220000Y-102010000D01*
X141090000Y-107280000D02*
X141850000Y-106520000D01*
X149290000Y-101940000D02*
X149290000Y-96950000D01*
X145580000Y-120590000D02*
X144580000Y-119590000D01*
X142540000Y-104390000D02*
X142660000Y-104270000D01*
X166100000Y-103550000D02*
X161770000Y-103550000D01*
X142070000Y-119590000D02*
X138820000Y-116340000D01*
X141850000Y-105060000D02*
X142520000Y-104390000D01*
X138820000Y-116340000D02*
X138820000Y-112510000D01*
X138820000Y-112510000D02*
X141090000Y-110240000D01*
X149220000Y-102010000D02*
X149290000Y-101940000D01*
X141850000Y-106520000D02*
X141850000Y-105060000D01*
X144240000Y-104270000D02*
X146900000Y-104270000D01*
X144580000Y-119590000D02*
X142070000Y-119590000D01*
X146900000Y-104270000D02*
X149160000Y-102010000D01*
X160320000Y-103660000D02*
X160320000Y-103640000D01*
X160270000Y-103590000D02*
X158760000Y-103590000D01*
X149760000Y-102060000D02*
X149760000Y-98070000D01*
X147080000Y-124950000D02*
X147080000Y-120420000D01*
X160660000Y-104000000D02*
X160320000Y-103660000D01*
X142710000Y-105540000D02*
X144240000Y-105540000D01*
X149760000Y-98070000D02*
X151040000Y-96790000D01*
X141490000Y-110405686D02*
X141490000Y-107660000D01*
X160320000Y-103640000D02*
X160270000Y-103590000D01*
X146280000Y-105540000D02*
X149760000Y-102060000D01*
X142540000Y-105710000D02*
X142710000Y-105540000D01*
X142540000Y-106610000D02*
X142540000Y-105710000D01*
X147080000Y-120420000D02*
X145800000Y-119140000D01*
X144240000Y-105540000D02*
X146280000Y-105540000D01*
X165460000Y-104000000D02*
X160660000Y-104000000D01*
X139360000Y-112535686D02*
X141490000Y-110405686D01*
X168390000Y-105290000D02*
X166750000Y-105290000D01*
X139360000Y-116200000D02*
X139360000Y-112535686D01*
X166750000Y-105290000D02*
X165460000Y-104000000D01*
X145800000Y-119140000D02*
X142300000Y-119140000D01*
X142300000Y-119140000D02*
X139360000Y-116200000D01*
X141490000Y-107660000D02*
X142540000Y-106610000D01*
X151370000Y-102500000D02*
X151370000Y-100730000D01*
X146120000Y-108754695D02*
X150154695Y-104720000D01*
X150230000Y-103640000D02*
X151370000Y-102500000D01*
X146500000Y-118230000D02*
X146500000Y-116910000D01*
X166680000Y-109100000D02*
X166420000Y-109360000D01*
X158780000Y-107670000D02*
X158780000Y-106730000D01*
X168390000Y-109100000D02*
X166680000Y-109100000D01*
X148580000Y-120310000D02*
X146500000Y-118230000D01*
X151500000Y-100600000D02*
X151960000Y-100600000D01*
X148580000Y-124950000D02*
X148580000Y-120310000D01*
X150154695Y-104720000D02*
X150230000Y-104720000D01*
X144240000Y-109350000D02*
X145920000Y-109350000D01*
X166420000Y-109360000D02*
X160470000Y-109360000D01*
X146120000Y-109150000D02*
X146120000Y-108754695D01*
X150230000Y-104720000D02*
X150230000Y-103640000D01*
X145920000Y-109350000D02*
X146120000Y-109150000D01*
X151370000Y-100730000D02*
X151500000Y-100600000D01*
X160470000Y-109360000D02*
X158780000Y-107670000D01*
X140180000Y-113310000D02*
X140180000Y-112340000D01*
X148630000Y-119450000D02*
X149250000Y-118830000D01*
X150180000Y-98980000D02*
X150980000Y-98180000D01*
X150180000Y-102350000D02*
X150180000Y-98980000D01*
X164610000Y-104480000D02*
X159780000Y-104480000D01*
X149250000Y-118830000D02*
X151400000Y-118830000D01*
X168390000Y-106560000D02*
X166690000Y-106560000D01*
X150080000Y-124950000D02*
X150080000Y-121060000D01*
X166690000Y-106560000D02*
X164610000Y-104480000D01*
X144240000Y-106810000D02*
X145720000Y-106810000D01*
X143240000Y-106810000D02*
X144240000Y-106810000D01*
X145720000Y-106810000D02*
X150180000Y-102350000D01*
X142140000Y-107910000D02*
X143240000Y-106810000D01*
X147790000Y-118770000D02*
X147790000Y-117670000D01*
X148470000Y-119450000D02*
X147790000Y-118770000D01*
X148470000Y-119450000D02*
X148630000Y-119450000D01*
X150080000Y-121060000D02*
X148470000Y-119450000D01*
X142140000Y-110380000D02*
X142140000Y-107910000D01*
X150980000Y-98180000D02*
X151110000Y-98180000D01*
X140180000Y-112340000D02*
X142140000Y-110380000D01*
X152695000Y-101435000D02*
X152140000Y-101990000D01*
X151610000Y-120610000D02*
X152920000Y-120610000D01*
X156710000Y-119000000D02*
X157900000Y-117810000D01*
X157900000Y-109390000D02*
X156190000Y-107680000D01*
X151580000Y-124950000D02*
X151580000Y-120640000D01*
X154520000Y-119000000D02*
X156710000Y-119000000D01*
X137480000Y-101730000D02*
X138390000Y-100820000D01*
X151580000Y-120640000D02*
X151610000Y-120610000D01*
X132340000Y-101730000D02*
X137480000Y-101730000D01*
X154450000Y-119070000D02*
X154520000Y-119000000D01*
X156190000Y-107680000D02*
X156190000Y-101690000D01*
X157900000Y-117810000D02*
X157900000Y-109390000D01*
X152920000Y-120610000D02*
X154450000Y-119080000D01*
X154450000Y-119080000D02*
X154450000Y-119070000D01*
X154404000Y-101435000D02*
X152695000Y-101435000D01*
X156190000Y-101690000D02*
X155935000Y-101435000D01*
X155935000Y-101435000D02*
X154404000Y-101435000D01*
X145010000Y-89140000D02*
X139000000Y-89140000D01*
X154830000Y-119420000D02*
X156960000Y-119420000D01*
X155704314Y-94740000D02*
X153000000Y-94740000D01*
X152080000Y-93820000D02*
X149690000Y-93820000D01*
X160700000Y-100520000D02*
X160700000Y-100860000D01*
X149690000Y-93820000D02*
X145010000Y-89140000D01*
X160700000Y-100860000D02*
X160770000Y-100930000D01*
X160770000Y-101400000D02*
X161800000Y-102430000D01*
X135680000Y-86850000D02*
X135685000Y-86845000D01*
X135685000Y-86845000D02*
X135685000Y-84806000D01*
X153080000Y-121170000D02*
X154830000Y-119420000D01*
X160550000Y-99585686D02*
X155704314Y-94740000D01*
X156640000Y-102240000D02*
X158020000Y-100860000D01*
X156960000Y-119420000D02*
X158300000Y-118080000D01*
X160770000Y-100930000D02*
X160770000Y-101400000D01*
X156640000Y-107520000D02*
X156640000Y-102240000D01*
X153000000Y-94740000D02*
X152080000Y-93820000D01*
X137390000Y-87530000D02*
X136360000Y-87530000D01*
X161800000Y-102430000D02*
X166460000Y-102430000D01*
X158300000Y-118080000D02*
X158300000Y-109224314D01*
X158300000Y-109224314D02*
X156627843Y-107552157D01*
X160550000Y-100370000D02*
X160550000Y-99585686D01*
X153080000Y-124950000D02*
X153080000Y-121170000D01*
X166460000Y-102430000D02*
X166780000Y-102750000D01*
X160550000Y-100370000D02*
X160700000Y-100520000D01*
X139000000Y-89140000D02*
X137390000Y-87530000D01*
X158020000Y-100860000D02*
X160700000Y-100860000D01*
X136360000Y-87530000D02*
X135680000Y-86850000D01*
X166780000Y-102750000D02*
X168390000Y-102750000D01*
X158780000Y-108950000D02*
X157120000Y-107290000D01*
X157120000Y-107290000D02*
X157120000Y-103140000D01*
X138830000Y-89560000D02*
X137310000Y-88040000D01*
X144790000Y-89560000D02*
X138830000Y-89560000D01*
X158490000Y-101770000D02*
X158510000Y-101770000D01*
X134415000Y-86425000D02*
X134415000Y-84806000D01*
X136030000Y-88040000D02*
X134415000Y-86425000D01*
X155390000Y-95170000D02*
X152770000Y-95170000D01*
X154580000Y-120500000D02*
X155130000Y-119950000D01*
X157120000Y-119950000D02*
X158780000Y-118290000D01*
X152770000Y-95170000D02*
X151910000Y-94310000D01*
X151910000Y-94310000D02*
X149540000Y-94310000D01*
X149540000Y-94310000D02*
X144790000Y-89560000D01*
X137310000Y-88040000D02*
X136030000Y-88040000D01*
X155130000Y-119950000D02*
X157120000Y-119950000D01*
X158780000Y-118290000D02*
X158780000Y-108950000D01*
X158290000Y-99510000D02*
X158290000Y-98070000D01*
X157120000Y-103140000D02*
X158490000Y-101770000D01*
X154580000Y-124950000D02*
X154580000Y-120500000D01*
X158290000Y-98070000D02*
X155390000Y-95170000D01*
X159230000Y-118630000D02*
X159230000Y-109880000D01*
X155280000Y-95640000D02*
X152570000Y-95640000D01*
X166210000Y-109880000D02*
X166700000Y-110370000D01*
X159230000Y-108770000D02*
X157620000Y-107160000D01*
X157610000Y-98730000D02*
X157610000Y-97970000D01*
X152570000Y-95640000D02*
X151650000Y-94720000D01*
X157620000Y-103390000D02*
X158320000Y-102690000D01*
X159230000Y-100430000D02*
X157920000Y-100430000D01*
X156080000Y-124950000D02*
X156080000Y-121050000D01*
X159230000Y-109880000D02*
X159230000Y-108770000D01*
X159230000Y-109880000D02*
X166210000Y-109880000D01*
X157620000Y-107160000D02*
X157620000Y-103390000D01*
X149320000Y-94720000D02*
X144630000Y-90030000D01*
X158320000Y-102690000D02*
X158940000Y-102690000D01*
X137110000Y-88510000D02*
X135270000Y-88510000D01*
X157410000Y-98930000D02*
X157610000Y-98730000D01*
X133145000Y-86385000D02*
X133145000Y-84806000D01*
X138630000Y-90030000D02*
X137110000Y-88510000D01*
X159610000Y-99910000D02*
X159610000Y-100050000D01*
X158940000Y-102690000D02*
X159860000Y-101770000D01*
X144630000Y-90030000D02*
X138630000Y-90030000D01*
X157610000Y-97970000D02*
X155280000Y-95640000D01*
X159610000Y-100050000D02*
X159230000Y-100430000D01*
X156080000Y-121050000D02*
X156260000Y-120870000D01*
X151650000Y-94720000D02*
X149320000Y-94720000D01*
X156990000Y-120870000D02*
X159230000Y-118630000D01*
X156260000Y-120870000D02*
X156990000Y-120870000D01*
X157410000Y-99920000D02*
X157410000Y-98930000D01*
X157920000Y-100430000D02*
X157410000Y-99920000D01*
X166700000Y-110370000D02*
X168390000Y-110370000D01*
X135270000Y-88510000D02*
X133145000Y-86385000D01*
X159860000Y-101770000D02*
X159860000Y-101750000D01*
X156465000Y-112865000D02*
X154404000Y-112865000D01*
X159750000Y-118940000D02*
X159750000Y-113530000D01*
X129335000Y-96706000D02*
X128924000Y-96706000D01*
X127510000Y-98120000D02*
X127510000Y-113360000D01*
X128820000Y-114670000D02*
X129470000Y-114670000D01*
X127510000Y-113360000D02*
X128820000Y-114670000D01*
X130980000Y-113160000D02*
X129470000Y-114670000D01*
X157580000Y-121110000D02*
X159750000Y-118940000D01*
X128924000Y-96706000D02*
X127510000Y-98120000D01*
X159750000Y-113530000D02*
X160190000Y-113090000D01*
X157580000Y-124950000D02*
X157580000Y-121110000D01*
X156660000Y-113060000D02*
X156465000Y-112865000D01*
X132340000Y-113160000D02*
X130980000Y-113160000D01*
X160250000Y-114810000D02*
X160620000Y-114440000D01*
X127060000Y-95760000D02*
X127060000Y-113944314D01*
X130605000Y-96706000D02*
X130605000Y-95265000D01*
X130540000Y-115020000D02*
X130540000Y-114610000D01*
X160250000Y-119290000D02*
X160250000Y-114810000D01*
X130605000Y-95265000D02*
X130360000Y-95020000D01*
X159080000Y-120460000D02*
X160250000Y-119290000D01*
X130340000Y-115220000D02*
X130540000Y-115020000D01*
X156800000Y-114450000D02*
X156485000Y-114135000D01*
X129460000Y-116070000D02*
X130310000Y-115220000D01*
X130310000Y-115220000D02*
X130340000Y-115220000D01*
X130540000Y-114610000D02*
X130720000Y-114430000D01*
X127800000Y-95020000D02*
X127060000Y-95760000D01*
X130720000Y-114430000D02*
X132340000Y-114430000D01*
X127060000Y-113944314D02*
X129185686Y-116070000D01*
X156485000Y-114135000D02*
X154404000Y-114135000D01*
X130360000Y-95020000D02*
X127800000Y-95020000D01*
X129185686Y-116070000D02*
X129460000Y-116070000D01*
X159080000Y-124950000D02*
X159080000Y-120460000D01*
X132780000Y-98390000D02*
X131900000Y-98390000D01*
X130520000Y-116360000D02*
X130520000Y-115910000D01*
X160580000Y-124950000D02*
X160580000Y-120650000D01*
X131875000Y-98365000D02*
X131875000Y-96706000D01*
X156680000Y-115420000D02*
X154404000Y-115420000D01*
X130520000Y-115910000D02*
X130730000Y-115700000D01*
X160580000Y-120650000D02*
X161080000Y-120150000D01*
X130730000Y-115700000D02*
X132340000Y-115700000D01*
X161080000Y-120150000D02*
X161080000Y-115860000D01*
X134320000Y-100880000D02*
X134320000Y-99930000D01*
X157060000Y-115800000D02*
X156680000Y-115420000D01*
X131900000Y-98390000D02*
X131875000Y-98365000D01*
X129460000Y-117410000D02*
X130420000Y-116450000D01*
X130430000Y-116450000D02*
X130520000Y-116360000D01*
X134320000Y-99930000D02*
X132780000Y-98390000D01*
X130420000Y-116450000D02*
X130430000Y-116450000D01*
X166750000Y-116720000D02*
X165830000Y-115800000D01*
X133145000Y-97745000D02*
X133145000Y-96706000D01*
X165830000Y-115800000D02*
X164700000Y-115800000D01*
X143300000Y-116970000D02*
X144240000Y-116970000D01*
X162080000Y-120470000D02*
X162470000Y-120080000D01*
X135680000Y-100840000D02*
X135680000Y-100280000D01*
X162470000Y-115830000D02*
X162420000Y-115780000D01*
X162080000Y-124950000D02*
X162080000Y-120470000D01*
X162470000Y-120080000D02*
X162470000Y-115830000D01*
X168390000Y-116720000D02*
X166750000Y-116720000D01*
X142410000Y-117860000D02*
X143300000Y-116970000D01*
X135680000Y-100280000D02*
X133145000Y-97745000D01*
X165800000Y-114410000D02*
X164700000Y-114410000D01*
X163360000Y-120060000D02*
X163360000Y-115280000D01*
X134480000Y-98320000D02*
X134450000Y-98320000D01*
X141300000Y-116760000D02*
X142150000Y-116760000D01*
X168390000Y-115450000D02*
X166840000Y-115450000D01*
X143210000Y-115700000D02*
X144240000Y-115700000D01*
X163360000Y-115280000D02*
X162490000Y-114410000D01*
X134450000Y-98320000D02*
X134415000Y-98285000D01*
X163580000Y-120280000D02*
X163360000Y-120060000D01*
X163580000Y-124950000D02*
X163580000Y-120280000D01*
X142150000Y-116760000D02*
X143210000Y-115700000D01*
X137030000Y-100870000D02*
X134480000Y-98320000D01*
X166840000Y-115450000D02*
X165800000Y-114410000D01*
X134415000Y-98285000D02*
X134415000Y-96706000D01*
X141970000Y-115650000D02*
X143190000Y-114430000D01*
X163790000Y-118960000D02*
X163790000Y-113310000D01*
X165080000Y-120250000D02*
X163790000Y-118960000D01*
X165920000Y-113310000D02*
X166790000Y-114180000D01*
X163790000Y-113310000D02*
X165920000Y-113310000D01*
X143190000Y-114430000D02*
X144240000Y-114430000D01*
X165080000Y-124950000D02*
X165080000Y-120250000D01*
X166790000Y-114180000D02*
X168390000Y-114180000D01*
X165880000Y-120310000D02*
X164750000Y-119180000D01*
X166780000Y-112910000D02*
X166020000Y-112150000D01*
X143040000Y-113160000D02*
X144240000Y-113160000D01*
X166590000Y-120340000D02*
X165900000Y-120340000D01*
X164750000Y-119180000D02*
X164750000Y-117140000D01*
X168390000Y-112910000D02*
X166780000Y-112910000D01*
X166020000Y-112150000D02*
X163350000Y-112150000D01*
X142050000Y-114150000D02*
X143040000Y-113160000D01*
X166580000Y-124950000D02*
X166580000Y-120400000D01*
X165650000Y-118330000D02*
X165560000Y-118240000D01*
X142910000Y-111890000D02*
X144240000Y-111890000D01*
X166000000Y-110810000D02*
X162660000Y-110810000D01*
X168390000Y-111640000D02*
X166830000Y-111640000D01*
X166830000Y-111640000D02*
X166000000Y-110810000D01*
X167520000Y-119880000D02*
X166050000Y-119880000D01*
X141980000Y-112820000D02*
X142910000Y-111890000D01*
X166050000Y-119880000D02*
X165650000Y-119480000D01*
X168080000Y-124950000D02*
X168080000Y-120440000D01*
X165650000Y-119480000D02*
X165650000Y-118330000D01*
X168080000Y-120440000D02*
X167520000Y-119880000D01*
X153700000Y-93390000D02*
X152800000Y-92490000D01*
X169580000Y-120540000D02*
X167950000Y-118910000D01*
X140765000Y-96706000D02*
X140765000Y-93255000D01*
X140765000Y-93255000D02*
X140640000Y-93130000D01*
X141390000Y-81770000D02*
X139625000Y-80005000D01*
X142500000Y-87770000D02*
X142070000Y-87340000D01*
X150450000Y-92490000D02*
X145730000Y-87770000D01*
X152800000Y-92490000D02*
X150450000Y-92490000D01*
X145730000Y-87770000D02*
X142500000Y-87770000D01*
X163490000Y-100590000D02*
X156290000Y-93390000D01*
X169580000Y-124950000D02*
X169580000Y-120540000D01*
X167950000Y-118910000D02*
X166730000Y-118910000D01*
X139625000Y-80005000D02*
X137770000Y-80005000D01*
X142070000Y-87340000D02*
X141770000Y-87340000D01*
X156290000Y-93390000D02*
X153700000Y-93390000D01*
X145850000Y-110620000D02*
X148080000Y-108390000D01*
X144240000Y-110620000D02*
X145850000Y-110620000D01*
X138225000Y-98185000D02*
X139360000Y-99320000D01*
X140890000Y-103470000D02*
X140890000Y-106230000D01*
X139360000Y-99320000D02*
X139360000Y-101940000D01*
X139360000Y-101940000D02*
X140890000Y-103470000D01*
X138225000Y-96706000D02*
X138225000Y-98185000D01*
X148080000Y-108390000D02*
X148080000Y-107820000D01*
X139535000Y-78735000D02*
X137770000Y-78735000D01*
X140060000Y-82220000D02*
X140360000Y-82220000D01*
X140360000Y-82220000D02*
X140820000Y-82680000D01*
X139340000Y-93040000D02*
X139340000Y-93190000D01*
X140040000Y-92340000D02*
X139340000Y-93040000D01*
X148710000Y-96120000D02*
X144930000Y-92340000D01*
X140820000Y-82680000D02*
X141960000Y-82680000D01*
X142300000Y-82340000D02*
X142300000Y-81500000D01*
X147470000Y-103000000D02*
X148710000Y-101760000D01*
X144930000Y-92340000D02*
X140040000Y-92340000D01*
X144240000Y-103000000D02*
X147470000Y-103000000D01*
X141960000Y-82680000D02*
X142300000Y-82340000D01*
X148710000Y-101760000D02*
X148710000Y-96120000D01*
X142300000Y-81500000D02*
X139535000Y-78735000D01*
X152640000Y-96330000D02*
X151520000Y-95210000D01*
X152730000Y-98910000D02*
X152640000Y-98820000D01*
X152745000Y-98895000D02*
X152730000Y-98910000D01*
X152640000Y-98820000D02*
X152640000Y-96330000D01*
X151520000Y-95210000D02*
X149190000Y-95210000D01*
X154404000Y-98895000D02*
X152745000Y-98895000D01*
X149190000Y-95210000D02*
X144950000Y-90970000D01*
X139495000Y-86325000D02*
X139495000Y-84806000D01*
X139930000Y-87810000D02*
X139930000Y-86760000D01*
X144950000Y-90970000D02*
X140320000Y-90970000D01*
X140320000Y-90970000D02*
X140260000Y-90910000D01*
X139930000Y-86760000D02*
X139495000Y-86325000D01*
X151230000Y-95680000D02*
X148940000Y-95680000D01*
X145130000Y-91870000D02*
X139820000Y-91870000D01*
X148940000Y-95680000D02*
X145130000Y-91870000D01*
X139820000Y-91870000D02*
X139030000Y-91080000D01*
X138830000Y-87050000D02*
X138225000Y-86445000D01*
X138225000Y-86445000D02*
X138225000Y-84806000D01*
X152170000Y-96620000D02*
X151230000Y-95680000D01*
X139030000Y-91080000D02*
X139030000Y-90910000D01*
X152170000Y-99450000D02*
X152170000Y-96620000D01*
X154404000Y-100165000D02*
X152885000Y-100165000D01*
X152885000Y-100165000D02*
X152170000Y-99450000D01*
X152970000Y-92010000D02*
X150650000Y-92010000D01*
X168390000Y-98920000D02*
X162700000Y-98920000D01*
X143190000Y-87360000D02*
X142035000Y-86205000D01*
X150650000Y-92010000D02*
X146750000Y-88110000D01*
X146750000Y-88110000D02*
X146000000Y-87360000D01*
X162700000Y-98920000D02*
X156720000Y-92940000D01*
X153890000Y-92940000D02*
X153090000Y-92140000D01*
X156720000Y-92940000D02*
X153890000Y-92940000D01*
X142035000Y-86205000D02*
X142035000Y-84806000D01*
X153090000Y-92130000D02*
X152970000Y-92010000D01*
X153090000Y-92140000D02*
X153090000Y-92130000D01*
X146000000Y-87360000D02*
X143190000Y-87360000D01*
G04 #@! TA.AperFunction,Conductor*
G36*
X126060458Y-73099110D02*
G01*
X126597299Y-73099679D01*
X126615548Y-73101028D01*
X126688241Y-73111752D01*
X126716203Y-73115878D01*
X126751175Y-73126387D01*
X126834933Y-73165545D01*
X126865423Y-73185641D01*
X126934434Y-73247172D01*
X126957881Y-73275167D01*
X127009064Y-73358312D01*
X127016024Y-73369619D01*
X127132049Y-73639241D01*
X127425571Y-73638146D01*
X127425572Y-73638146D01*
X127430172Y-73638129D01*
X127430174Y-73638129D01*
X127562286Y-73637636D01*
X127939966Y-73636226D01*
X127954102Y-73636970D01*
X128056114Y-73648113D01*
X128114012Y-73654438D01*
X128141620Y-73660651D01*
X128246726Y-73697109D01*
X128286843Y-73711024D01*
X128312360Y-73723237D01*
X128442689Y-73804757D01*
X128464838Y-73822360D01*
X128564474Y-73921725D01*
X128598584Y-73983991D01*
X128601500Y-74010942D01*
X128601500Y-75461377D01*
X128601498Y-75462147D01*
X128601024Y-75539721D01*
X128603491Y-75548352D01*
X128609150Y-75568153D01*
X128612728Y-75584915D01*
X128616920Y-75614187D01*
X128620634Y-75622355D01*
X128620634Y-75622356D01*
X128627548Y-75637562D01*
X128633996Y-75655086D01*
X128641051Y-75679771D01*
X128645843Y-75687365D01*
X128645844Y-75687368D01*
X128656830Y-75704780D01*
X128664969Y-75719863D01*
X128677208Y-75746782D01*
X128683069Y-75753584D01*
X128693970Y-75766235D01*
X128705073Y-75781239D01*
X128718776Y-75802958D01*
X128725501Y-75808897D01*
X128725504Y-75808901D01*
X128740938Y-75822532D01*
X128752982Y-75834724D01*
X128766427Y-75850327D01*
X128766430Y-75850329D01*
X128772287Y-75857127D01*
X128779816Y-75862007D01*
X128779817Y-75862008D01*
X128793835Y-75871094D01*
X128808709Y-75882385D01*
X128816063Y-75888879D01*
X128827951Y-75899378D01*
X128854711Y-75911942D01*
X128869691Y-75920263D01*
X128886983Y-75931471D01*
X128886988Y-75931473D01*
X128894515Y-75936352D01*
X128903108Y-75938922D01*
X128903113Y-75938924D01*
X128919120Y-75943711D01*
X128936564Y-75950372D01*
X128951676Y-75957467D01*
X128951678Y-75957468D01*
X128959800Y-75961281D01*
X128968667Y-75962662D01*
X128968668Y-75962662D01*
X128971353Y-75963080D01*
X128989017Y-75965830D01*
X129005742Y-75969616D01*
X129010004Y-75970891D01*
X129069535Y-76009578D01*
X129098699Y-76074307D01*
X129099892Y-76091662D01*
X129099417Y-77149449D01*
X129098338Y-77165848D01*
X129080571Y-77300725D01*
X129072091Y-77332408D01*
X129023291Y-77450448D01*
X129006922Y-77478870D01*
X128929306Y-77580321D01*
X128906156Y-77603555D01*
X128804988Y-77681536D01*
X128776626Y-77698008D01*
X128658760Y-77747236D01*
X128627106Y-77755830D01*
X128492293Y-77774084D01*
X128475899Y-77775222D01*
X128153223Y-77776534D01*
X128153219Y-77776534D01*
X127869137Y-77777689D01*
X127629736Y-77925240D01*
X127375317Y-78082046D01*
X127375314Y-78082049D01*
X126900000Y-78375000D01*
X126900000Y-80300000D01*
X127232088Y-80598027D01*
X127232090Y-80598030D01*
X127234547Y-80600235D01*
X127234554Y-80600242D01*
X127392307Y-80741814D01*
X127680000Y-81000000D01*
X131240079Y-80995388D01*
X131264683Y-80997781D01*
X131315445Y-81007819D01*
X131337887Y-81012256D01*
X131383361Y-81031041D01*
X131434903Y-81065420D01*
X131469717Y-81100189D01*
X131504162Y-81151685D01*
X131523006Y-81197138D01*
X131535104Y-81257910D01*
X131535108Y-81307092D01*
X131523004Y-81367941D01*
X131504190Y-81413360D01*
X131469717Y-81464953D01*
X131434953Y-81499717D01*
X131383360Y-81534190D01*
X131337942Y-81553004D01*
X131305336Y-81559490D01*
X131264670Y-81567579D01*
X131240089Y-81570000D01*
X129640000Y-81570000D01*
X129642008Y-82519993D01*
X129642008Y-82519998D01*
X129648837Y-85750000D01*
X129650000Y-86300000D01*
X129939510Y-86591578D01*
X129941670Y-86593753D01*
X129941675Y-86593759D01*
X132855276Y-89528171D01*
X132863512Y-89537319D01*
X132975142Y-89674208D01*
X132988748Y-89694689D01*
X133056754Y-89822602D01*
X133071500Y-89881751D01*
X133071500Y-93020575D01*
X133056622Y-93079971D01*
X132987319Y-93209628D01*
X132973601Y-93230158D01*
X132864974Y-93362521D01*
X132847521Y-93379974D01*
X132770845Y-93442901D01*
X132705499Y-93470653D01*
X132690913Y-93471500D01*
X127398136Y-93471500D01*
X127381693Y-93470422D01*
X127350000Y-93466250D01*
X127341811Y-93467328D01*
X127310126Y-93471499D01*
X127310117Y-93471500D01*
X127310115Y-93471500D01*
X127310109Y-93471501D01*
X127310107Y-93471501D01*
X127210543Y-93484609D01*
X127199336Y-93486084D01*
X127199334Y-93486085D01*
X127191149Y-93487162D01*
X127043124Y-93548476D01*
X126947928Y-93621523D01*
X126947925Y-93621526D01*
X126916013Y-93646013D01*
X126910983Y-93652568D01*
X126896548Y-93671379D01*
X126885681Y-93683770D01*
X125773766Y-94795685D01*
X125761375Y-94806552D01*
X125736013Y-94826013D01*
X125711526Y-94857925D01*
X125711523Y-94857928D01*
X125711517Y-94857936D01*
X125658467Y-94927072D01*
X125638476Y-94953124D01*
X125577162Y-95101149D01*
X125577162Y-95101150D01*
X125561500Y-95220115D01*
X125561500Y-95220120D01*
X125556250Y-95260000D01*
X125557328Y-95268188D01*
X125560422Y-95291690D01*
X125561500Y-95308136D01*
X125561500Y-114201864D01*
X125560422Y-114218307D01*
X125556250Y-114250000D01*
X125561500Y-114289880D01*
X125561500Y-114289885D01*
X125572953Y-114376876D01*
X125577162Y-114408851D01*
X125638476Y-114556876D01*
X125643503Y-114563427D01*
X125643504Y-114563429D01*
X125711520Y-114652069D01*
X125711526Y-114652075D01*
X125736013Y-114683987D01*
X125742568Y-114689017D01*
X125761379Y-114703452D01*
X125773770Y-114714319D01*
X127004595Y-115945144D01*
X127038621Y-116007456D01*
X127041500Y-116034239D01*
X127041500Y-117447550D01*
X127040422Y-117463993D01*
X127036250Y-117495686D01*
X127041500Y-117535566D01*
X127041500Y-117535571D01*
X127049287Y-117594720D01*
X127057162Y-117654537D01*
X127118476Y-117802562D01*
X127123503Y-117809113D01*
X127123504Y-117809115D01*
X127191520Y-117897755D01*
X127191526Y-117897761D01*
X127214303Y-117927445D01*
X127214305Y-117927448D01*
X127216013Y-117929673D01*
X127215666Y-117929939D01*
X127247121Y-117987543D01*
X127250000Y-118014326D01*
X127250000Y-119627582D01*
X127248449Y-119647292D01*
X127239092Y-119706374D01*
X127235380Y-119729808D01*
X127223199Y-119767299D01*
X127211685Y-119789896D01*
X127189828Y-119832793D01*
X127166656Y-119864685D01*
X127114685Y-119916656D01*
X127082794Y-119939827D01*
X127017299Y-119973199D01*
X126979809Y-119985380D01*
X126945442Y-119990823D01*
X126887600Y-119999984D01*
X126887500Y-120000000D01*
X126525000Y-120000000D01*
X126522034Y-120367413D01*
X126522034Y-120367414D01*
X126505167Y-122456870D01*
X126504267Y-122470916D01*
X126483496Y-122643418D01*
X126477046Y-122670772D01*
X126420939Y-122827710D01*
X126408586Y-122852953D01*
X126319090Y-122993549D01*
X126301448Y-123015427D01*
X126183013Y-123132688D01*
X126160960Y-123150111D01*
X126019482Y-123238201D01*
X125994117Y-123250302D01*
X125836630Y-123304842D01*
X125809213Y-123311020D01*
X125643605Y-123329289D01*
X125615408Y-123329226D01*
X125450693Y-123310303D01*
X125423131Y-123303940D01*
X125383578Y-123289977D01*
X125293406Y-123258145D01*
X125235830Y-123216609D01*
X125209849Y-123150537D01*
X125209350Y-123139332D01*
X125209350Y-119983606D01*
X125209352Y-119982836D01*
X125209771Y-119914237D01*
X125209826Y-119905262D01*
X125201700Y-119876830D01*
X125198122Y-119860068D01*
X125196109Y-119846013D01*
X125193930Y-119830796D01*
X125183301Y-119807419D01*
X125176854Y-119789896D01*
X125172266Y-119773845D01*
X125169799Y-119765212D01*
X125165006Y-119757615D01*
X125154020Y-119740203D01*
X125145880Y-119725118D01*
X125133642Y-119698201D01*
X125116880Y-119678748D01*
X125105777Y-119663744D01*
X125092074Y-119642025D01*
X125085349Y-119636086D01*
X125085346Y-119636082D01*
X125069912Y-119622451D01*
X125057868Y-119610259D01*
X125044423Y-119594656D01*
X125044420Y-119594654D01*
X125038563Y-119587856D01*
X125017015Y-119573889D01*
X125002141Y-119562598D01*
X124989633Y-119551552D01*
X124989632Y-119551551D01*
X124982899Y-119545605D01*
X124956137Y-119533040D01*
X124941159Y-119524720D01*
X124923867Y-119513512D01*
X124923862Y-119513510D01*
X124916335Y-119508631D01*
X124907742Y-119506061D01*
X124907737Y-119506059D01*
X124891730Y-119501272D01*
X124874286Y-119494611D01*
X124859174Y-119487516D01*
X124859172Y-119487515D01*
X124851050Y-119483702D01*
X124842183Y-119482321D01*
X124842182Y-119482321D01*
X124832540Y-119480820D01*
X124821833Y-119479153D01*
X124805118Y-119475370D01*
X124785384Y-119469468D01*
X124785378Y-119469467D01*
X124776784Y-119466897D01*
X124767813Y-119466842D01*
X124767812Y-119466842D01*
X124757753Y-119466781D01*
X124742344Y-119466687D01*
X124741561Y-119466654D01*
X124740464Y-119466483D01*
X124709473Y-119466483D01*
X124708703Y-119466481D01*
X124635065Y-119466031D01*
X124635064Y-119466031D01*
X124631129Y-119466007D01*
X124629785Y-119466391D01*
X124628440Y-119466483D01*
X124585350Y-119466483D01*
X124517229Y-119446481D01*
X124470736Y-119392825D01*
X124459350Y-119340483D01*
X124459350Y-91465260D01*
X124479352Y-91397139D01*
X124488014Y-91385250D01*
X124514872Y-91352576D01*
X124532356Y-91335120D01*
X124664821Y-91226594D01*
X124685372Y-91212887D01*
X124836460Y-91132296D01*
X124859289Y-91122863D01*
X125023202Y-91073300D01*
X125047432Y-91068503D01*
X125224060Y-91051270D01*
X125236413Y-91050675D01*
X128913777Y-91054107D01*
X128913780Y-91054107D01*
X129719679Y-91054859D01*
X129719681Y-90793601D01*
X129781253Y-90748866D01*
X129909040Y-90606944D01*
X130004527Y-90441556D01*
X130063542Y-90259928D01*
X130083504Y-90070000D01*
X130063542Y-89880072D01*
X130004527Y-89698444D01*
X129909040Y-89533056D01*
X129804493Y-89416944D01*
X129785675Y-89396045D01*
X129785674Y-89396044D01*
X129781253Y-89391134D01*
X129626752Y-89278882D01*
X129620724Y-89276198D01*
X129620722Y-89276197D01*
X129458319Y-89203891D01*
X129458318Y-89203891D01*
X129452288Y-89201206D01*
X129358887Y-89181353D01*
X129271944Y-89162872D01*
X129271939Y-89162872D01*
X129265487Y-89161500D01*
X129074513Y-89161500D01*
X129068061Y-89162872D01*
X129068056Y-89162872D01*
X128981113Y-89181353D01*
X128887712Y-89201206D01*
X128881682Y-89203891D01*
X128881681Y-89203891D01*
X128719278Y-89276197D01*
X128719276Y-89276198D01*
X128713248Y-89278882D01*
X128707907Y-89282762D01*
X128707906Y-89282763D01*
X128596285Y-89363861D01*
X128529417Y-89387719D01*
X128480602Y-89380852D01*
X128435642Y-89365117D01*
X128410223Y-89352874D01*
X128262700Y-89260170D01*
X128240643Y-89242579D01*
X128117444Y-89119372D01*
X128099853Y-89097312D01*
X128007159Y-88949782D01*
X127994918Y-88924362D01*
X127937375Y-88759906D01*
X127931097Y-88732400D01*
X127910792Y-88552183D01*
X127910000Y-88538076D01*
X127910000Y-84750000D01*
X125167395Y-84750000D01*
X125155035Y-84749392D01*
X124978326Y-84731974D01*
X124954083Y-84727148D01*
X124840466Y-84692655D01*
X124790127Y-84677372D01*
X124767295Y-84667907D01*
X124616208Y-84587077D01*
X124595660Y-84573334D01*
X124505365Y-84499151D01*
X124465427Y-84440453D01*
X124459350Y-84401794D01*
X124459350Y-73455801D01*
X124479352Y-73387680D01*
X124505526Y-73358312D01*
X124553026Y-73319419D01*
X124608565Y-73273943D01*
X124629115Y-73260245D01*
X124630601Y-73259453D01*
X124780193Y-73179707D01*
X124803016Y-73170283D01*
X124898977Y-73141288D01*
X124966900Y-73120764D01*
X124991129Y-73115972D01*
X125167705Y-73098772D01*
X125180054Y-73098178D01*
X126060458Y-73099110D01*
G37*
G04 #@! TD.AperFunction*
G04 #@! TA.AperFunction,Conductor*
G36*
X130109598Y-98526096D02*
G01*
X130252399Y-98545059D01*
X130284421Y-98553717D01*
X130407083Y-98605008D01*
X130439825Y-98625035D01*
X130487952Y-98665725D01*
X130515862Y-98699188D01*
X130545904Y-98751492D01*
X130560746Y-98792461D01*
X130573102Y-98862844D01*
X130575000Y-98884631D01*
X130575000Y-101159904D01*
X130574276Y-101173392D01*
X130553535Y-101366039D01*
X130547793Y-101392395D01*
X130488671Y-101569762D01*
X130477451Y-101594290D01*
X130378453Y-101760857D01*
X130370954Y-101772061D01*
X130050000Y-102200000D01*
X130050000Y-102955422D01*
X130049208Y-102969529D01*
X130032472Y-103118066D01*
X130026193Y-103145574D01*
X129979178Y-103279935D01*
X129966939Y-103305352D01*
X129891195Y-103425898D01*
X129873607Y-103447951D01*
X129772951Y-103548607D01*
X129750898Y-103566195D01*
X129630352Y-103641939D01*
X129604935Y-103654178D01*
X129470574Y-103701193D01*
X129443066Y-103707472D01*
X129294529Y-103724208D01*
X129280422Y-103725000D01*
X129232079Y-103725000D01*
X129217971Y-103724208D01*
X129066650Y-103707158D01*
X129039143Y-103700879D01*
X128902141Y-103652940D01*
X128876720Y-103640698D01*
X128753814Y-103563471D01*
X128731755Y-103545879D01*
X128629121Y-103443245D01*
X128611529Y-103421186D01*
X128534302Y-103298280D01*
X128522060Y-103272859D01*
X128474121Y-103135857D01*
X128467842Y-103108350D01*
X128450792Y-102957029D01*
X128450000Y-102942921D01*
X128450000Y-102175000D01*
X128166789Y-101866043D01*
X128159321Y-101857096D01*
X128057955Y-101723535D01*
X128045629Y-101703719D01*
X127973266Y-101559019D01*
X127964806Y-101537269D01*
X127920373Y-101381714D01*
X127916068Y-101358776D01*
X127900541Y-101191833D01*
X127900000Y-101180164D01*
X127900000Y-99095172D01*
X127901596Y-99075178D01*
X127922067Y-98947807D01*
X127934597Y-98909833D01*
X127989257Y-98804343D01*
X128013055Y-98772207D01*
X128100638Y-98686595D01*
X128126960Y-98666870D01*
X128247317Y-98599196D01*
X128270954Y-98588929D01*
X128406024Y-98546059D01*
X128431254Y-98540816D01*
X128578678Y-98525661D01*
X128591563Y-98525000D01*
X130093012Y-98525000D01*
X130109598Y-98526096D01*
G37*
G04 #@! TD.AperFunction*
G04 #@! TA.AperFunction,Conductor*
G36*
X155743522Y-116205849D02*
G01*
X156124000Y-116326000D01*
X157511443Y-116764140D01*
X157570378Y-116803726D01*
X157598555Y-116868892D01*
X157599500Y-116884291D01*
X157599500Y-117551231D01*
X157579498Y-117619352D01*
X157564643Y-117638231D01*
X157137227Y-118086000D01*
X157075722Y-118121465D01*
X157046084Y-118125000D01*
X155826000Y-118125000D01*
X155757879Y-118104998D01*
X155711386Y-118051342D01*
X155700000Y-117999000D01*
X155700000Y-117300000D01*
X153176000Y-117300000D01*
X153107879Y-117279998D01*
X153061386Y-117226342D01*
X153050000Y-117174000D01*
X153050000Y-116326000D01*
X153070002Y-116257879D01*
X153123658Y-116211386D01*
X153176000Y-116200000D01*
X155705579Y-116200000D01*
X155743522Y-116205849D01*
G37*
G04 #@! TD.AperFunction*
G04 #@! TA.AperFunction,Conductor*
G36*
X158136668Y-73086583D02*
G01*
X158140156Y-73086636D01*
X158377742Y-73093541D01*
X158593482Y-73099811D01*
X158606460Y-73100861D01*
X159690654Y-73245421D01*
X159755532Y-73274250D01*
X159794526Y-73333580D01*
X159800000Y-73370315D01*
X159800000Y-73465870D01*
X159779998Y-73533991D01*
X159756247Y-73561324D01*
X159748963Y-73567600D01*
X159735296Y-73588686D01*
X159724011Y-73603554D01*
X159707377Y-73622388D01*
X159695067Y-73648607D01*
X159686746Y-73663587D01*
X159675869Y-73680369D01*
X159675868Y-73680372D01*
X159670985Y-73687905D01*
X159663785Y-73711981D01*
X159657129Y-73729411D01*
X159646447Y-73752163D01*
X159645066Y-73761032D01*
X159641990Y-73780787D01*
X159638207Y-73797505D01*
X159632478Y-73816660D01*
X159632477Y-73816668D01*
X159629907Y-73825261D01*
X159629852Y-73834232D01*
X159629852Y-73834233D01*
X159629700Y-73859169D01*
X159629668Y-73859925D01*
X159629500Y-73861009D01*
X159629500Y-73891426D01*
X159629498Y-73892196D01*
X159629031Y-73968624D01*
X159629411Y-73969953D01*
X159629500Y-73971263D01*
X159629500Y-75561426D01*
X159629498Y-75562196D01*
X159629031Y-75638624D01*
X159631497Y-75647251D01*
X159636992Y-75666476D01*
X159640571Y-75683241D01*
X159644677Y-75711918D01*
X159648393Y-75720092D01*
X159648394Y-75720094D01*
X159655075Y-75734788D01*
X159661523Y-75752312D01*
X159665962Y-75767845D01*
X159665964Y-75767849D01*
X159668428Y-75776471D01*
X159673215Y-75784058D01*
X159683889Y-75800976D01*
X159692026Y-75816058D01*
X159700298Y-75834252D01*
X159700300Y-75834255D01*
X159704016Y-75842428D01*
X159709878Y-75849231D01*
X159720418Y-75861463D01*
X159731527Y-75876476D01*
X159744930Y-75897720D01*
X159751659Y-75903663D01*
X159751661Y-75903665D01*
X159766644Y-75916897D01*
X159778690Y-75929091D01*
X159782365Y-75933356D01*
X159797600Y-75951037D01*
X159818686Y-75964704D01*
X159833556Y-75975991D01*
X159844639Y-75985779D01*
X159852388Y-75992623D01*
X159878607Y-76004933D01*
X159893587Y-76013254D01*
X159910369Y-76024131D01*
X159910372Y-76024132D01*
X159917905Y-76029015D01*
X159941981Y-76036215D01*
X159959411Y-76042871D01*
X159982163Y-76053553D01*
X159991032Y-76054934D01*
X160010787Y-76058010D01*
X160027505Y-76061793D01*
X160046660Y-76067522D01*
X160046668Y-76067523D01*
X160055261Y-76070093D01*
X160064232Y-76070148D01*
X160064233Y-76070148D01*
X160068962Y-76070177D01*
X160089182Y-76070301D01*
X160089925Y-76070332D01*
X160091009Y-76070500D01*
X160121426Y-76070500D01*
X160122197Y-76070502D01*
X160198624Y-76070969D01*
X160199953Y-76070589D01*
X160201263Y-76070500D01*
X163981426Y-76070500D01*
X163982197Y-76070502D01*
X164058624Y-76070969D01*
X164086482Y-76063007D01*
X164103241Y-76059429D01*
X164113153Y-76058010D01*
X164123029Y-76056596D01*
X164123030Y-76056596D01*
X164131918Y-76055323D01*
X164140092Y-76051607D01*
X164140094Y-76051606D01*
X164154788Y-76044925D01*
X164172312Y-76038477D01*
X164187845Y-76034038D01*
X164187849Y-76034036D01*
X164196471Y-76031572D01*
X164220975Y-76016111D01*
X164236058Y-76007974D01*
X164254252Y-75999702D01*
X164254255Y-75999700D01*
X164262428Y-75995984D01*
X164281464Y-75979581D01*
X164296477Y-75968473D01*
X164317720Y-75955070D01*
X164323663Y-75948341D01*
X164323665Y-75948339D01*
X164336897Y-75933356D01*
X164349091Y-75921310D01*
X164364235Y-75908261D01*
X164364236Y-75908260D01*
X164371037Y-75902400D01*
X164373916Y-75897958D01*
X164432205Y-75860770D01*
X164503201Y-75861005D01*
X164563681Y-75900622D01*
X164651523Y-76004933D01*
X164896851Y-76296261D01*
X164902852Y-76303976D01*
X165718093Y-77440372D01*
X165729990Y-77460749D01*
X166238786Y-78556616D01*
X166363260Y-78824713D01*
X166374977Y-78877877D01*
X166371018Y-83628938D01*
X166370019Y-84827352D01*
X166362097Y-84871221D01*
X166102592Y-85568040D01*
X166096599Y-85581623D01*
X165720239Y-86314536D01*
X165629605Y-86491033D01*
X165619032Y-86508117D01*
X165001935Y-87347368D01*
X164997942Y-87352515D01*
X164554867Y-87894051D01*
X164544442Y-87905316D01*
X163979017Y-88446157D01*
X163970658Y-88453473D01*
X163511855Y-88820516D01*
X163478250Y-88847400D01*
X163471585Y-88852380D01*
X162657511Y-89419765D01*
X162641814Y-89429093D01*
X161653510Y-89923245D01*
X161646370Y-89926540D01*
X160834555Y-90270946D01*
X160814911Y-90277435D01*
X160480553Y-90358142D01*
X160104393Y-90448940D01*
X160095559Y-90450740D01*
X159650324Y-90524946D01*
X159205098Y-90599150D01*
X159194848Y-90600429D01*
X158010688Y-90699109D01*
X157989309Y-90699070D01*
X157083933Y-90620342D01*
X156857588Y-90600660D01*
X156842547Y-90598431D01*
X155909093Y-90401914D01*
X155891288Y-90396773D01*
X154556445Y-89902387D01*
X154543858Y-89896929D01*
X153953753Y-89601876D01*
X153946381Y-89597878D01*
X153229372Y-89177563D01*
X153220837Y-89172086D01*
X152730591Y-88828914D01*
X152719875Y-88820516D01*
X152326867Y-88476634D01*
X152323183Y-88473279D01*
X151854031Y-88028819D01*
X151846317Y-88020837D01*
X151278518Y-87378977D01*
X151271816Y-87370722D01*
X151256395Y-87350000D01*
X150475000Y-86300000D01*
X145626000Y-86300000D01*
X145557879Y-86279998D01*
X145511386Y-86226342D01*
X145500000Y-86174000D01*
X145500000Y-83575000D01*
X145065503Y-83162228D01*
X145013133Y-83112476D01*
X145013132Y-83112476D01*
X145000000Y-83100000D01*
X143146000Y-83100000D01*
X143077879Y-83079998D01*
X143031386Y-83026342D01*
X143020000Y-82974000D01*
X143020000Y-81798479D01*
X156114951Y-81798479D01*
X156115347Y-81805348D01*
X156131044Y-82077580D01*
X156131869Y-82081785D01*
X156131870Y-82081793D01*
X156143584Y-82141498D01*
X156184866Y-82351915D01*
X156186253Y-82355965D01*
X156186254Y-82355970D01*
X156262931Y-82579925D01*
X156275422Y-82616407D01*
X156401036Y-82866163D01*
X156403462Y-82869692D01*
X156403465Y-82869698D01*
X156438869Y-82921211D01*
X156559383Y-83096559D01*
X156747534Y-83303334D01*
X156750823Y-83306084D01*
X156958714Y-83479909D01*
X156958719Y-83479913D01*
X156962006Y-83482661D01*
X157021187Y-83519785D01*
X157195192Y-83628938D01*
X157195196Y-83628940D01*
X157198832Y-83631221D01*
X157326230Y-83688744D01*
X157449716Y-83744500D01*
X157449720Y-83744502D01*
X157453628Y-83746266D01*
X157457747Y-83747486D01*
X157717567Y-83824449D01*
X157717572Y-83824450D01*
X157721680Y-83825667D01*
X157725914Y-83826315D01*
X157725919Y-83826316D01*
X157993786Y-83867305D01*
X157993788Y-83867305D01*
X157998028Y-83867954D01*
X158140371Y-83870190D01*
X158273268Y-83872278D01*
X158273274Y-83872278D01*
X158277559Y-83872345D01*
X158555099Y-83838759D01*
X158825513Y-83767818D01*
X158829473Y-83766178D01*
X158829478Y-83766176D01*
X158968333Y-83708660D01*
X159083797Y-83660833D01*
X159087578Y-83658624D01*
X159321474Y-83521946D01*
X159321475Y-83521946D01*
X159325172Y-83519785D01*
X159328532Y-83517151D01*
X159328540Y-83517145D01*
X159541800Y-83349927D01*
X159545172Y-83347283D01*
X159590837Y-83300161D01*
X159736742Y-83149598D01*
X159739725Y-83146520D01*
X159742258Y-83143072D01*
X159742262Y-83143067D01*
X159902693Y-82924666D01*
X159905231Y-82921211D01*
X159971937Y-82798354D01*
X160036578Y-82679300D01*
X160036579Y-82679298D01*
X160038628Y-82675524D01*
X160137447Y-82414007D01*
X160199860Y-82141498D01*
X160224711Y-81863040D01*
X160225162Y-81820000D01*
X160223404Y-81794208D01*
X160206439Y-81545360D01*
X160206438Y-81545354D01*
X160206147Y-81541083D01*
X160149455Y-81267326D01*
X160056134Y-81003797D01*
X159927912Y-80755371D01*
X159917689Y-80740824D01*
X159769624Y-80530150D01*
X159767161Y-80526645D01*
X159576855Y-80321851D01*
X159573540Y-80319137D01*
X159573536Y-80319134D01*
X159363835Y-80147496D01*
X159360517Y-80144780D01*
X159122148Y-79998708D01*
X159118231Y-79996989D01*
X159118228Y-79996987D01*
X159005416Y-79947466D01*
X158866161Y-79886338D01*
X158862033Y-79885162D01*
X158862030Y-79885161D01*
X158601422Y-79810924D01*
X158601415Y-79810923D01*
X158597292Y-79809748D01*
X158593050Y-79809144D01*
X158593044Y-79809143D01*
X158324767Y-79770962D01*
X158320516Y-79770357D01*
X158173199Y-79769586D01*
X158045241Y-79768915D01*
X158045234Y-79768915D01*
X158040955Y-79768893D01*
X158036710Y-79769452D01*
X158036708Y-79769452D01*
X157974736Y-79777611D01*
X157763782Y-79805384D01*
X157494126Y-79879154D01*
X157236976Y-79988837D01*
X157233295Y-79991040D01*
X157000773Y-80130201D01*
X157000769Y-80130204D01*
X156997091Y-80132405D01*
X156778910Y-80307201D01*
X156775966Y-80310303D01*
X156775962Y-80310307D01*
X156762025Y-80324994D01*
X156586470Y-80509990D01*
X156423333Y-80737020D01*
X156292516Y-80984090D01*
X156260985Y-81070253D01*
X156203573Y-81227140D01*
X156196441Y-81246628D01*
X156136885Y-81519776D01*
X156114951Y-81798479D01*
X143020000Y-81798479D01*
X143020000Y-80212817D01*
X143040825Y-80143433D01*
X144087650Y-78556616D01*
X144141858Y-78510768D01*
X144192825Y-78500000D01*
X147400000Y-78500000D01*
X147406880Y-78492661D01*
X147406881Y-78492661D01*
X147762611Y-78113215D01*
X147775000Y-78100000D01*
X147798535Y-76099518D01*
X147819337Y-76031637D01*
X147873536Y-75985779D01*
X147924526Y-75975000D01*
X149625000Y-75975000D01*
X149672862Y-73198998D01*
X149694035Y-73131232D01*
X149748484Y-73085671D01*
X149799015Y-73075170D01*
X158136668Y-73086583D01*
G37*
G04 #@! TD.AperFunction*
G04 #@! TA.AperFunction,Conductor*
G36*
X129257029Y-107800792D02*
G01*
X129408350Y-107817842D01*
X129435857Y-107824121D01*
X129572859Y-107872060D01*
X129598280Y-107884302D01*
X129721186Y-107961529D01*
X129743245Y-107979121D01*
X129845879Y-108081755D01*
X129863471Y-108103814D01*
X129940698Y-108226720D01*
X129952940Y-108252141D01*
X130000879Y-108389143D01*
X130007158Y-108416650D01*
X130024208Y-108567971D01*
X130025000Y-108582079D01*
X130025000Y-109350000D01*
X130287846Y-109636741D01*
X130308210Y-109658957D01*
X130315679Y-109667904D01*
X130384310Y-109758333D01*
X130417045Y-109801465D01*
X130429371Y-109821281D01*
X130501734Y-109965981D01*
X130510194Y-109987731D01*
X130554627Y-110143286D01*
X130558932Y-110166224D01*
X130574459Y-110333167D01*
X130575000Y-110344836D01*
X130575000Y-112429828D01*
X130573404Y-112449822D01*
X130552933Y-112577193D01*
X130540403Y-112615167D01*
X130485743Y-112720657D01*
X130461945Y-112752793D01*
X130374362Y-112838405D01*
X130348040Y-112858130D01*
X130227683Y-112925804D01*
X130204046Y-112936071D01*
X130068976Y-112978941D01*
X130043746Y-112984184D01*
X129896322Y-112999339D01*
X129883437Y-113000000D01*
X128381988Y-113000000D01*
X128365402Y-112998904D01*
X128222601Y-112979941D01*
X128190579Y-112971283D01*
X128067917Y-112919992D01*
X128035175Y-112899965D01*
X127987048Y-112859275D01*
X127959138Y-112825812D01*
X127929096Y-112773508D01*
X127914254Y-112732539D01*
X127901898Y-112662156D01*
X127900000Y-112640369D01*
X127900000Y-110365096D01*
X127900724Y-110351608D01*
X127921465Y-110158961D01*
X127927207Y-110132605D01*
X127986329Y-109955238D01*
X127997550Y-109930707D01*
X128062587Y-109821281D01*
X128096546Y-109764145D01*
X128104050Y-109752933D01*
X128225000Y-109591667D01*
X128225001Y-109591665D01*
X128425000Y-109325000D01*
X128425000Y-108569578D01*
X128425792Y-108555471D01*
X128442528Y-108406934D01*
X128448807Y-108379426D01*
X128495822Y-108245065D01*
X128508061Y-108219648D01*
X128583805Y-108099102D01*
X128601393Y-108077049D01*
X128702049Y-107976393D01*
X128724102Y-107958805D01*
X128844648Y-107883061D01*
X128870065Y-107870822D01*
X129004426Y-107823807D01*
X129031934Y-107817528D01*
X129180471Y-107800792D01*
X129194578Y-107800000D01*
X129242921Y-107800000D01*
X129257029Y-107800792D01*
G37*
G04 #@! TD.AperFunction*
G04 #@! TA.AperFunction,Conductor*
G36*
X134192121Y-116695002D02*
G01*
X134238614Y-116748658D01*
X134250000Y-116801000D01*
X134250000Y-118847810D01*
X134229998Y-118915931D01*
X134213095Y-118936905D01*
X133886905Y-119263095D01*
X133824593Y-119297121D01*
X133797810Y-119300000D01*
X133307611Y-119300000D01*
X133239490Y-119279998D01*
X133192060Y-119224239D01*
X132982224Y-118741614D01*
X132982223Y-118741613D01*
X132975000Y-118725000D01*
X131550000Y-118725000D01*
X131304797Y-118951342D01*
X131261200Y-118991585D01*
X131197578Y-119023093D01*
X131175737Y-119025000D01*
X130526000Y-119025000D01*
X130457879Y-119004998D01*
X130411386Y-118951342D01*
X130400000Y-118899000D01*
X130400000Y-117082176D01*
X130420002Y-117014055D01*
X130443028Y-116987351D01*
X130764371Y-116706175D01*
X130828809Y-116676371D01*
X130847343Y-116675000D01*
X134124000Y-116675000D01*
X134192121Y-116695002D01*
G37*
G04 #@! TD.AperFunction*
G04 #@! TA.AperFunction,Conductor*
G36*
X139017121Y-80795002D02*
G01*
X139063614Y-80848658D01*
X139075000Y-80901000D01*
X139075000Y-81649000D01*
X139054998Y-81717121D01*
X139001342Y-81763614D01*
X138949000Y-81775000D01*
X136625000Y-81775000D01*
X136625000Y-82399000D01*
X136604998Y-82467121D01*
X136551342Y-82513614D01*
X136499000Y-82525000D01*
X134886690Y-82525000D01*
X134819044Y-82505301D01*
X134358354Y-82212134D01*
X134311621Y-82158687D01*
X134300000Y-82105833D01*
X134300000Y-81470042D01*
X134320002Y-81401921D01*
X134373658Y-81355428D01*
X134391385Y-81348890D01*
X135696042Y-80976131D01*
X135704029Y-80974129D01*
X136611837Y-80777846D01*
X136638465Y-80775000D01*
X138949000Y-80775000D01*
X139017121Y-80795002D01*
G37*
G04 #@! TD.AperFunction*
G04 #@! TA.AperFunction,Conductor*
G36*
X144765653Y-92770002D02*
G01*
X144786961Y-92787239D01*
X148037753Y-96062473D01*
X148071544Y-96124912D01*
X148074313Y-96152870D01*
X148051615Y-97900636D01*
X148030730Y-97968491D01*
X147976476Y-98014284D01*
X147925626Y-98025000D01*
X142926000Y-98025000D01*
X142857879Y-98004998D01*
X142811386Y-97951342D01*
X142800000Y-97899000D01*
X142800000Y-95025000D01*
X141876000Y-95025000D01*
X141807879Y-95004998D01*
X141761386Y-94951342D01*
X141750000Y-94899000D01*
X141750000Y-92876000D01*
X141770002Y-92807879D01*
X141823658Y-92761386D01*
X141876000Y-92750000D01*
X144697532Y-92750000D01*
X144765653Y-92770002D01*
G37*
G04 #@! TD.AperFunction*
G04 #@! TA.AperFunction,Conductor*
G36*
X126962121Y-86820002D02*
G01*
X127008614Y-86873658D01*
X127020000Y-86926000D01*
X127020000Y-89036054D01*
X126999998Y-89104175D01*
X126946342Y-89150668D01*
X126876068Y-89160772D01*
X126867803Y-89159301D01*
X126781103Y-89140872D01*
X126781099Y-89140872D01*
X126774646Y-89139500D01*
X126585354Y-89139500D01*
X126578901Y-89140872D01*
X126578897Y-89140872D01*
X126498212Y-89158022D01*
X126400197Y-89178856D01*
X126227270Y-89255849D01*
X126074129Y-89367112D01*
X126069716Y-89372014D01*
X126069714Y-89372015D01*
X126034035Y-89411640D01*
X126034034Y-89411642D01*
X126022006Y-89425000D01*
X126020000Y-89425000D01*
X126020000Y-89427228D01*
X126012789Y-89435237D01*
X126012787Y-89435238D01*
X125951886Y-89502876D01*
X125947467Y-89507784D01*
X125852821Y-89671716D01*
X125794326Y-89851744D01*
X125774540Y-90040000D01*
X125794326Y-90228256D01*
X125796366Y-90234534D01*
X125825781Y-90325064D01*
X125827809Y-90396031D01*
X125791146Y-90456829D01*
X125727434Y-90488155D01*
X125705948Y-90490000D01*
X124577350Y-90490000D01*
X124509229Y-90469998D01*
X124462736Y-90416342D01*
X124451350Y-90364000D01*
X124451350Y-86926000D01*
X124471352Y-86857879D01*
X124525008Y-86811386D01*
X124577350Y-86800000D01*
X126894000Y-86800000D01*
X126962121Y-86820002D01*
G37*
G04 #@! TD.AperFunction*
G04 #@! TA.AperFunction,Conductor*
G36*
X170392471Y-67795485D02*
G01*
X170438964Y-67849141D01*
X170450350Y-67901483D01*
X170450350Y-69966409D01*
X170450348Y-69967179D01*
X170449881Y-70043607D01*
X170452347Y-70052234D01*
X170457842Y-70071459D01*
X170461421Y-70088224D01*
X170465527Y-70116901D01*
X170469243Y-70125075D01*
X170469244Y-70125077D01*
X170475925Y-70139771D01*
X170482373Y-70157295D01*
X170486812Y-70172828D01*
X170486814Y-70172832D01*
X170489278Y-70181454D01*
X170494065Y-70189041D01*
X170504739Y-70205959D01*
X170512876Y-70221041D01*
X170521148Y-70239235D01*
X170521150Y-70239238D01*
X170524866Y-70247411D01*
X170530728Y-70254214D01*
X170541268Y-70266446D01*
X170552377Y-70281459D01*
X170565780Y-70302703D01*
X170572509Y-70308646D01*
X170572511Y-70308648D01*
X170587494Y-70321880D01*
X170599540Y-70334074D01*
X170612590Y-70349219D01*
X170618450Y-70356020D01*
X170639536Y-70369687D01*
X170654404Y-70380972D01*
X170673238Y-70397606D01*
X170699457Y-70409916D01*
X170714437Y-70418237D01*
X170731219Y-70429114D01*
X170731222Y-70429115D01*
X170738755Y-70433998D01*
X170762831Y-70441198D01*
X170780261Y-70447854D01*
X170803013Y-70458536D01*
X170811882Y-70459917D01*
X170831637Y-70462993D01*
X170848355Y-70466776D01*
X170867510Y-70472505D01*
X170867518Y-70472506D01*
X170876111Y-70475076D01*
X170885082Y-70475131D01*
X170885083Y-70475131D01*
X170889812Y-70475160D01*
X170910032Y-70475284D01*
X170910775Y-70475315D01*
X170911859Y-70475483D01*
X170942276Y-70475483D01*
X170943047Y-70475485D01*
X171019474Y-70475952D01*
X171020803Y-70475572D01*
X171022113Y-70475483D01*
X174424350Y-70475483D01*
X174492471Y-70495485D01*
X174538964Y-70549141D01*
X174550350Y-70601483D01*
X174550350Y-119348483D01*
X174530348Y-119416604D01*
X174476692Y-119463097D01*
X174424350Y-119474483D01*
X174309424Y-119474483D01*
X174308654Y-119474481D01*
X174307883Y-119474476D01*
X174232226Y-119474014D01*
X174204368Y-119481976D01*
X174187609Y-119485554D01*
X174178206Y-119486900D01*
X174167821Y-119488387D01*
X174167820Y-119488387D01*
X174158932Y-119489660D01*
X174150758Y-119493376D01*
X174150756Y-119493377D01*
X174136062Y-119500058D01*
X174118538Y-119506506D01*
X174103005Y-119510945D01*
X174103001Y-119510947D01*
X174094379Y-119513411D01*
X174086791Y-119518198D01*
X174086792Y-119518198D01*
X174069874Y-119528872D01*
X174054792Y-119537009D01*
X174036598Y-119545281D01*
X174036595Y-119545283D01*
X174028422Y-119548999D01*
X174021619Y-119554861D01*
X174009387Y-119565401D01*
X173994374Y-119576510D01*
X173973130Y-119589913D01*
X173967187Y-119596642D01*
X173967185Y-119596644D01*
X173953953Y-119611627D01*
X173941759Y-119623673D01*
X173926614Y-119636723D01*
X173919813Y-119642583D01*
X173906146Y-119663669D01*
X173894861Y-119678537D01*
X173878227Y-119697371D01*
X173865917Y-119723590D01*
X173857596Y-119738570D01*
X173846719Y-119755352D01*
X173846718Y-119755355D01*
X173841835Y-119762888D01*
X173834635Y-119786964D01*
X173827979Y-119804394D01*
X173817297Y-119827146D01*
X173815916Y-119836015D01*
X173812840Y-119855770D01*
X173809057Y-119872488D01*
X173803328Y-119891643D01*
X173803327Y-119891651D01*
X173800757Y-119900244D01*
X173800702Y-119909215D01*
X173800702Y-119909216D01*
X173800550Y-119934152D01*
X173800518Y-119934908D01*
X173800350Y-119935992D01*
X173800350Y-119966409D01*
X173800348Y-119967179D01*
X173799881Y-120043607D01*
X173800261Y-120044936D01*
X173800350Y-120046246D01*
X173800350Y-122178394D01*
X173780348Y-122246515D01*
X173733745Y-122289516D01*
X173633628Y-122343029D01*
X173610810Y-122352482D01*
X173446957Y-122402185D01*
X173422740Y-122407001D01*
X173246163Y-122424393D01*
X173233813Y-122425000D01*
X172369917Y-122425000D01*
X172350207Y-122423449D01*
X172245290Y-122406832D01*
X172207797Y-122394650D01*
X172149296Y-122364842D01*
X172097681Y-122316093D01*
X172080499Y-122252575D01*
X172080499Y-121902624D01*
X172073851Y-121841420D01*
X172023526Y-121707176D01*
X172018146Y-121699997D01*
X172018144Y-121699994D01*
X171942928Y-121599635D01*
X171937546Y-121592454D01*
X171925000Y-121583051D01*
X171925000Y-121555000D01*
X171887572Y-121555000D01*
X171830006Y-121511856D01*
X171830003Y-121511854D01*
X171822824Y-121506474D01*
X171726862Y-121470500D01*
X171695975Y-121458921D01*
X171695973Y-121458921D01*
X171688580Y-121456149D01*
X171680730Y-121455296D01*
X171680729Y-121455296D01*
X171630774Y-121449869D01*
X171630773Y-121449869D01*
X171627377Y-121449500D01*
X171411795Y-121449500D01*
X170546559Y-121449501D01*
X170479523Y-121430188D01*
X170471267Y-121425000D01*
X170376819Y-121365655D01*
X170354760Y-121348063D01*
X170231937Y-121225240D01*
X170214344Y-121203180D01*
X170199812Y-121180052D01*
X170180500Y-121113017D01*
X170180500Y-120587619D01*
X170181578Y-120571173D01*
X170184604Y-120548188D01*
X170185682Y-120540000D01*
X170173311Y-120446032D01*
X170166122Y-120391426D01*
X170165044Y-120383238D01*
X170161540Y-120374778D01*
X170107695Y-120244785D01*
X170107694Y-120244784D01*
X170104536Y-120237159D01*
X170091369Y-120220000D01*
X170091367Y-120219997D01*
X170050830Y-120167167D01*
X170025000Y-120096630D01*
X170025000Y-119750000D01*
X169787500Y-119500000D01*
X169776178Y-119485554D01*
X169693859Y-119380531D01*
X169680968Y-119360410D01*
X169633566Y-119268204D01*
X169617056Y-119236088D01*
X169608200Y-119213910D01*
X169568903Y-119079737D01*
X169564394Y-119056280D01*
X169550568Y-118911135D01*
X169550000Y-118899187D01*
X169550000Y-118722571D01*
X169550711Y-118709202D01*
X169571089Y-118518227D01*
X169576731Y-118492092D01*
X169618693Y-118365000D01*
X170959783Y-118365000D01*
X170978623Y-118604379D01*
X170979777Y-118609186D01*
X170979778Y-118609192D01*
X171005467Y-118716195D01*
X171034677Y-118837863D01*
X171036570Y-118842434D01*
X171036571Y-118842436D01*
X171084546Y-118958256D01*
X171126567Y-119059704D01*
X171252028Y-119264439D01*
X171255239Y-119268199D01*
X171255243Y-119268204D01*
X171292833Y-119312216D01*
X171407973Y-119447027D01*
X171411735Y-119450240D01*
X171586796Y-119599757D01*
X171586801Y-119599761D01*
X171590561Y-119602972D01*
X171795296Y-119728433D01*
X171799866Y-119730326D01*
X171799870Y-119730328D01*
X172012564Y-119818429D01*
X172012566Y-119818430D01*
X172017137Y-119820323D01*
X172070212Y-119833065D01*
X172245808Y-119875222D01*
X172245814Y-119875223D01*
X172250621Y-119876377D01*
X172490000Y-119895217D01*
X172729379Y-119876377D01*
X172734186Y-119875223D01*
X172734192Y-119875222D01*
X172909788Y-119833065D01*
X172962863Y-119820323D01*
X172967434Y-119818430D01*
X172967436Y-119818429D01*
X173180130Y-119730328D01*
X173180134Y-119730326D01*
X173184704Y-119728433D01*
X173389439Y-119602972D01*
X173393199Y-119599761D01*
X173393204Y-119599757D01*
X173568265Y-119450240D01*
X173572027Y-119447027D01*
X173687167Y-119312216D01*
X173724757Y-119268204D01*
X173724761Y-119268199D01*
X173727972Y-119264439D01*
X173853433Y-119059704D01*
X173895455Y-118958256D01*
X173943429Y-118842436D01*
X173943430Y-118842434D01*
X173945323Y-118837863D01*
X173974533Y-118716195D01*
X174000222Y-118609192D01*
X174000223Y-118609186D01*
X174001377Y-118604379D01*
X174020217Y-118365000D01*
X174001377Y-118125621D01*
X173995887Y-118102750D01*
X173964578Y-117972340D01*
X173945323Y-117892137D01*
X173943429Y-117887564D01*
X173855328Y-117674870D01*
X173855326Y-117674866D01*
X173853433Y-117670296D01*
X173727972Y-117465561D01*
X173724761Y-117461801D01*
X173724757Y-117461796D01*
X173575240Y-117286735D01*
X173572027Y-117282973D01*
X173509336Y-117229430D01*
X173393204Y-117130243D01*
X173393199Y-117130239D01*
X173389439Y-117127028D01*
X173184704Y-117001567D01*
X173180134Y-116999674D01*
X173180130Y-116999672D01*
X172967436Y-116911571D01*
X172967434Y-116911570D01*
X172962863Y-116909677D01*
X172882660Y-116890422D01*
X172734192Y-116854778D01*
X172734186Y-116854777D01*
X172729379Y-116853623D01*
X172490000Y-116834783D01*
X172250621Y-116853623D01*
X172245814Y-116854777D01*
X172245808Y-116854778D01*
X172097340Y-116890422D01*
X172017137Y-116909677D01*
X172012566Y-116911570D01*
X172012564Y-116911571D01*
X171799870Y-116999672D01*
X171799866Y-116999674D01*
X171795296Y-117001567D01*
X171590561Y-117127028D01*
X171586801Y-117130239D01*
X171586796Y-117130243D01*
X171470664Y-117229430D01*
X171407973Y-117282973D01*
X171404760Y-117286735D01*
X171255243Y-117461796D01*
X171255239Y-117461801D01*
X171252028Y-117465561D01*
X171126567Y-117670296D01*
X171124674Y-117674866D01*
X171124672Y-117674870D01*
X171036571Y-117887564D01*
X171034677Y-117892137D01*
X171015422Y-117972340D01*
X170984114Y-118102750D01*
X170978623Y-118125621D01*
X170959783Y-118365000D01*
X169618693Y-118365000D01*
X169636944Y-118309722D01*
X169641811Y-118297250D01*
X169721710Y-118120808D01*
X170061246Y-117370999D01*
X170061247Y-117370997D01*
X170150000Y-117175000D01*
X170150295Y-116956521D01*
X170150296Y-116956503D01*
X170173644Y-99664838D01*
X170174266Y-99652500D01*
X170191866Y-99476086D01*
X170196710Y-99451886D01*
X170246546Y-99288244D01*
X170256013Y-99265453D01*
X170336793Y-99114661D01*
X170350522Y-99094152D01*
X170459150Y-98961994D01*
X170476612Y-98944556D01*
X170608915Y-98836108D01*
X170629439Y-98822409D01*
X170780341Y-98741832D01*
X170803144Y-98732395D01*
X170966862Y-98682778D01*
X170991067Y-98677968D01*
X171167493Y-98660606D01*
X171179833Y-98660000D01*
X172410000Y-98660000D01*
X172412974Y-96170309D01*
X172414256Y-96152537D01*
X172414550Y-96150499D01*
X172418647Y-96122000D01*
X172418647Y-94598000D01*
X172415238Y-94550338D01*
X172414919Y-94541259D01*
X172417365Y-92493059D01*
X172425000Y-86100000D01*
X169175000Y-86100000D01*
X169175000Y-91418813D01*
X169174393Y-91431163D01*
X169157108Y-91606665D01*
X169157002Y-91607737D01*
X169152185Y-91631957D01*
X169106659Y-91782040D01*
X169102482Y-91795809D01*
X169093029Y-91818629D01*
X169012319Y-91969628D01*
X168998601Y-91990158D01*
X168889974Y-92122521D01*
X168872521Y-92139974D01*
X168740158Y-92248601D01*
X168719631Y-92262317D01*
X168644276Y-92302595D01*
X168568629Y-92343029D01*
X168545810Y-92352482D01*
X168381957Y-92402185D01*
X168357740Y-92407001D01*
X168181163Y-92424393D01*
X168168813Y-92425000D01*
X167050000Y-92425000D01*
X166807417Y-92575940D01*
X166807412Y-92575943D01*
X166614416Y-92696030D01*
X165925000Y-93125000D01*
X165925000Y-95053813D01*
X165924393Y-95066163D01*
X165907002Y-95242737D01*
X165902185Y-95266957D01*
X165852482Y-95430809D01*
X165843029Y-95453629D01*
X165762319Y-95604628D01*
X165748601Y-95625158D01*
X165639974Y-95757521D01*
X165622521Y-95774974D01*
X165490158Y-95883601D01*
X165469631Y-95897317D01*
X165428979Y-95919046D01*
X165318629Y-95978029D01*
X165295810Y-95987482D01*
X165131957Y-96037185D01*
X165107740Y-96042001D01*
X164931163Y-96059393D01*
X164918813Y-96060000D01*
X161337662Y-96060000D01*
X161326186Y-96059476D01*
X161311574Y-96058140D01*
X161161991Y-96044459D01*
X161139425Y-96040297D01*
X161062825Y-96018799D01*
X160986228Y-95997301D01*
X160964788Y-95989113D01*
X160961463Y-95987482D01*
X160821932Y-95919042D01*
X160802337Y-95907102D01*
X160669933Y-95808842D01*
X160661030Y-95801583D01*
X158486340Y-93856829D01*
X158481237Y-93852002D01*
X157178292Y-92549057D01*
X157167432Y-92536675D01*
X157148282Y-92511718D01*
X157111456Y-92483460D01*
X157077769Y-92457612D01*
X157022841Y-92415464D01*
X156876762Y-92354956D01*
X156863447Y-92353203D01*
X156720000Y-92334318D01*
X156711812Y-92335396D01*
X156688827Y-92338422D01*
X156672381Y-92339500D01*
X154190925Y-92339500D01*
X154122804Y-92319498D01*
X154101830Y-92302595D01*
X153581275Y-91782040D01*
X153570407Y-91769649D01*
X153523305Y-91708264D01*
X153518282Y-91701718D01*
X153508421Y-91694151D01*
X153493329Y-91682571D01*
X153480938Y-91671703D01*
X153428292Y-91619057D01*
X153417432Y-91606675D01*
X153398282Y-91581718D01*
X153272841Y-91485464D01*
X153126762Y-91424956D01*
X153107727Y-91422450D01*
X152970000Y-91404318D01*
X152961812Y-91405396D01*
X152938827Y-91408422D01*
X152922381Y-91409500D01*
X150984858Y-91409500D01*
X150949721Y-91404501D01*
X150937336Y-91400905D01*
X150914450Y-91391748D01*
X150862193Y-91364637D01*
X150831123Y-91341888D01*
X150366866Y-90877631D01*
X150352132Y-90859919D01*
X150009141Y-90361023D01*
X149854636Y-90136290D01*
X149848003Y-90125520D01*
X149760695Y-89966405D01*
X149750823Y-89943149D01*
X149698902Y-89775895D01*
X149693868Y-89751136D01*
X149685665Y-89669496D01*
X149698757Y-89599717D01*
X149747496Y-89548092D01*
X149762815Y-89540490D01*
X149920134Y-89475326D01*
X149924704Y-89473433D01*
X150129439Y-89347972D01*
X150133199Y-89344761D01*
X150133204Y-89344757D01*
X150308265Y-89195240D01*
X150312027Y-89192027D01*
X150381960Y-89110146D01*
X150464757Y-89013204D01*
X150464761Y-89013199D01*
X150467972Y-89009439D01*
X150593433Y-88804704D01*
X150685323Y-88582863D01*
X150709807Y-88480878D01*
X150740222Y-88354192D01*
X150740223Y-88354186D01*
X150741377Y-88349379D01*
X150760217Y-88110000D01*
X150741907Y-87877356D01*
X150756503Y-87807877D01*
X150806345Y-87757318D01*
X150875610Y-87741731D01*
X150942306Y-87766066D01*
X150961893Y-87783987D01*
X151467271Y-88355285D01*
X151467303Y-88355320D01*
X151467699Y-88355768D01*
X151482824Y-88372125D01*
X151490538Y-88380107D01*
X151506376Y-88395788D01*
X151975528Y-88840248D01*
X151982819Y-88847020D01*
X151986503Y-88850375D01*
X151986864Y-88850697D01*
X151986867Y-88850700D01*
X151993747Y-88856843D01*
X151993820Y-88856907D01*
X151993993Y-88857062D01*
X152387001Y-89200944D01*
X152408065Y-89218391D01*
X152418781Y-89226789D01*
X152440706Y-89243036D01*
X152441402Y-89243524D01*
X152441417Y-89243534D01*
X152646656Y-89387201D01*
X152930952Y-89586208D01*
X152931485Y-89586565D01*
X152931502Y-89586577D01*
X152947324Y-89597185D01*
X152947362Y-89597210D01*
X152947829Y-89597523D01*
X152956364Y-89603000D01*
X152973731Y-89613657D01*
X152974268Y-89613972D01*
X152974275Y-89613976D01*
X153208254Y-89751136D01*
X153690740Y-90033972D01*
X153705395Y-90042238D01*
X153705869Y-90042495D01*
X153712344Y-90046007D01*
X153712381Y-90046027D01*
X153712767Y-90046236D01*
X153727686Y-90054009D01*
X154317791Y-90349062D01*
X154334139Y-90356687D01*
X154342021Y-90360363D01*
X154342041Y-90360372D01*
X154342755Y-90360705D01*
X154348538Y-90363212D01*
X154354541Y-90365816D01*
X154354561Y-90365824D01*
X154355342Y-90366163D01*
X154356173Y-90366497D01*
X154356176Y-90366498D01*
X154380083Y-90376100D01*
X154380102Y-90376107D01*
X154380878Y-90376419D01*
X155715721Y-90870805D01*
X155751059Y-90882433D01*
X155768864Y-90887574D01*
X155804955Y-90896571D01*
X156738409Y-91093088D01*
X156739299Y-91093247D01*
X156739317Y-91093251D01*
X156763979Y-91097670D01*
X156768444Y-91098470D01*
X156783485Y-91100699D01*
X156813797Y-91104260D01*
X156814753Y-91104343D01*
X156814781Y-91104346D01*
X157944158Y-91202552D01*
X157944170Y-91202553D01*
X157945518Y-91202670D01*
X157946843Y-91202729D01*
X157946863Y-91202730D01*
X157987054Y-91204510D01*
X157987056Y-91204510D01*
X157988387Y-91204569D01*
X157999509Y-91204589D01*
X158008447Y-91204606D01*
X158008466Y-91204606D01*
X158009766Y-91204608D01*
X158052667Y-91202863D01*
X159236827Y-91104183D01*
X159237385Y-91104125D01*
X159237406Y-91104123D01*
X159256837Y-91102102D01*
X159256873Y-91102098D01*
X159257439Y-91102039D01*
X159258031Y-91101965D01*
X159258067Y-91101961D01*
X159266968Y-91100850D01*
X159266971Y-91100850D01*
X159267689Y-91100760D01*
X159288202Y-91097772D01*
X159288800Y-91097672D01*
X159288815Y-91097670D01*
X159733459Y-91023563D01*
X160178663Y-90949362D01*
X160196485Y-90946062D01*
X160205319Y-90944262D01*
X160223004Y-90940327D01*
X160933522Y-90768822D01*
X160934812Y-90768454D01*
X160972184Y-90757791D01*
X160972194Y-90757788D01*
X160973466Y-90757425D01*
X160993110Y-90750936D01*
X161031978Y-90736300D01*
X161033158Y-90735800D01*
X161033179Y-90735791D01*
X161843280Y-90392112D01*
X161843320Y-90392095D01*
X161843793Y-90391894D01*
X161844262Y-90391686D01*
X161844309Y-90391666D01*
X161857656Y-90385757D01*
X161857682Y-90385745D01*
X161858184Y-90385523D01*
X161865324Y-90382228D01*
X161865698Y-90382048D01*
X161865756Y-90382021D01*
X161879175Y-90375571D01*
X161879201Y-90375558D01*
X161879576Y-90375378D01*
X162867880Y-89881226D01*
X162868887Y-89880676D01*
X162868908Y-89880665D01*
X162899035Y-89864209D01*
X162900053Y-89863653D01*
X162901025Y-89863076D01*
X162901045Y-89863064D01*
X162914784Y-89854899D01*
X162915750Y-89854325D01*
X162946552Y-89834476D01*
X163760626Y-89267091D01*
X163774155Y-89257326D01*
X163780820Y-89252346D01*
X163794034Y-89242129D01*
X164286442Y-88848202D01*
X164287999Y-88846899D01*
X164303081Y-88834276D01*
X164303100Y-88834260D01*
X164303580Y-88833858D01*
X164311939Y-88826542D01*
X164328430Y-88811453D01*
X164513427Y-88634500D01*
X164806476Y-88354192D01*
X164893855Y-88270612D01*
X164915449Y-88248658D01*
X164925874Y-88237393D01*
X164946102Y-88214153D01*
X165389177Y-87672617D01*
X165397344Y-87662367D01*
X165397610Y-87662024D01*
X165397662Y-87661958D01*
X165399531Y-87659548D01*
X165401337Y-87657220D01*
X165409191Y-87646822D01*
X165416313Y-87637137D01*
X166025539Y-86808590D01*
X166025545Y-86808581D01*
X166026288Y-86807571D01*
X166048873Y-86774138D01*
X166049535Y-86773069D01*
X166058788Y-86758118D01*
X166058799Y-86758100D01*
X166059446Y-86757054D01*
X166079281Y-86721948D01*
X166546275Y-85812538D01*
X166559084Y-85785677D01*
X166565077Y-85772094D01*
X166576308Y-85744458D01*
X166835813Y-85047639D01*
X166859551Y-84961053D01*
X166867473Y-84917184D01*
X166875519Y-84827773D01*
X166880477Y-78878298D01*
X166868630Y-78769079D01*
X166867890Y-78765720D01*
X166857650Y-78719257D01*
X166857648Y-78719249D01*
X166856913Y-78715915D01*
X166821753Y-78611841D01*
X166188483Y-77247877D01*
X166166533Y-77205876D01*
X166154636Y-77185499D01*
X166128831Y-77145712D01*
X165313590Y-76009316D01*
X165301858Y-75993615D01*
X165301521Y-75993181D01*
X165301493Y-75993145D01*
X165296223Y-75986371D01*
X165295857Y-75985900D01*
X165283513Y-75970650D01*
X164950343Y-75575011D01*
X164840670Y-75477766D01*
X164780190Y-75438149D01*
X164733431Y-75416454D01*
X164655470Y-75380282D01*
X164655468Y-75380281D01*
X164647221Y-75376455D01*
X164638226Y-75375131D01*
X164638225Y-75375131D01*
X164614389Y-75371624D01*
X164598156Y-75369235D01*
X164533673Y-75339528D01*
X164495487Y-75279676D01*
X164490500Y-75244577D01*
X164490500Y-73908574D01*
X164490502Y-73907804D01*
X164490914Y-73840350D01*
X164490969Y-73831376D01*
X164483007Y-73803518D01*
X164479429Y-73786757D01*
X164476596Y-73766971D01*
X164476596Y-73766970D01*
X164475323Y-73758082D01*
X164464925Y-73735212D01*
X164458477Y-73717688D01*
X164454038Y-73702155D01*
X164454036Y-73702151D01*
X164451572Y-73693529D01*
X164436111Y-73669024D01*
X164427974Y-73653942D01*
X164419702Y-73635748D01*
X164419700Y-73635745D01*
X164415984Y-73627572D01*
X164399581Y-73608536D01*
X164388473Y-73593523D01*
X164381054Y-73581765D01*
X164375070Y-73572280D01*
X164368341Y-73566337D01*
X164368339Y-73566335D01*
X164353356Y-73553103D01*
X164341310Y-73540909D01*
X164328260Y-73525764D01*
X164322400Y-73518963D01*
X164301314Y-73505296D01*
X164286444Y-73494009D01*
X164284487Y-73492280D01*
X164278730Y-73487196D01*
X164274338Y-73483317D01*
X164274337Y-73483317D01*
X164267612Y-73477377D01*
X164241391Y-73465066D01*
X164226413Y-73456746D01*
X164209631Y-73445869D01*
X164209628Y-73445868D01*
X164202095Y-73440985D01*
X164178019Y-73433785D01*
X164160589Y-73427129D01*
X164137837Y-73416447D01*
X164128095Y-73414930D01*
X164109213Y-73411990D01*
X164092495Y-73408207D01*
X164073340Y-73402478D01*
X164073332Y-73402477D01*
X164064739Y-73399907D01*
X164055768Y-73399852D01*
X164055767Y-73399852D01*
X164051038Y-73399823D01*
X164030818Y-73399699D01*
X164030075Y-73399668D01*
X164028991Y-73399500D01*
X163998574Y-73399500D01*
X163997804Y-73399498D01*
X163997191Y-73399494D01*
X163921376Y-73399031D01*
X163920047Y-73399411D01*
X163918737Y-73399500D01*
X160424046Y-73399500D01*
X160355925Y-73379498D01*
X160309432Y-73325842D01*
X160299422Y-73292072D01*
X160294850Y-73261389D01*
X160294848Y-73261380D01*
X160294505Y-73259076D01*
X160287804Y-73229372D01*
X160279570Y-73192870D01*
X160279568Y-73192865D01*
X160278065Y-73186201D01*
X160216956Y-73055942D01*
X160211897Y-73048245D01*
X160180437Y-73000377D01*
X160180433Y-73000372D01*
X160177962Y-72996612D01*
X160082632Y-72888846D01*
X160075005Y-72884054D01*
X159964606Y-72814693D01*
X159964600Y-72814690D01*
X159960801Y-72812303D01*
X159956692Y-72810477D01*
X159900029Y-72785298D01*
X159900023Y-72785296D01*
X159895923Y-72783474D01*
X159757463Y-72744355D01*
X158824416Y-72619948D01*
X158674050Y-72599899D01*
X158674040Y-72599898D01*
X158673269Y-72599795D01*
X158672478Y-72599710D01*
X158672467Y-72599709D01*
X158648078Y-72597098D01*
X158648055Y-72597096D01*
X158647225Y-72597007D01*
X158634247Y-72595957D01*
X158626967Y-72595557D01*
X158608958Y-72594567D01*
X158608922Y-72594565D01*
X158608167Y-72594524D01*
X158607419Y-72594502D01*
X158607389Y-72594501D01*
X158363573Y-72587415D01*
X158154841Y-72581349D01*
X158150326Y-72581249D01*
X158148162Y-72581201D01*
X158148110Y-72581200D01*
X158147836Y-72581194D01*
X158144348Y-72581141D01*
X158144152Y-72581139D01*
X158144123Y-72581139D01*
X158140388Y-72581108D01*
X158137360Y-72581083D01*
X154372265Y-72575929D01*
X149802952Y-72569674D01*
X149802943Y-72569674D01*
X149799707Y-72569670D01*
X149760281Y-72573696D01*
X149699392Y-72579914D01*
X149699387Y-72579915D01*
X149696163Y-72580244D01*
X149645632Y-72590745D01*
X149546449Y-72622301D01*
X149539849Y-72626383D01*
X149539850Y-72626383D01*
X149427907Y-72695626D01*
X149427902Y-72695629D01*
X149424086Y-72697990D01*
X149420647Y-72700868D01*
X149420641Y-72700872D01*
X149373089Y-72740662D01*
X149373085Y-72740666D01*
X149369637Y-72743551D01*
X149274137Y-72850000D01*
X138000000Y-72850000D01*
X138000000Y-74709472D01*
X137999386Y-74721895D01*
X137981790Y-74899499D01*
X137976915Y-74923862D01*
X137926635Y-75088581D01*
X137917074Y-75111512D01*
X137835452Y-75263160D01*
X137821577Y-75283770D01*
X137711784Y-75416454D01*
X137694135Y-75433940D01*
X137560440Y-75542500D01*
X137539705Y-75556182D01*
X137387302Y-75636400D01*
X137364282Y-75645748D01*
X137199114Y-75694496D01*
X137174709Y-75699146D01*
X136996944Y-75715098D01*
X136984515Y-75715597D01*
X135827228Y-75704881D01*
X135619715Y-75702960D01*
X135605301Y-75701997D01*
X135545123Y-75694496D01*
X135483209Y-75686778D01*
X135455175Y-75679955D01*
X135346569Y-75639877D01*
X135320831Y-75626858D01*
X135224196Y-75563126D01*
X135202087Y-75544588D01*
X135147837Y-75487309D01*
X135112500Y-75450000D01*
X134925000Y-75200000D01*
X134144579Y-75200000D01*
X134130471Y-75199208D01*
X133993058Y-75183725D01*
X133965551Y-75177446D01*
X133841759Y-75134129D01*
X133816338Y-75121887D01*
X133705283Y-75052107D01*
X133683224Y-75034515D01*
X133590485Y-74941776D01*
X133572893Y-74919717D01*
X133503113Y-74808662D01*
X133490871Y-74783242D01*
X133477571Y-74745231D01*
X133470500Y-74703618D01*
X133470500Y-74271382D01*
X133477571Y-74229769D01*
X133490871Y-74191757D01*
X133503113Y-74166338D01*
X133572893Y-74055283D01*
X133590485Y-74033224D01*
X133683224Y-73940485D01*
X133705283Y-73922893D01*
X133816338Y-73853113D01*
X133841759Y-73840871D01*
X133965551Y-73797554D01*
X133993058Y-73791275D01*
X134130471Y-73775792D01*
X134144579Y-73775000D01*
X134925000Y-73775000D01*
X135275000Y-73525000D01*
X135250000Y-73200000D01*
X134950000Y-72455000D01*
X125061171Y-72455000D01*
X125048821Y-72454393D01*
X125039039Y-72453430D01*
X124872246Y-72437002D01*
X124848023Y-72432184D01*
X124684174Y-72382481D01*
X124661357Y-72373030D01*
X124517955Y-72296381D01*
X124467306Y-72246629D01*
X124451350Y-72185259D01*
X124451350Y-67901483D01*
X124471352Y-67833362D01*
X124525008Y-67786869D01*
X124577350Y-67775483D01*
X170324350Y-67775483D01*
X170392471Y-67795485D01*
G37*
G04 #@! TD.AperFunction*
G04 #@! TA.AperFunction,Conductor*
G36*
X141155665Y-73480871D02*
G01*
X141177946Y-73498907D01*
X141206719Y-73528208D01*
X141670000Y-74000000D01*
X142774000Y-74000000D01*
X142842121Y-74020002D01*
X142888614Y-74073658D01*
X142900000Y-74126000D01*
X142900000Y-76079967D01*
X142913647Y-76079923D01*
X142913649Y-76079923D01*
X145833590Y-76070412D01*
X145901775Y-76090192D01*
X145948443Y-76143696D01*
X145960000Y-76196411D01*
X145960000Y-77634000D01*
X145939998Y-77702121D01*
X145886342Y-77748614D01*
X145834000Y-77760000D01*
X136796000Y-77760000D01*
X136727879Y-77739998D01*
X136681386Y-77686342D01*
X136670000Y-77634000D01*
X136670000Y-76976540D01*
X136690002Y-76908419D01*
X136743658Y-76861926D01*
X136796538Y-76850541D01*
X138991883Y-76859923D01*
X138991884Y-76859923D01*
X139010000Y-76860000D01*
X139010155Y-76070412D01*
X139010545Y-74073658D01*
X139010638Y-73596322D01*
X139030653Y-73528208D01*
X139084318Y-73481725D01*
X139136044Y-73470350D01*
X140425367Y-73464297D01*
X141087451Y-73461189D01*
X141155665Y-73480871D01*
G37*
G04 #@! TD.AperFunction*
G04 #@! TA.AperFunction,Conductor*
G36*
X168983356Y-94400761D02*
G01*
X169180790Y-94422559D01*
X169207778Y-94428592D01*
X169395699Y-94492935D01*
X169408526Y-94498130D01*
X169625000Y-94600000D01*
X170893813Y-94600000D01*
X170906163Y-94600607D01*
X171082740Y-94617999D01*
X171106957Y-94622815D01*
X171270809Y-94672518D01*
X171293629Y-94681971D01*
X171314063Y-94692893D01*
X171444631Y-94762683D01*
X171465158Y-94776399D01*
X171597521Y-94885026D01*
X171614974Y-94902479D01*
X171723601Y-95034842D01*
X171737319Y-95055372D01*
X171818029Y-95206371D01*
X171827482Y-95229190D01*
X171877185Y-95393043D01*
X171882002Y-95417263D01*
X171899393Y-95593837D01*
X171900000Y-95606187D01*
X171900000Y-96968813D01*
X171899393Y-96981163D01*
X171887080Y-97106183D01*
X171882002Y-97157737D01*
X171877185Y-97181957D01*
X171866738Y-97216398D01*
X171827482Y-97345809D01*
X171818029Y-97368629D01*
X171737319Y-97519628D01*
X171723601Y-97540158D01*
X171614974Y-97672521D01*
X171597521Y-97689974D01*
X171465158Y-97798601D01*
X171444631Y-97812317D01*
X171352417Y-97861607D01*
X171293629Y-97893029D01*
X171270810Y-97902482D01*
X171106957Y-97952185D01*
X171082740Y-97957001D01*
X170906163Y-97974393D01*
X170893813Y-97975000D01*
X162745401Y-97975000D01*
X162733051Y-97974393D01*
X162634354Y-97964672D01*
X162568521Y-97938089D01*
X162557609Y-97928374D01*
X161761529Y-97132294D01*
X161727503Y-97069982D01*
X161732568Y-96999167D01*
X161756672Y-96959240D01*
X161775787Y-96937850D01*
X161808790Y-96911532D01*
X161867929Y-96878847D01*
X161907770Y-96864905D01*
X161985019Y-96851780D01*
X162006125Y-96850000D01*
X166500000Y-96850000D01*
X166525000Y-96500000D01*
X166525000Y-95406187D01*
X166525607Y-95393837D01*
X166542998Y-95217263D01*
X166547815Y-95193043D01*
X166597518Y-95029190D01*
X166606971Y-95006371D01*
X166687681Y-94855372D01*
X166701399Y-94834842D01*
X166810026Y-94702479D01*
X166827479Y-94685026D01*
X166959842Y-94576399D01*
X166980369Y-94562683D01*
X167101134Y-94498133D01*
X167131371Y-94481971D01*
X167154191Y-94472518D01*
X167318043Y-94422815D01*
X167342260Y-94417999D01*
X167518837Y-94400607D01*
X167531187Y-94400000D01*
X168969529Y-94400000D01*
X168983356Y-94400761D01*
G37*
G04 #@! TD.AperFunction*
G04 #@! TA.AperFunction,Conductor*
G36*
X131737171Y-78402421D02*
G01*
X131776953Y-78410334D01*
X131822374Y-78429148D01*
X131845582Y-78444655D01*
X131880345Y-78479418D01*
X131895852Y-78502626D01*
X131914666Y-78548047D01*
X131922579Y-78587829D01*
X131925000Y-78612410D01*
X131925000Y-78937590D01*
X131922579Y-78962171D01*
X131914666Y-79001953D01*
X131895852Y-79047374D01*
X131880345Y-79070582D01*
X131845582Y-79105345D01*
X131822374Y-79120852D01*
X131776953Y-79139666D01*
X131737171Y-79147579D01*
X131712590Y-79150000D01*
X129150000Y-79150000D01*
X129150000Y-80077632D01*
X129147482Y-80102694D01*
X129139253Y-80143223D01*
X129119699Y-80189390D01*
X129096317Y-80223498D01*
X129080063Y-80242751D01*
X128906974Y-80410432D01*
X128896902Y-80420189D01*
X128877983Y-80435281D01*
X128847358Y-80455221D01*
X128844646Y-80456986D01*
X128799991Y-80475069D01*
X128781357Y-80478699D01*
X128760945Y-80482675D01*
X128736855Y-80485000D01*
X128259860Y-80485000D01*
X128231967Y-80481874D01*
X128187276Y-80471729D01*
X128136957Y-80447642D01*
X128101029Y-80419197D01*
X128081101Y-80399432D01*
X127939440Y-80223498D01*
X127900390Y-80175000D01*
X127890930Y-80163252D01*
X127879016Y-80145579D01*
X127861873Y-80114818D01*
X127847743Y-80074738D01*
X127841805Y-80040037D01*
X127840000Y-80018785D01*
X127840000Y-78788428D01*
X127843307Y-78759750D01*
X127854018Y-78713925D01*
X127879441Y-78662512D01*
X127909354Y-78626183D01*
X127930137Y-78606145D01*
X127938182Y-78600000D01*
X128123315Y-78458579D01*
X128138061Y-78447315D01*
X128155331Y-78436226D01*
X128168625Y-78429148D01*
X128185268Y-78420287D01*
X128224024Y-78407178D01*
X128257489Y-78401672D01*
X128277944Y-78400000D01*
X131712590Y-78400000D01*
X131737171Y-78402421D01*
G37*
G04 #@! TD.AperFunction*
G04 #@! TA.AperFunction,Conductor*
G36*
X142920871Y-98980002D02*
G01*
X142935599Y-98991069D01*
X143161349Y-99188087D01*
X143161350Y-99188088D01*
X143175000Y-99200000D01*
X145030165Y-99200000D01*
X145098286Y-99220002D01*
X145109756Y-99228320D01*
X145750000Y-99750000D01*
X147999000Y-99750000D01*
X148067121Y-99770002D01*
X148113614Y-99823658D01*
X148125000Y-99876000D01*
X148125000Y-101423655D01*
X148104998Y-101491776D01*
X148089114Y-101511721D01*
X147087072Y-102537066D01*
X147025155Y-102571805D01*
X146996958Y-102575000D01*
X146034015Y-102575000D01*
X145965894Y-102554998D01*
X145937219Y-102529663D01*
X145754204Y-102310045D01*
X145725960Y-102244908D01*
X145725000Y-102229382D01*
X145725000Y-100950000D01*
X143080880Y-100950000D01*
X143012759Y-100929998D01*
X142987488Y-100908581D01*
X141858707Y-99662218D01*
X141827806Y-99598302D01*
X141826132Y-99574798D01*
X141837222Y-99083159D01*
X141858755Y-99015506D01*
X141913446Y-98970235D01*
X141963190Y-98960000D01*
X142852750Y-98960000D01*
X142920871Y-98980002D01*
G37*
G04 #@! TD.AperFunction*
M02*
