%TF.GenerationSoftware,KiCad,Pcbnew,(6.0.9)*%
%TF.CreationDate,2023-01-08T00:25:15-05:00*%
%TF.ProjectId,DMG-DECN-02,444d472d-4445-4434-9e2d-30322e6b6963,rev?*%
%TF.SameCoordinates,Original*%
%TF.FileFunction,Drillmap*%
%TF.FilePolarity,Positive*%
%FSLAX45Y45*%
G04 Gerber Fmt 4.5, Leading zero omitted, Abs format (unit mm)*
G04 Created by KiCad (PCBNEW (6.0.9)) date 2023-01-08 00:25:15*
%MOMM*%
%LPD*%
G01*
G04 APERTURE LIST*
%ADD10C,0.025400*%
%ADD11C,0.200000*%
G04 APERTURE END LIST*
D10*
X12395085Y-6727498D02*
X12395085Y-11997498D01*
X17095085Y-6727498D02*
X12395085Y-6727498D01*
X12395085Y-11997498D02*
X12470085Y-11997498D01*
D11*
X15971987Y-8182000D02*
G75*
G03*
X15971987Y-8182000I-154987J0D01*
G01*
D10*
X12470085Y-11997498D02*
X12470085Y-12701498D01*
X17505085Y-11997498D02*
X17505085Y-6997498D01*
D11*
X13580987Y-7948000D02*
G75*
G03*
X13580987Y-7948000I-154987J0D01*
G01*
X14727000Y-7549000D02*
X14341000Y-7549000D01*
X14341000Y-7549000D02*
X14341000Y-7382000D01*
X14341000Y-7382000D02*
X14727000Y-7382000D01*
X14727000Y-7382000D02*
X14727000Y-7549000D01*
X13297000Y-7547000D02*
X12911000Y-7547000D01*
X12911000Y-7547000D02*
X12911000Y-7380000D01*
X12911000Y-7380000D02*
X13297000Y-7380000D01*
X13297000Y-7380000D02*
X13297000Y-7547000D01*
X16399000Y-7557000D02*
X16013000Y-7557000D01*
X16013000Y-7557000D02*
X16013000Y-7390000D01*
X16013000Y-7390000D02*
X16399000Y-7390000D01*
X16399000Y-7390000D02*
X16399000Y-7557000D01*
X13777987Y-9090000D02*
G75*
G03*
X13777987Y-9090000I-154987J0D01*
G01*
D10*
X17095085Y-6997498D02*
X17095085Y-6727498D01*
D11*
X15300085Y-11322498D02*
G75*
G03*
X15300085Y-11322498I-350000J0D01*
G01*
D10*
X12470084Y-12701498D02*
G75*
G03*
X12624085Y-12857498I152506J-3462D01*
G01*
D11*
X16989000Y-9218000D02*
X17156000Y-9218000D01*
X17156000Y-9218000D02*
X17156000Y-8832000D01*
X17156000Y-8832000D02*
X16989000Y-8832000D01*
X16989000Y-8832000D02*
X16989000Y-9218000D01*
D10*
X17430085Y-11997498D02*
X17505085Y-11997498D01*
D11*
X16288987Y-10724000D02*
G75*
G03*
X16288987Y-10724000I-154987J0D01*
G01*
D10*
X17505085Y-6997498D02*
X17095085Y-6997498D01*
X17287085Y-12857498D02*
G75*
G03*
X17430085Y-12693498I-15085J157498D01*
G01*
X12624085Y-12857498D02*
X17287085Y-12857498D01*
D11*
X12835000Y-10772000D02*
X13002000Y-10772000D01*
X13002000Y-10772000D02*
X13002000Y-10386000D01*
X13002000Y-10386000D02*
X12835000Y-10386000D01*
X12835000Y-10386000D02*
X12835000Y-10772000D01*
D10*
X17430085Y-12693498D02*
X17430085Y-11997498D01*
D11*
X13966987Y-10891000D02*
G75*
G03*
X13966987Y-10891000I-154987J0D01*
G01*
X17351500Y-11836500D02*
G75*
G03*
X17351500Y-11836500I-102500J0D01*
G01*
X15025500Y-8811000D02*
G75*
G03*
X15025500Y-8811000I-102500J0D01*
G01*
X12651434Y-13169252D02*
X12651434Y-12969252D01*
X12699053Y-12969252D01*
X12727624Y-12978776D01*
X12746672Y-12997823D01*
X12756196Y-13016871D01*
X12765720Y-13054966D01*
X12765720Y-13083537D01*
X12756196Y-13121633D01*
X12746672Y-13140680D01*
X12727624Y-13159728D01*
X12699053Y-13169252D01*
X12651434Y-13169252D01*
X12851434Y-13169252D02*
X12851434Y-13035918D01*
X12851434Y-13074014D02*
X12860958Y-13054966D01*
X12870482Y-13045442D01*
X12889529Y-13035918D01*
X12908577Y-13035918D01*
X12975243Y-13169252D02*
X12975243Y-13035918D01*
X12975243Y-12969252D02*
X12965720Y-12978776D01*
X12975243Y-12988299D01*
X12984767Y-12978776D01*
X12975243Y-12969252D01*
X12975243Y-12988299D01*
X13099053Y-13169252D02*
X13080005Y-13159728D01*
X13070482Y-13140680D01*
X13070482Y-12969252D01*
X13203815Y-13169252D02*
X13184767Y-13159728D01*
X13175243Y-13140680D01*
X13175243Y-12969252D01*
X13432386Y-13169252D02*
X13432386Y-12969252D01*
X13499053Y-13112109D01*
X13565720Y-12969252D01*
X13565720Y-13169252D01*
X13746672Y-13169252D02*
X13746672Y-13064490D01*
X13737148Y-13045442D01*
X13718101Y-13035918D01*
X13680005Y-13035918D01*
X13660958Y-13045442D01*
X13746672Y-13159728D02*
X13727624Y-13169252D01*
X13680005Y-13169252D01*
X13660958Y-13159728D01*
X13651434Y-13140680D01*
X13651434Y-13121633D01*
X13660958Y-13102585D01*
X13680005Y-13093061D01*
X13727624Y-13093061D01*
X13746672Y-13083537D01*
X13841910Y-13035918D02*
X13841910Y-13235918D01*
X13841910Y-13045442D02*
X13860958Y-13035918D01*
X13899053Y-13035918D01*
X13918101Y-13045442D01*
X13927624Y-13054966D01*
X13937148Y-13074014D01*
X13937148Y-13131156D01*
X13927624Y-13150204D01*
X13918101Y-13159728D01*
X13899053Y-13169252D01*
X13860958Y-13169252D01*
X13841910Y-13159728D01*
X14022863Y-13150204D02*
X14032386Y-13159728D01*
X14022863Y-13169252D01*
X14013339Y-13159728D01*
X14022863Y-13150204D01*
X14022863Y-13169252D01*
X14022863Y-13045442D02*
X14032386Y-13054966D01*
X14022863Y-13064490D01*
X14013339Y-13054966D01*
X14022863Y-13045442D01*
X14022863Y-13064490D01*
M02*
