G04 #@! TF.GenerationSoftware,KiCad,Pcbnew,(6.0.9)*
G04 #@! TF.CreationDate,2023-01-08T00:32:06-05:00*
G04 #@! TF.ProjectId,DMG-DECN-02,444d472d-4445-4434-9e2d-30322e6b6963,rev?*
G04 #@! TF.SameCoordinates,Original*
G04 #@! TF.FileFunction,Legend,Bot*
G04 #@! TF.FilePolarity,Positive*
%FSLAX46Y46*%
G04 Gerber Fmt 4.6, Leading zero omitted, Abs format (unit mm)*
G04 Created by KiCad (PCBNEW (6.0.9)) date 2023-01-08 00:32:06*
%MOMM*%
%LPD*%
G01*
G04 APERTURE LIST*
%ADD10C,0.150000*%
%ADD11O,1.524000X3.500000*%
G04 APERTURE END LIST*
D10*
X130871904Y-101782380D02*
X130300476Y-101782380D01*
X130586190Y-102782380D02*
X130586190Y-101782380D01*
X129967142Y-102782380D02*
X129967142Y-101782380D01*
X129586190Y-101782380D01*
X129490952Y-101830000D01*
X129443333Y-101877619D01*
X129395714Y-101972857D01*
X129395714Y-102115714D01*
X129443333Y-102210952D01*
X129490952Y-102258571D01*
X129586190Y-102306190D01*
X129967142Y-102306190D01*
X129062380Y-101782380D02*
X128443333Y-101782380D01*
X128776666Y-102163333D01*
X128633809Y-102163333D01*
X128538571Y-102210952D01*
X128490952Y-102258571D01*
X128443333Y-102353809D01*
X128443333Y-102591904D01*
X128490952Y-102687142D01*
X128538571Y-102734761D01*
X128633809Y-102782380D01*
X128919523Y-102782380D01*
X129014761Y-102734761D01*
X129062380Y-102687142D01*
X132831904Y-88862380D02*
X132260476Y-88862380D01*
X132546190Y-89862380D02*
X132546190Y-88862380D01*
X131927142Y-89862380D02*
X131927142Y-88862380D01*
X131546190Y-88862380D01*
X131450952Y-88910000D01*
X131403333Y-88957619D01*
X131355714Y-89052857D01*
X131355714Y-89195714D01*
X131403333Y-89290952D01*
X131450952Y-89338571D01*
X131546190Y-89386190D01*
X131927142Y-89386190D01*
X130403333Y-89862380D02*
X130974761Y-89862380D01*
X130689047Y-89862380D02*
X130689047Y-88862380D01*
X130784285Y-89005238D01*
X130879523Y-89100476D01*
X130974761Y-89148095D01*
X130071904Y-109952380D02*
X129500476Y-109952380D01*
X129786190Y-110952380D02*
X129786190Y-109952380D01*
X129167142Y-110952380D02*
X129167142Y-109952380D01*
X128786190Y-109952380D01*
X128690952Y-110000000D01*
X128643333Y-110047619D01*
X128595714Y-110142857D01*
X128595714Y-110285714D01*
X128643333Y-110380952D01*
X128690952Y-110428571D01*
X128786190Y-110476190D01*
X129167142Y-110476190D01*
X127738571Y-110285714D02*
X127738571Y-110952380D01*
X127976666Y-109904761D02*
X128214761Y-110619047D01*
X127595714Y-110619047D01*
X132806428Y-99059285D02*
X132377857Y-99059285D01*
X132592142Y-99809285D02*
X132592142Y-99059285D01*
X132127857Y-99809285D02*
X132127857Y-99059285D01*
X131842142Y-99059285D01*
X131770714Y-99095000D01*
X131735000Y-99130714D01*
X131699285Y-99202142D01*
X131699285Y-99309285D01*
X131735000Y-99380714D01*
X131770714Y-99416428D01*
X131842142Y-99452142D01*
X132127857Y-99452142D01*
X131413571Y-99130714D02*
X131377857Y-99095000D01*
X131306428Y-99059285D01*
X131127857Y-99059285D01*
X131056428Y-99095000D01*
X131020714Y-99130714D01*
X130985000Y-99202142D01*
X130985000Y-99273571D01*
X131020714Y-99380714D01*
X131449285Y-99809285D01*
X130985000Y-99809285D01*
G36*
X160311740Y-87071580D02*
G01*
X160327615Y-87251306D01*
X160332687Y-87371780D01*
X160395927Y-87448162D01*
X160433051Y-87493972D01*
X160554645Y-87659976D01*
X160660601Y-87831679D01*
X160751031Y-88009347D01*
X160826048Y-88193248D01*
X160885763Y-88383646D01*
X160930290Y-88580807D01*
X160959740Y-88785000D01*
X160965195Y-88851856D01*
X160968922Y-88934884D01*
X160970470Y-89025257D01*
X160970162Y-89076967D01*
X160969911Y-89118987D01*
X160967313Y-89212090D01*
X160962748Y-89300577D01*
X160956287Y-89380463D01*
X160948000Y-89447762D01*
X160909954Y-89647157D01*
X160856832Y-89843169D01*
X160789213Y-90031156D01*
X160706901Y-90211549D01*
X160609698Y-90384778D01*
X160497408Y-90551272D01*
X160409737Y-90661357D01*
X160369836Y-90711460D01*
X160321667Y-90767426D01*
X160321667Y-90832514D01*
X160320606Y-90870482D01*
X160316504Y-90929489D01*
X160309840Y-90996096D01*
X160301174Y-91065446D01*
X160291066Y-91132684D01*
X160280078Y-91192954D01*
X160270919Y-91235591D01*
X160221930Y-91414675D01*
X160156720Y-91590099D01*
X160075340Y-91761773D01*
X159977839Y-91929608D01*
X159864270Y-92093514D01*
X159734682Y-92253403D01*
X159589127Y-92409184D01*
X159563760Y-92434314D01*
X159407244Y-92578036D01*
X159246853Y-92706222D01*
X159082859Y-92818741D01*
X158915532Y-92915463D01*
X158745140Y-92996258D01*
X158571955Y-93060996D01*
X158396246Y-93109546D01*
X158218282Y-93141779D01*
X158038334Y-93157563D01*
X157917500Y-93162586D01*
X157841501Y-93225876D01*
X157782934Y-93273285D01*
X157617483Y-93393219D01*
X157445562Y-93497823D01*
X157267035Y-93587152D01*
X157081767Y-93661264D01*
X156889623Y-93720214D01*
X156690468Y-93764060D01*
X156484167Y-93792857D01*
X156451294Y-93795438D01*
X156393689Y-93797899D01*
X156325674Y-93799080D01*
X156250631Y-93799060D01*
X156171943Y-93797917D01*
X156092993Y-93795728D01*
X156017164Y-93792572D01*
X155947840Y-93788526D01*
X155888404Y-93783668D01*
X155842238Y-93778077D01*
X155648577Y-93741174D01*
X155451529Y-93688053D01*
X155262452Y-93620357D01*
X155081061Y-93537956D01*
X154907070Y-93440720D01*
X154740195Y-93328518D01*
X154580150Y-93201220D01*
X154525794Y-93154438D01*
X154416604Y-93149215D01*
X154403209Y-93148533D01*
X154221337Y-93130907D01*
X154043398Y-93098111D01*
X153871667Y-93050558D01*
X153763017Y-93010632D01*
X155527184Y-93010632D01*
X155527542Y-93014244D01*
X155540342Y-93022060D01*
X155565735Y-93032363D01*
X155601529Y-93044543D01*
X155645531Y-93057987D01*
X155695550Y-93072086D01*
X155749393Y-93086229D01*
X155804868Y-93099804D01*
X155859784Y-93112201D01*
X155911948Y-93122809D01*
X155959167Y-93131017D01*
X155974776Y-93133129D01*
X156016590Y-93137257D01*
X156068375Y-93140979D01*
X156126332Y-93144153D01*
X156186666Y-93146635D01*
X156245580Y-93148282D01*
X156299277Y-93148949D01*
X156343961Y-93148494D01*
X156375834Y-93146773D01*
X156383226Y-93146035D01*
X156477728Y-93135631D01*
X156559914Y-93124385D01*
X156633842Y-93111508D01*
X156703572Y-93096211D01*
X156773161Y-93077703D01*
X156846667Y-93055197D01*
X156868371Y-93048025D01*
X157019475Y-92988170D01*
X157164863Y-92913046D01*
X157303462Y-92823340D01*
X157434194Y-92719737D01*
X157555984Y-92602923D01*
X157619663Y-92533028D01*
X157734047Y-92390249D01*
X157832928Y-92241497D01*
X157916384Y-92086576D01*
X157984492Y-91925288D01*
X158037331Y-91757440D01*
X158074977Y-91582833D01*
X158097507Y-91401272D01*
X158105000Y-91212561D01*
X158104582Y-91167979D01*
X158095706Y-91011244D01*
X158074848Y-90863465D01*
X158041421Y-90722006D01*
X157994836Y-90584230D01*
X157934508Y-90447500D01*
X157905856Y-90392034D01*
X157822861Y-90254723D01*
X157725836Y-90122504D01*
X157616547Y-89997297D01*
X157496755Y-89881024D01*
X157368224Y-89775606D01*
X157232717Y-89682962D01*
X157220097Y-89675314D01*
X157188227Y-89656819D01*
X157150751Y-89635849D01*
X157110543Y-89613926D01*
X157070478Y-89592574D01*
X157033432Y-89573316D01*
X157002279Y-89557674D01*
X156979893Y-89547172D01*
X156969151Y-89543333D01*
X156969775Y-89547919D01*
X156975766Y-89564909D01*
X156986427Y-89591501D01*
X157000555Y-89624583D01*
X157049293Y-89745474D01*
X157067114Y-89799150D01*
X157104059Y-89910426D01*
X157148387Y-90080880D01*
X157180781Y-90251634D01*
X157185830Y-90289196D01*
X157192978Y-90362516D01*
X157198462Y-90445670D01*
X157202169Y-90534434D01*
X157203860Y-90618333D01*
X157203986Y-90624580D01*
X157203801Y-90711883D01*
X157201502Y-90792117D01*
X157196977Y-90861055D01*
X157192519Y-90905827D01*
X157163925Y-91103281D01*
X157121267Y-91292547D01*
X157064098Y-91474906D01*
X156991971Y-91651636D01*
X156904438Y-91824019D01*
X156801050Y-91993333D01*
X156778343Y-92027018D01*
X156662652Y-92183037D01*
X156535752Y-92330568D01*
X156399047Y-92468451D01*
X156253937Y-92595524D01*
X156101826Y-92710630D01*
X155944115Y-92812606D01*
X155782206Y-92900295D01*
X155617500Y-92972535D01*
X155590501Y-92983153D01*
X155559737Y-92995714D01*
X155537446Y-93005374D01*
X155527184Y-93010632D01*
X153763017Y-93010632D01*
X153729782Y-92998419D01*
X153560667Y-92920901D01*
X153394710Y-92828059D01*
X153232875Y-92720595D01*
X153076128Y-92599214D01*
X152925433Y-92464615D01*
X152781757Y-92317504D01*
X152646065Y-92158580D01*
X152585831Y-92080372D01*
X152472950Y-91915916D01*
X152375897Y-91748025D01*
X152294802Y-91577021D01*
X152229792Y-91403227D01*
X152214740Y-91348858D01*
X152921667Y-91348858D01*
X152921692Y-91349032D01*
X152925654Y-91358615D01*
X152935411Y-91379939D01*
X152949572Y-91410014D01*
X152966746Y-91445845D01*
X152973816Y-91460331D01*
X153046321Y-91593317D01*
X153129130Y-91718272D01*
X153224359Y-91838132D01*
X153334122Y-91955833D01*
X153345274Y-91966893D01*
X153478431Y-92087313D01*
X153617682Y-92192249D01*
X153763270Y-92281823D01*
X153915440Y-92356154D01*
X154074436Y-92415364D01*
X154240503Y-92459572D01*
X154413885Y-92488900D01*
X154432704Y-92490984D01*
X154491237Y-92495459D01*
X154560003Y-92498536D01*
X154634529Y-92500186D01*
X154710347Y-92500381D01*
X154782984Y-92499095D01*
X154847970Y-92496297D01*
X154900834Y-92491961D01*
X155007703Y-92476624D01*
X155175352Y-92438999D01*
X155338739Y-92385472D01*
X155497130Y-92316336D01*
X155649795Y-92231885D01*
X155796000Y-92132413D01*
X155821392Y-92112520D01*
X155871273Y-92069917D01*
X155926626Y-92019154D01*
X155984363Y-91963318D01*
X156041398Y-91905498D01*
X156094643Y-91848779D01*
X156141011Y-91796251D01*
X156177414Y-91750999D01*
X156204131Y-91714527D01*
X156298614Y-91569827D01*
X156377192Y-91421553D01*
X156440339Y-91268729D01*
X156488526Y-91110379D01*
X156495684Y-91081657D01*
X156510503Y-91017586D01*
X156521929Y-90958936D01*
X156530365Y-90902032D01*
X156536211Y-90843195D01*
X156539868Y-90778751D01*
X156541738Y-90705023D01*
X156542221Y-90618333D01*
X156542204Y-90603818D01*
X156541898Y-90537258D01*
X156541088Y-90483583D01*
X156539580Y-90439623D01*
X156537182Y-90402205D01*
X156533702Y-90368159D01*
X156528946Y-90334314D01*
X156522723Y-90297500D01*
X156517323Y-90268841D01*
X156502964Y-90202037D01*
X156486004Y-90132693D01*
X156467708Y-90065564D01*
X156449341Y-90005408D01*
X156432167Y-89956979D01*
X156416192Y-89916459D01*
X156388805Y-89986146D01*
X156308057Y-90169618D01*
X156212151Y-90347292D01*
X156102514Y-90516314D01*
X155979835Y-90675711D01*
X155844801Y-90824511D01*
X155698101Y-90961744D01*
X155650533Y-91001847D01*
X155484002Y-91129546D01*
X155312058Y-91242336D01*
X155135277Y-91339976D01*
X154954238Y-91422221D01*
X154769520Y-91488828D01*
X154581701Y-91539555D01*
X154391359Y-91574157D01*
X154199072Y-91592393D01*
X154135391Y-91594939D01*
X153937599Y-91593501D01*
X153741351Y-91578190D01*
X153548620Y-91549350D01*
X153361378Y-91507326D01*
X153181597Y-91452461D01*
X153011250Y-91385100D01*
X152976643Y-91369969D01*
X152948071Y-91358028D01*
X152928761Y-91350592D01*
X152921667Y-91348858D01*
X152214740Y-91348858D01*
X152180995Y-91226966D01*
X152148541Y-91048560D01*
X152132557Y-90868333D01*
X152127414Y-90747500D01*
X152064124Y-90671500D01*
X151989645Y-90577841D01*
X151872912Y-90410547D01*
X151771290Y-90236392D01*
X151684903Y-90055651D01*
X151613877Y-89868600D01*
X151558338Y-89675513D01*
X151518412Y-89476666D01*
X151501678Y-89347252D01*
X151489808Y-89171568D01*
X151489234Y-89052225D01*
X152140823Y-89052225D01*
X152144827Y-89204020D01*
X152159655Y-89352738D01*
X152167801Y-89405891D01*
X152204214Y-89574958D01*
X152255523Y-89736589D01*
X152321648Y-89890649D01*
X152402507Y-90037000D01*
X152498020Y-90175509D01*
X152608105Y-90306040D01*
X152732681Y-90428456D01*
X152871667Y-90542623D01*
X153016152Y-90642427D01*
X153165748Y-90727588D01*
X153320503Y-90797670D01*
X153481744Y-90853200D01*
X153650795Y-90894703D01*
X153828984Y-90922707D01*
X153864882Y-90926165D01*
X153924143Y-90929878D01*
X153991185Y-90932366D01*
X154061944Y-90933604D01*
X154132353Y-90933567D01*
X154198348Y-90932232D01*
X154255863Y-90929573D01*
X154300834Y-90925565D01*
X154407731Y-90908661D01*
X154568254Y-90870031D01*
X154724048Y-90816517D01*
X154873084Y-90748853D01*
X155013334Y-90667774D01*
X155024101Y-90660744D01*
X155159050Y-90562784D01*
X155287183Y-90451592D01*
X155406135Y-90329576D01*
X155513541Y-90199147D01*
X155607038Y-90062716D01*
X155614686Y-90050096D01*
X155633181Y-90018226D01*
X155654151Y-89980750D01*
X155676074Y-89940542D01*
X155697426Y-89900477D01*
X155716684Y-89863431D01*
X155732326Y-89832278D01*
X155742828Y-89809892D01*
X155746667Y-89799150D01*
X155742081Y-89799774D01*
X155725091Y-89805765D01*
X155698499Y-89816426D01*
X155665417Y-89830554D01*
X155559382Y-89873751D01*
X155390369Y-89930853D01*
X155213938Y-89977286D01*
X155034167Y-90011877D01*
X155001960Y-90016707D01*
X154967644Y-90021106D01*
X154933248Y-90024454D01*
X154896009Y-90026886D01*
X154853163Y-90028540D01*
X154801944Y-90029553D01*
X154739589Y-90030060D01*
X154663334Y-90030199D01*
X154587802Y-90030069D01*
X154525717Y-90029582D01*
X154474724Y-90028598D01*
X154432028Y-90026975D01*
X154394835Y-90024573D01*
X154360351Y-90021251D01*
X154325782Y-90016867D01*
X154288334Y-90011281D01*
X154101595Y-89976035D01*
X153921549Y-89928953D01*
X153750284Y-89869848D01*
X153585632Y-89797875D01*
X153425427Y-89712184D01*
X153267500Y-89611929D01*
X153262984Y-89608830D01*
X153106709Y-89492663D01*
X152959020Y-89365397D01*
X152821065Y-89228440D01*
X152693992Y-89083196D01*
X152578948Y-88931074D01*
X152477080Y-88773479D01*
X152389537Y-88611819D01*
X152317465Y-88447500D01*
X152306847Y-88420500D01*
X152294286Y-88389736D01*
X152284626Y-88367445D01*
X152279368Y-88357183D01*
X152279231Y-88357052D01*
X152274469Y-88362592D01*
X152266022Y-88381263D01*
X152254846Y-88410353D01*
X152241899Y-88447150D01*
X152228135Y-88488943D01*
X152214511Y-88533019D01*
X152201984Y-88576666D01*
X152191661Y-88616618D01*
X152164448Y-88754699D01*
X152147432Y-88901176D01*
X152140823Y-89052225D01*
X151489234Y-89052225D01*
X151488940Y-88991128D01*
X151498937Y-88810196D01*
X151519663Y-88633033D01*
X151550979Y-88463904D01*
X151563003Y-88413086D01*
X151615377Y-88235665D01*
X151683148Y-88059815D01*
X151765343Y-87887437D01*
X151860994Y-87720433D01*
X151969130Y-87560703D01*
X152003742Y-87517151D01*
X152789748Y-87517151D01*
X152790216Y-87588354D01*
X152792264Y-87651798D01*
X152795987Y-87703471D01*
X152814701Y-87839069D01*
X152852314Y-88008356D01*
X152905223Y-88171218D01*
X152973614Y-88328129D01*
X153057674Y-88479565D01*
X153157587Y-88625999D01*
X153177480Y-88651391D01*
X153220083Y-88701272D01*
X153270846Y-88756625D01*
X153326682Y-88814362D01*
X153384502Y-88871397D01*
X153441221Y-88924642D01*
X153493749Y-88971010D01*
X153539001Y-89007413D01*
X153570491Y-89030540D01*
X153716623Y-89126289D01*
X153867490Y-89206283D01*
X154024159Y-89270973D01*
X154187696Y-89320815D01*
X154359167Y-89356262D01*
X154370299Y-89357892D01*
X154414076Y-89362482D01*
X154469559Y-89366384D01*
X154533207Y-89369519D01*
X154601481Y-89371810D01*
X154670841Y-89373178D01*
X154737746Y-89373547D01*
X154798657Y-89372839D01*
X154850033Y-89370975D01*
X154888334Y-89367878D01*
X154926512Y-89362686D01*
X155001247Y-89350086D01*
X155079316Y-89334245D01*
X155156735Y-89316123D01*
X155229518Y-89296682D01*
X155293678Y-89276883D01*
X155345231Y-89257687D01*
X155372962Y-89245960D01*
X155303565Y-89218689D01*
X155196749Y-89173914D01*
X155014812Y-89083763D01*
X154842129Y-88979804D01*
X154695002Y-88873808D01*
X157086460Y-88873808D01*
X157156147Y-88901195D01*
X157210428Y-88923411D01*
X157335524Y-88980721D01*
X157460555Y-89045878D01*
X157579999Y-89115907D01*
X157688334Y-89187835D01*
X157719400Y-89210343D01*
X157763854Y-89245960D01*
X157872358Y-89332894D01*
X158016503Y-89468144D01*
X158150859Y-89614678D01*
X158274453Y-89771084D01*
X158386310Y-89935945D01*
X158485456Y-90107848D01*
X158570916Y-90285379D01*
X158641716Y-90467123D01*
X158696881Y-90651666D01*
X158729331Y-90802853D01*
X158754433Y-90986360D01*
X158765768Y-91174578D01*
X158765323Y-91212561D01*
X158763532Y-91365275D01*
X158747918Y-91556221D01*
X158719121Y-91745184D01*
X158677333Y-91929933D01*
X158622749Y-92108236D01*
X158555563Y-92277862D01*
X158555290Y-92278473D01*
X158540140Y-92313379D01*
X158528536Y-92341925D01*
X158521615Y-92361181D01*
X158520513Y-92368220D01*
X158531497Y-92364632D01*
X158554546Y-92354199D01*
X158586573Y-92338413D01*
X158624755Y-92318772D01*
X158666269Y-92296772D01*
X158708291Y-92273911D01*
X158747997Y-92251687D01*
X158782563Y-92231597D01*
X158809167Y-92215139D01*
X158885064Y-92162958D01*
X159018188Y-92057518D01*
X159141743Y-91941187D01*
X159254569Y-91815433D01*
X159355504Y-91681720D01*
X159443387Y-91541516D01*
X159517058Y-91396287D01*
X159575355Y-91247500D01*
X159590559Y-91200484D01*
X159618436Y-91101843D01*
X159639485Y-91005403D01*
X159654475Y-90906555D01*
X159664173Y-90800689D01*
X159669346Y-90683195D01*
X159669826Y-90661357D01*
X159668743Y-90517793D01*
X159659616Y-90385014D01*
X159641962Y-90259433D01*
X159615295Y-90137464D01*
X159579131Y-90015522D01*
X159557730Y-89954809D01*
X159497095Y-89811390D01*
X159424298Y-89675286D01*
X159338213Y-89544720D01*
X159237713Y-89417914D01*
X159121675Y-89293090D01*
X158992333Y-89173089D01*
X158858843Y-89068600D01*
X158720346Y-88979343D01*
X158575654Y-88904704D01*
X158423575Y-88844071D01*
X158262921Y-88796828D01*
X158092500Y-88762363D01*
X158062089Y-88757978D01*
X158023299Y-88753882D01*
X157979420Y-88750953D01*
X157927561Y-88749052D01*
X157864829Y-88748040D01*
X157788334Y-88747779D01*
X157773819Y-88747796D01*
X157707259Y-88748102D01*
X157653584Y-88748912D01*
X157609624Y-88750420D01*
X157572206Y-88752818D01*
X157538160Y-88756298D01*
X157504315Y-88761054D01*
X157467500Y-88767277D01*
X157438842Y-88772677D01*
X157372038Y-88787036D01*
X157302694Y-88803996D01*
X157235565Y-88822292D01*
X157175409Y-88840659D01*
X157126980Y-88857833D01*
X157086460Y-88873808D01*
X154695002Y-88873808D01*
X154678851Y-88862172D01*
X154525129Y-88730998D01*
X154381113Y-88586417D01*
X154246953Y-88428562D01*
X154122801Y-88257565D01*
X154008807Y-88073560D01*
X153964836Y-87993067D01*
X153883586Y-87821626D01*
X153815831Y-87645132D01*
X153763073Y-87467291D01*
X153732728Y-87327357D01*
X153706579Y-87142591D01*
X153694428Y-86953197D01*
X153694619Y-86931158D01*
X154355334Y-86931158D01*
X154356350Y-87002811D01*
X154359076Y-87066752D01*
X154363548Y-87118551D01*
X154368921Y-87159288D01*
X154400189Y-87323870D01*
X154446099Y-87481517D01*
X154506913Y-87632749D01*
X154582896Y-87778085D01*
X154674311Y-87918046D01*
X154781422Y-88053151D01*
X154904493Y-88183919D01*
X154986504Y-88259768D01*
X155111304Y-88358988D01*
X155246843Y-88448590D01*
X155395463Y-88530229D01*
X155398500Y-88531751D01*
X155433728Y-88549250D01*
X155463020Y-88563525D01*
X155483399Y-88573142D01*
X155491885Y-88576666D01*
X155491119Y-88572063D01*
X155484935Y-88555068D01*
X155474092Y-88528483D01*
X155459816Y-88495416D01*
X155410438Y-88373612D01*
X155393139Y-88321548D01*
X156713334Y-88321548D01*
X156717908Y-88320697D01*
X156734894Y-88314466D01*
X156761491Y-88303638D01*
X156794584Y-88289445D01*
X156915475Y-88240707D01*
X157080427Y-88185941D01*
X157250881Y-88141613D01*
X157421635Y-88109219D01*
X157459197Y-88104170D01*
X157532517Y-88097022D01*
X157615671Y-88091538D01*
X157704435Y-88087831D01*
X157794581Y-88086014D01*
X157881884Y-88086199D01*
X157962118Y-88088498D01*
X158031056Y-88093023D01*
X158071579Y-88097044D01*
X158273504Y-88126543D01*
X158468753Y-88171259D01*
X158657615Y-88231308D01*
X158840380Y-88306808D01*
X159017339Y-88397875D01*
X159188783Y-88504628D01*
X159355000Y-88627183D01*
X159384324Y-88651481D01*
X159431567Y-88693164D01*
X159484508Y-88742117D01*
X159540528Y-88795748D01*
X159597010Y-88851465D01*
X159651336Y-88906675D01*
X159700888Y-88958784D01*
X159743048Y-89005201D01*
X159775199Y-89043333D01*
X159841253Y-89131180D01*
X159913305Y-89237174D01*
X159981764Y-89348242D01*
X160044331Y-89460445D01*
X160098706Y-89569844D01*
X160142588Y-89672500D01*
X160153185Y-89699488D01*
X160165730Y-89730257D01*
X160175379Y-89752553D01*
X160180633Y-89762816D01*
X160180770Y-89762947D01*
X160185532Y-89757407D01*
X160193979Y-89738736D01*
X160205155Y-89709646D01*
X160218102Y-89672849D01*
X160231866Y-89631056D01*
X160245490Y-89586980D01*
X160258017Y-89543333D01*
X160270998Y-89492096D01*
X160296031Y-89360696D01*
X160312175Y-89220920D01*
X160319169Y-89076967D01*
X160316751Y-88933038D01*
X160304661Y-88793333D01*
X160303369Y-88783218D01*
X160273193Y-88613987D01*
X160227782Y-88450403D01*
X160167562Y-88293328D01*
X160092959Y-88143625D01*
X160004402Y-88002157D01*
X159902317Y-87869787D01*
X159787131Y-87747377D01*
X159701754Y-87669101D01*
X159558800Y-87554794D01*
X159410093Y-87456064D01*
X159255375Y-87372808D01*
X159094386Y-87304921D01*
X158926869Y-87252300D01*
X158752565Y-87214842D01*
X158571215Y-87192443D01*
X158382562Y-87185000D01*
X158343376Y-87185324D01*
X158184850Y-87193977D01*
X158035403Y-87214804D01*
X157892632Y-87248341D01*
X157754132Y-87295124D01*
X157617500Y-87355691D01*
X157579935Y-87374913D01*
X157438251Y-87458584D01*
X157302390Y-87556464D01*
X157174145Y-87666909D01*
X157055308Y-87788273D01*
X156947671Y-87918913D01*
X156853026Y-88057183D01*
X156844223Y-88071777D01*
X156825988Y-88103420D01*
X156805241Y-88140708D01*
X156783506Y-88180760D01*
X156762307Y-88220691D01*
X156743166Y-88257619D01*
X156727608Y-88288660D01*
X156717156Y-88310931D01*
X156713334Y-88321548D01*
X155393139Y-88321548D01*
X155356008Y-88209799D01*
X155311510Y-88038616D01*
X155278123Y-87864166D01*
X155273293Y-87831959D01*
X155268894Y-87797643D01*
X155265546Y-87763247D01*
X155263114Y-87726008D01*
X155261460Y-87683162D01*
X155260447Y-87631943D01*
X155259940Y-87569588D01*
X155259816Y-87501666D01*
X155917780Y-87501666D01*
X155917784Y-87505767D01*
X155918782Y-87599075D01*
X155921809Y-87679744D01*
X155927346Y-87751579D01*
X155935876Y-87818385D01*
X155947879Y-87883965D01*
X155963838Y-87952124D01*
X155984233Y-88026666D01*
X155994485Y-88061353D01*
X156007319Y-88102745D01*
X156018982Y-88138346D01*
X156027834Y-88163020D01*
X156043809Y-88203540D01*
X156071196Y-88133853D01*
X156152468Y-87949378D01*
X156248376Y-87771971D01*
X156358009Y-87603116D01*
X156480632Y-87443852D01*
X156615508Y-87295218D01*
X156761900Y-87158255D01*
X156804520Y-87122241D01*
X156971500Y-86993599D01*
X157143816Y-86880051D01*
X157320967Y-86781807D01*
X157502454Y-86699077D01*
X157687777Y-86632071D01*
X157876436Y-86581000D01*
X158067930Y-86546073D01*
X158261761Y-86527502D01*
X158343446Y-86524433D01*
X158537223Y-86526996D01*
X158730072Y-86543049D01*
X158919776Y-86572207D01*
X159104120Y-86614082D01*
X159280888Y-86668287D01*
X159447863Y-86734437D01*
X159448475Y-86734710D01*
X159483390Y-86749840D01*
X159511959Y-86761388D01*
X159531252Y-86768227D01*
X159538334Y-86769230D01*
X159537957Y-86767808D01*
X159532285Y-86754581D01*
X159520858Y-86730259D01*
X159505035Y-86697695D01*
X159486176Y-86659743D01*
X159451459Y-86593331D01*
X159382690Y-86477145D01*
X159306875Y-86368918D01*
X159221007Y-86264521D01*
X159122077Y-86159825D01*
X159037492Y-86080057D01*
X158900492Y-85968809D01*
X158756306Y-85872593D01*
X158604958Y-85791424D01*
X158446473Y-85725312D01*
X158280875Y-85674270D01*
X158108188Y-85638312D01*
X158104825Y-85637782D01*
X158055007Y-85631774D01*
X157992889Y-85626872D01*
X157922482Y-85623170D01*
X157847798Y-85620763D01*
X157772849Y-85619747D01*
X157701646Y-85620215D01*
X157638202Y-85622263D01*
X157586529Y-85625986D01*
X157450931Y-85644700D01*
X157281644Y-85682313D01*
X157118782Y-85735222D01*
X156961871Y-85803613D01*
X156810435Y-85887673D01*
X156664001Y-85987586D01*
X156638609Y-86007479D01*
X156588728Y-86050082D01*
X156533375Y-86100845D01*
X156475638Y-86156681D01*
X156418603Y-86214501D01*
X156365358Y-86271220D01*
X156318990Y-86323748D01*
X156282587Y-86369000D01*
X156246704Y-86418378D01*
X156154436Y-86562211D01*
X156077555Y-86710420D01*
X156015374Y-86864625D01*
X155967211Y-87026445D01*
X155932380Y-87197500D01*
X155927951Y-87228205D01*
X155923865Y-87266949D01*
X155920943Y-87310774D01*
X155919048Y-87362572D01*
X155918040Y-87425238D01*
X155917780Y-87501666D01*
X155259816Y-87501666D01*
X155259801Y-87493333D01*
X155259931Y-87417801D01*
X155260418Y-87355716D01*
X155261402Y-87304723D01*
X155263025Y-87262027D01*
X155265427Y-87224834D01*
X155268749Y-87190350D01*
X155273133Y-87155781D01*
X155278719Y-87118333D01*
X155305869Y-86969619D01*
X155352791Y-86780844D01*
X155412728Y-86600823D01*
X155486408Y-86427893D01*
X155574560Y-86260389D01*
X155677916Y-86096646D01*
X155797203Y-85935000D01*
X155818090Y-85909563D01*
X155858855Y-85863050D01*
X155907419Y-85810358D01*
X155961116Y-85754176D01*
X156017282Y-85697195D01*
X156073251Y-85642103D01*
X156126360Y-85591589D01*
X156173942Y-85548343D01*
X156213334Y-85515054D01*
X156303494Y-85447155D01*
X156408774Y-85375662D01*
X156519305Y-85307609D01*
X156631098Y-85245329D01*
X156740160Y-85191152D01*
X156842500Y-85147412D01*
X156869489Y-85136815D01*
X156900258Y-85124270D01*
X156922554Y-85114621D01*
X156932817Y-85109367D01*
X156932948Y-85109230D01*
X156927408Y-85104468D01*
X156908737Y-85096021D01*
X156879647Y-85084845D01*
X156842850Y-85071898D01*
X156801057Y-85058134D01*
X156756981Y-85044510D01*
X156713334Y-85031983D01*
X156576031Y-85001131D01*
X156427404Y-84980643D01*
X156273331Y-84971230D01*
X156117427Y-84972978D01*
X155963301Y-84985975D01*
X155814567Y-85010308D01*
X155713931Y-85034086D01*
X155552356Y-85085430D01*
X155398720Y-85151388D01*
X155252966Y-85231995D01*
X155115036Y-85327290D01*
X154984873Y-85437309D01*
X154862420Y-85562089D01*
X154747621Y-85701666D01*
X154648136Y-85845290D01*
X154562885Y-85994771D01*
X154492668Y-86149641D01*
X154436992Y-86311138D01*
X154395365Y-86480505D01*
X154367293Y-86658983D01*
X154362182Y-86714229D01*
X154358286Y-86782437D01*
X154355992Y-86856224D01*
X154355334Y-86931158D01*
X153694619Y-86931158D01*
X153696088Y-86761346D01*
X153711367Y-86569210D01*
X153740078Y-86378961D01*
X153782029Y-86192770D01*
X153837033Y-86012809D01*
X153904900Y-85841250D01*
X153920031Y-85806642D01*
X153931972Y-85778070D01*
X153939408Y-85758760D01*
X153941142Y-85751666D01*
X153940968Y-85751691D01*
X153931385Y-85755653D01*
X153910061Y-85765410D01*
X153879986Y-85779571D01*
X153844155Y-85796745D01*
X153826679Y-85805293D01*
X153694792Y-85877465D01*
X153570665Y-85959907D01*
X153451353Y-86054738D01*
X153333910Y-86164081D01*
X153248874Y-86254147D01*
X153137712Y-86391195D01*
X153041715Y-86535131D01*
X152960829Y-86686059D01*
X152895002Y-86844081D01*
X152844181Y-87009298D01*
X152808313Y-87181812D01*
X152807783Y-87185175D01*
X152801775Y-87234993D01*
X152796873Y-87297111D01*
X152793171Y-87367518D01*
X152790764Y-87442202D01*
X152789748Y-87517151D01*
X152003742Y-87517151D01*
X152088780Y-87410149D01*
X152135562Y-87355793D01*
X152140785Y-87246603D01*
X152156677Y-87068954D01*
X152189215Y-86885653D01*
X152237966Y-86706216D01*
X152302928Y-86530643D01*
X152384100Y-86358937D01*
X152481482Y-86191099D01*
X152595072Y-86027132D01*
X152724870Y-85867037D01*
X152870874Y-85710815D01*
X152896241Y-85685685D01*
X153052757Y-85541963D01*
X153213148Y-85413777D01*
X153377142Y-85301258D01*
X153544469Y-85204536D01*
X153714861Y-85123741D01*
X153888046Y-85059003D01*
X154063755Y-85010453D01*
X154241719Y-84978220D01*
X154421667Y-84962436D01*
X154542500Y-84957413D01*
X154618500Y-84894123D01*
X154662751Y-84858053D01*
X154827763Y-84736670D01*
X154999184Y-84630666D01*
X155177086Y-84540012D01*
X155361545Y-84464675D01*
X155552635Y-84404625D01*
X155750428Y-84359831D01*
X155955000Y-84330260D01*
X156021857Y-84324805D01*
X156104885Y-84321078D01*
X156195258Y-84319530D01*
X156288988Y-84320089D01*
X156382091Y-84322687D01*
X156470578Y-84327252D01*
X156550464Y-84333713D01*
X156617763Y-84342000D01*
X156817158Y-84380046D01*
X157013170Y-84433168D01*
X157201157Y-84500787D01*
X157381550Y-84583099D01*
X157554779Y-84680302D01*
X157721273Y-84792592D01*
X157881461Y-84920164D01*
X157937427Y-84968333D01*
X158002515Y-84968333D01*
X158040483Y-84969394D01*
X158099490Y-84973496D01*
X158166097Y-84980160D01*
X158235447Y-84988826D01*
X158302685Y-84998934D01*
X158362955Y-85009922D01*
X158397176Y-85017198D01*
X158576537Y-85065450D01*
X158695860Y-85109230D01*
X158752245Y-85129918D01*
X158924190Y-85210540D01*
X159092263Y-85307255D01*
X159256354Y-85420000D01*
X159416353Y-85548713D01*
X159572150Y-85693333D01*
X159605457Y-85726865D01*
X159748653Y-85882997D01*
X159876461Y-86043168D01*
X159988733Y-86207067D01*
X160085315Y-86374382D01*
X160166058Y-86544803D01*
X160230811Y-86718017D01*
X160244980Y-86769230D01*
X160279422Y-86893713D01*
X160311740Y-87071580D01*
G37*
%LPC*%
D11*
X126150000Y-110550000D03*
X126325000Y-92550000D03*
X126150000Y-104475000D03*
X126200000Y-98525000D03*
M02*
