G04 #@! TF.GenerationSoftware,KiCad,Pcbnew,(6.0.9)*
G04 #@! TF.CreationDate,2023-01-08T00:32:06-05:00*
G04 #@! TF.ProjectId,DMG-DECN-02,444d472d-4445-4434-9e2d-30322e6b6963,rev?*
G04 #@! TF.SameCoordinates,Original*
G04 #@! TF.FileFunction,Profile,NP*
%FSLAX46Y46*%
G04 Gerber Fmt 4.6, Leading zero omitted, Abs format (unit mm)*
G04 Created by KiCad (PCBNEW (6.0.9)) date 2023-01-08 00:32:06*
%MOMM*%
%LPD*%
G01*
G04 APERTURE LIST*
G04 #@! TA.AperFunction,Profile*
%ADD10C,0.025400*%
G04 #@! TD*
G04 #@! TA.AperFunction,Profile*
%ADD11C,0.200000*%
G04 #@! TD*
G04 APERTURE END LIST*
D10*
X123950850Y-67274983D02*
X123950850Y-119974983D01*
X170950850Y-67274983D02*
X123950850Y-67274983D01*
X123950850Y-119974983D02*
X124700850Y-119974983D01*
D11*
X159719871Y-81820000D02*
G75*
G03*
X159719871Y-81820000I-1549871J0D01*
G01*
D10*
X124700850Y-119974983D02*
X124700850Y-127014983D01*
X175050850Y-119974983D02*
X175050850Y-69974983D01*
D11*
X135809871Y-79480000D02*
G75*
G03*
X135809871Y-79480000I-1549871J0D01*
G01*
X147270000Y-75490000D02*
X143410000Y-75490000D01*
X143410000Y-75490000D02*
X143410000Y-73820000D01*
X143410000Y-73820000D02*
X147270000Y-73820000D01*
X147270000Y-73820000D02*
X147270000Y-75490000D01*
X132970000Y-75470000D02*
X129110000Y-75470000D01*
X129110000Y-75470000D02*
X129110000Y-73800000D01*
X129110000Y-73800000D02*
X132970000Y-73800000D01*
X132970000Y-73800000D02*
X132970000Y-75470000D01*
X163990000Y-75570000D02*
X160130000Y-75570000D01*
X160130000Y-75570000D02*
X160130000Y-73900000D01*
X160130000Y-73900000D02*
X163990000Y-73900000D01*
X163990000Y-73900000D02*
X163990000Y-75570000D01*
X137779871Y-90900000D02*
G75*
G03*
X137779871Y-90900000I-1549871J0D01*
G01*
D10*
X170950850Y-69974983D02*
X170950850Y-67274983D01*
D11*
X153000850Y-113224983D02*
G75*
G03*
X153000850Y-113224983I-3500000J0D01*
G01*
D10*
X124700837Y-127014983D02*
G75*
G03*
X126240850Y-128574983I1525063J-34617D01*
G01*
D11*
X169890000Y-92180000D02*
X171560000Y-92180000D01*
X171560000Y-92180000D02*
X171560000Y-88320000D01*
X171560000Y-88320000D02*
X169890000Y-88320000D01*
X169890000Y-88320000D02*
X169890000Y-92180000D01*
D10*
X174300850Y-119974983D02*
X175050850Y-119974983D01*
D11*
X162889871Y-107240000D02*
G75*
G03*
X162889871Y-107240000I-1549871J0D01*
G01*
D10*
X175050850Y-69974983D02*
X170950850Y-69974983D01*
X172870850Y-128574978D02*
G75*
G03*
X174300850Y-126934983I-150850J1574978D01*
G01*
X126240850Y-128574983D02*
X172870850Y-128574983D01*
D11*
X128350000Y-107720000D02*
X130020000Y-107720000D01*
X130020000Y-107720000D02*
X130020000Y-103860000D01*
X130020000Y-103860000D02*
X128350000Y-103860000D01*
X128350000Y-103860000D02*
X128350000Y-107720000D01*
D10*
X174300850Y-126934983D02*
X174300850Y-119974983D01*
D11*
X139669871Y-108910000D02*
G75*
G03*
X139669871Y-108910000I-1549871J0D01*
G01*
X173515000Y-118365000D02*
G75*
G03*
X173515000Y-118365000I-1025000J0D01*
G01*
X150255000Y-88110000D02*
G75*
G03*
X150255000Y-88110000I-1025000J0D01*
G01*
M02*
