G04 #@! TF.GenerationSoftware,KiCad,Pcbnew,(6.0.9)*
G04 #@! TF.CreationDate,2023-01-08T00:32:06-05:00*
G04 #@! TF.ProjectId,DMG-DECN-02,444d472d-4445-4434-9e2d-30322e6b6963,rev?*
G04 #@! TF.SameCoordinates,Original*
G04 #@! TF.FileFunction,Legend,Top*
G04 #@! TF.FilePolarity,Positive*
%FSLAX46Y46*%
G04 Gerber Fmt 4.6, Leading zero omitted, Abs format (unit mm)*
G04 Created by KiCad (PCBNEW (6.0.9)) date 2023-01-08 00:32:06*
%MOMM*%
%LPD*%
G01*
G04 APERTURE LIST*
G04 Aperture macros list*
%AMRoundRect*
0 Rectangle with rounded corners*
0 $1 Rounding radius*
0 $2 $3 $4 $5 $6 $7 $8 $9 X,Y pos of 4 corners*
0 Add a 4 corners polygon primitive as box body*
4,1,4,$2,$3,$4,$5,$6,$7,$8,$9,$2,$3,0*
0 Add four circle primitives for the rounded corners*
1,1,$1+$1,$2,$3*
1,1,$1+$1,$4,$5*
1,1,$1+$1,$6,$7*
1,1,$1+$1,$8,$9*
0 Add four rect primitives between the rounded corners*
20,1,$1+$1,$2,$3,$4,$5,0*
20,1,$1+$1,$4,$5,$6,$7,0*
20,1,$1+$1,$6,$7,$8,$9,0*
20,1,$1+$1,$8,$9,$2,$3,0*%
%AMFreePoly0*
4,1,55,1.015063,1.095106,1.030902,1.095106,1.043716,1.085796,1.058779,1.080902,1.068089,1.068089,1.080902,1.058779,1.085796,1.043716,1.095106,1.030902,1.095106,1.015063,1.100000,1.000000,1.100000,0.762000,1.143000,0.762000,1.143000,-0.762000,0.879422,-0.762000,0.600000,-1.041422,0.600000,-2.500000,0.595106,-2.515063,0.595106,-2.530902,0.585796,-2.543716,0.580902,-2.558779,
0.568089,-2.568089,0.558779,-2.580902,0.543716,-2.585796,0.530902,-2.595106,0.515063,-2.595106,0.500000,-2.600000,-0.500000,-2.600000,-0.515063,-2.595106,-0.530902,-2.595106,-0.543716,-2.585796,-0.558779,-2.580902,-0.568089,-2.568089,-0.580902,-2.558779,-0.585796,-2.543716,-0.595106,-2.530902,-0.595106,-2.515063,-0.600000,-2.500000,-0.600000,-1.041422,-0.879422,-0.762000,-1.143000,-0.762000,
-1.143000,0.762000,-1.100000,0.762000,-1.100000,1.000000,-1.095106,1.015063,-1.095106,1.030902,-1.085796,1.043716,-1.080902,1.058779,-1.068089,1.068089,-1.058779,1.080902,-1.043716,1.085796,-1.030902,1.095106,-1.015063,1.095106,-1.000000,1.100000,1.000000,1.100000,1.015063,1.095106,1.015063,1.095106,$1*%
G04 Aperture macros list end*
%ADD10C,0.150000*%
%ADD11C,0.250000*%
%ADD12C,0.120000*%
%ADD13R,1.250000X1.500000*%
%ADD14R,2.200000X0.600000*%
%ADD15R,1.500000X1.250000*%
%ADD16RoundRect,0.050800X0.700000X3.000000X-0.700000X3.000000X-0.700000X-3.000000X0.700000X-3.000000X0*%
%ADD17RoundRect,0.050800X-0.500000X-3.000000X0.500000X-3.000000X0.500000X3.000000X-0.500000X3.000000X0*%
%ADD18RoundRect,0.050800X0.500000X3.000000X-0.500000X3.000000X-0.500000X-3.000000X0.500000X-3.000000X0*%
%ADD19R,4.000000X5.000000*%
%ADD20R,5.200000X3.200000*%
%ADD21R,1.000000X1.000000*%
%ADD22FreePoly0,90.000000*%
%ADD23FreePoly0,270.000000*%
%ADD24R,0.600000X2.200000*%
%ADD25FreePoly0,180.000000*%
%ADD26FreePoly0,0.000000*%
G04 APERTURE END LIST*
D10*
X150198984Y-84888859D02*
G75*
G03*
X166050000Y-84850000I7918066J3055139D01*
G01*
X165515644Y-77758692D02*
G75*
G03*
X150325001Y-78600000I-7390644J-4116308D01*
G01*
X125385535Y-96153214D02*
X124635535Y-96153214D01*
X125171250Y-95903214D01*
X124635535Y-95653214D01*
X125385535Y-95653214D01*
X124992678Y-95046071D02*
X125028392Y-94938928D01*
X125064107Y-94903214D01*
X125135535Y-94867500D01*
X125242678Y-94867500D01*
X125314107Y-94903214D01*
X125349821Y-94938928D01*
X125385535Y-95010357D01*
X125385535Y-95296071D01*
X124635535Y-95296071D01*
X124635535Y-95046071D01*
X124671250Y-94974642D01*
X124706964Y-94938928D01*
X124778392Y-94903214D01*
X124849821Y-94903214D01*
X124921250Y-94938928D01*
X124956964Y-94974642D01*
X124992678Y-95046071D01*
X124992678Y-95296071D01*
X125314107Y-94117500D02*
X125349821Y-94153214D01*
X125385535Y-94260357D01*
X125385535Y-94331785D01*
X125349821Y-94438928D01*
X125278392Y-94510357D01*
X125206964Y-94546071D01*
X125064107Y-94581785D01*
X124956964Y-94581785D01*
X124814107Y-94546071D01*
X124742678Y-94510357D01*
X124671250Y-94438928D01*
X124635535Y-94331785D01*
X124635535Y-94260357D01*
X124671250Y-94153214D01*
X124706964Y-94117500D01*
X125385535Y-93403214D02*
X125385535Y-93831785D01*
X125385535Y-93617500D02*
X124635535Y-93617500D01*
X124742678Y-93688928D01*
X124814107Y-93760357D01*
X124849821Y-93831785D01*
X124599821Y-92546071D02*
X125564107Y-93188928D01*
X125385535Y-91903214D02*
X125385535Y-92331785D01*
X125385535Y-92117500D02*
X124635535Y-92117500D01*
X124742678Y-92188928D01*
X124814107Y-92260357D01*
X124849821Y-92331785D01*
X125171250Y-91617500D02*
X125171250Y-91260357D01*
X125385535Y-91688928D02*
X124635535Y-91438928D01*
X125385535Y-91188928D01*
X125807321Y-92653214D02*
X126771607Y-93296071D01*
X126593035Y-92010357D02*
X126593035Y-92438928D01*
X126593035Y-92224642D02*
X125843035Y-92224642D01*
X125950178Y-92296071D01*
X126021607Y-92367500D01*
X126057321Y-92438928D01*
X126200178Y-91438928D02*
X126235892Y-91331785D01*
X126271607Y-91296071D01*
X126343035Y-91260357D01*
X126450178Y-91260357D01*
X126521607Y-91296071D01*
X126557321Y-91331785D01*
X126593035Y-91403214D01*
X126593035Y-91688928D01*
X125843035Y-91688928D01*
X125843035Y-91438928D01*
X125878750Y-91367500D01*
X125914464Y-91331785D01*
X125985892Y-91296071D01*
X126057321Y-91296071D01*
X126128750Y-91331785D01*
X126164464Y-91367500D01*
X126200178Y-91438928D01*
X126200178Y-91688928D01*
X125478571Y-119700000D02*
X126978571Y-119200000D01*
X125478571Y-118700000D01*
X126978571Y-118200000D02*
X125478571Y-118200000D01*
X125478571Y-117842857D01*
X125550000Y-117628571D01*
X125692857Y-117485714D01*
X125835714Y-117414285D01*
X126121428Y-117342857D01*
X126335714Y-117342857D01*
X126621428Y-117414285D01*
X126764285Y-117485714D01*
X126907142Y-117628571D01*
X126978571Y-117842857D01*
X126978571Y-118200000D01*
X126978571Y-116700000D02*
X125478571Y-116700000D01*
X125478571Y-116342857D01*
X125550000Y-116128571D01*
X125692857Y-115985714D01*
X125835714Y-115914285D01*
X126121428Y-115842857D01*
X126335714Y-115842857D01*
X126621428Y-115914285D01*
X126764285Y-115985714D01*
X126907142Y-116128571D01*
X126978571Y-116342857D01*
X126978571Y-116700000D01*
X126122380Y-77881904D02*
X126931904Y-77881904D01*
X127027142Y-77834285D01*
X127074761Y-77786666D01*
X127122380Y-77691428D01*
X127122380Y-77500952D01*
X127074761Y-77405714D01*
X127027142Y-77358095D01*
X126931904Y-77310476D01*
X126122380Y-77310476D01*
X126455714Y-76405714D02*
X127122380Y-76405714D01*
X126074761Y-76643809D02*
X126789047Y-76881904D01*
X126789047Y-76262857D01*
X124609285Y-115672142D02*
X125216428Y-115672142D01*
X125287857Y-115636428D01*
X125323571Y-115600714D01*
X125359285Y-115529285D01*
X125359285Y-115386428D01*
X125323571Y-115315000D01*
X125287857Y-115279285D01*
X125216428Y-115243571D01*
X124609285Y-115243571D01*
X124609285Y-114957857D02*
X124609285Y-114493571D01*
X124895000Y-114743571D01*
X124895000Y-114636428D01*
X124930714Y-114565000D01*
X124966428Y-114529285D01*
X125037857Y-114493571D01*
X125216428Y-114493571D01*
X125287857Y-114529285D01*
X125323571Y-114565000D01*
X125359285Y-114636428D01*
X125359285Y-114850714D01*
X125323571Y-114922142D01*
X125287857Y-114957857D01*
X125359285Y-113172142D02*
X125002142Y-113422142D01*
X125359285Y-113600714D02*
X124609285Y-113600714D01*
X124609285Y-113315000D01*
X124645000Y-113243571D01*
X124680714Y-113207857D01*
X124752142Y-113172142D01*
X124859285Y-113172142D01*
X124930714Y-113207857D01*
X124966428Y-113243571D01*
X125002142Y-113315000D01*
X125002142Y-113600714D01*
X125145000Y-112886428D02*
X125145000Y-112529285D01*
X125359285Y-112957857D02*
X124609285Y-112707857D01*
X125359285Y-112457857D01*
X125359285Y-112207857D02*
X124609285Y-112207857D01*
X125145000Y-111957857D01*
X124609285Y-111707857D01*
X125359285Y-111707857D01*
X124807619Y-78790476D02*
X124760000Y-78742857D01*
X124712380Y-78647619D01*
X124712380Y-78409523D01*
X124760000Y-78314285D01*
X124807619Y-78266666D01*
X124902857Y-78219047D01*
X124998095Y-78219047D01*
X125140952Y-78266666D01*
X125712380Y-78838095D01*
X125712380Y-78219047D01*
X124712380Y-77361904D02*
X124712380Y-77552380D01*
X124760000Y-77647619D01*
X124807619Y-77695238D01*
X124950476Y-77790476D01*
X125140952Y-77838095D01*
X125521904Y-77838095D01*
X125617142Y-77790476D01*
X125664761Y-77742857D01*
X125712380Y-77647619D01*
X125712380Y-77457142D01*
X125664761Y-77361904D01*
X125617142Y-77314285D01*
X125521904Y-77266666D01*
X125283809Y-77266666D01*
X125188571Y-77314285D01*
X125140952Y-77361904D01*
X125093333Y-77457142D01*
X125093333Y-77647619D01*
X125140952Y-77742857D01*
X125188571Y-77790476D01*
X125283809Y-77838095D01*
X125426666Y-76885714D02*
X125426666Y-76409523D01*
X125712380Y-76980952D02*
X124712380Y-76647619D01*
X125712380Y-76314285D01*
X138006666Y-72457142D02*
X137959047Y-72504761D01*
X137816190Y-72552380D01*
X137720952Y-72552380D01*
X137578095Y-72504761D01*
X137482857Y-72409523D01*
X137435238Y-72314285D01*
X137387619Y-72123809D01*
X137387619Y-71980952D01*
X137435238Y-71790476D01*
X137482857Y-71695238D01*
X137578095Y-71600000D01*
X137720952Y-71552380D01*
X137816190Y-71552380D01*
X137959047Y-71600000D01*
X138006666Y-71647619D01*
X138911428Y-72552380D02*
X138435238Y-72552380D01*
X138435238Y-71552380D01*
X139244761Y-72552380D02*
X139244761Y-71552380D01*
X128313333Y-72187142D02*
X128265714Y-72234761D01*
X128122857Y-72282380D01*
X128027619Y-72282380D01*
X127884761Y-72234761D01*
X127789523Y-72139523D01*
X127741904Y-72044285D01*
X127694285Y-71853809D01*
X127694285Y-71710952D01*
X127741904Y-71520476D01*
X127789523Y-71425238D01*
X127884761Y-71330000D01*
X128027619Y-71282380D01*
X128122857Y-71282380D01*
X128265714Y-71330000D01*
X128313333Y-71377619D01*
X128694285Y-71377619D02*
X128741904Y-71330000D01*
X128837142Y-71282380D01*
X129075238Y-71282380D01*
X129170476Y-71330000D01*
X129218095Y-71377619D01*
X129265714Y-71472857D01*
X129265714Y-71568095D01*
X129218095Y-71710952D01*
X128646666Y-72282380D01*
X129265714Y-72282380D01*
X147209523Y-72232380D02*
X146638095Y-72232380D01*
X146923809Y-72232380D02*
X146923809Y-71232380D01*
X146828571Y-71375238D01*
X146733333Y-71470476D01*
X146638095Y-71518095D01*
X147828571Y-71232380D02*
X147923809Y-71232380D01*
X148019047Y-71280000D01*
X148066666Y-71327619D01*
X148114285Y-71422857D01*
X148161904Y-71613333D01*
X148161904Y-71851428D01*
X148114285Y-72041904D01*
X148066666Y-72137142D01*
X148019047Y-72184761D01*
X147923809Y-72232380D01*
X147828571Y-72232380D01*
X147733333Y-72184761D01*
X147685714Y-72137142D01*
X147638095Y-72041904D01*
X147590476Y-71851428D01*
X147590476Y-71613333D01*
X147638095Y-71422857D01*
X147685714Y-71327619D01*
X147733333Y-71280000D01*
X147828571Y-71232380D01*
X148590476Y-72232380D02*
X148590476Y-71232380D01*
X149161904Y-72232380D02*
X148733333Y-71660952D01*
X149161904Y-71232380D02*
X148590476Y-71803809D01*
X126988095Y-81902380D02*
X126988095Y-82711904D01*
X127035714Y-82807142D01*
X127083333Y-82854761D01*
X127178571Y-82902380D01*
X127369047Y-82902380D01*
X127464285Y-82854761D01*
X127511904Y-82807142D01*
X127559523Y-82711904D01*
X127559523Y-81902380D01*
X127988095Y-81997619D02*
X128035714Y-81950000D01*
X128130952Y-81902380D01*
X128369047Y-81902380D01*
X128464285Y-81950000D01*
X128511904Y-81997619D01*
X128559523Y-82092857D01*
X128559523Y-82188095D01*
X128511904Y-82330952D01*
X127940476Y-82902380D01*
X128559523Y-82902380D01*
X126185714Y-121502380D02*
X125614285Y-121502380D01*
X125900000Y-121502380D02*
X125900000Y-120502380D01*
X125804761Y-120645238D01*
X125709523Y-120740476D01*
X125614285Y-120788095D01*
X163417142Y-91088571D02*
X162702857Y-91088571D01*
X162631428Y-91802857D01*
X162702857Y-91731428D01*
X162845714Y-91660000D01*
X163202857Y-91660000D01*
X163345714Y-91731428D01*
X163417142Y-91802857D01*
X163488571Y-91945714D01*
X163488571Y-92302857D01*
X163417142Y-92445714D01*
X163345714Y-92517142D01*
X163202857Y-92588571D01*
X162845714Y-92588571D01*
X162702857Y-92517142D01*
X162631428Y-92445714D01*
X125287857Y-107645000D02*
X125323571Y-107680714D01*
X125359285Y-107787857D01*
X125359285Y-107859285D01*
X125323571Y-107966428D01*
X125252142Y-108037857D01*
X125180714Y-108073571D01*
X125037857Y-108109285D01*
X124930714Y-108109285D01*
X124787857Y-108073571D01*
X124716428Y-108037857D01*
X124645000Y-107966428D01*
X124609285Y-107859285D01*
X124609285Y-107787857D01*
X124645000Y-107680714D01*
X124680714Y-107645000D01*
X124609285Y-107395000D02*
X124609285Y-106930714D01*
X124895000Y-107180714D01*
X124895000Y-107073571D01*
X124930714Y-107002142D01*
X124966428Y-106966428D01*
X125037857Y-106930714D01*
X125216428Y-106930714D01*
X125287857Y-106966428D01*
X125323571Y-107002142D01*
X125359285Y-107073571D01*
X125359285Y-107287857D01*
X125323571Y-107359285D01*
X125287857Y-107395000D01*
X172296666Y-114552380D02*
X172915714Y-114552380D01*
X172582380Y-114933333D01*
X172725238Y-114933333D01*
X172820476Y-114980952D01*
X172868095Y-115028571D01*
X172915714Y-115123809D01*
X172915714Y-115361904D01*
X172868095Y-115457142D01*
X172820476Y-115504761D01*
X172725238Y-115552380D01*
X172439523Y-115552380D01*
X172344285Y-115504761D01*
X172296666Y-115457142D01*
D11*
X165080000Y-70233571D02*
X165080000Y-68733571D01*
X165437142Y-68733571D01*
X165651428Y-68805000D01*
X165794285Y-68947857D01*
X165865714Y-69090714D01*
X165937142Y-69376428D01*
X165937142Y-69590714D01*
X165865714Y-69876428D01*
X165794285Y-70019285D01*
X165651428Y-70162142D01*
X165437142Y-70233571D01*
X165080000Y-70233571D01*
X166580000Y-70233571D02*
X166580000Y-68733571D01*
X167080000Y-69805000D01*
X167580000Y-68733571D01*
X167580000Y-70233571D01*
X169080000Y-68805000D02*
X168937142Y-68733571D01*
X168722857Y-68733571D01*
X168508571Y-68805000D01*
X168365714Y-68947857D01*
X168294285Y-69090714D01*
X168222857Y-69376428D01*
X168222857Y-69590714D01*
X168294285Y-69876428D01*
X168365714Y-70019285D01*
X168508571Y-70162142D01*
X168722857Y-70233571D01*
X168865714Y-70233571D01*
X169080000Y-70162142D01*
X169151428Y-70090714D01*
X169151428Y-69590714D01*
X168865714Y-69590714D01*
X163544285Y-72077142D02*
X164687142Y-72077142D01*
X165401428Y-72648571D02*
X165401428Y-71148571D01*
X165758571Y-71148571D01*
X165972857Y-71220000D01*
X166115714Y-71362857D01*
X166187142Y-71505714D01*
X166258571Y-71791428D01*
X166258571Y-72005714D01*
X166187142Y-72291428D01*
X166115714Y-72434285D01*
X165972857Y-72577142D01*
X165758571Y-72648571D01*
X165401428Y-72648571D01*
X166901428Y-71862857D02*
X167401428Y-71862857D01*
X167615714Y-72648571D02*
X166901428Y-72648571D01*
X166901428Y-71148571D01*
X167615714Y-71148571D01*
X169115714Y-72505714D02*
X169044285Y-72577142D01*
X168830000Y-72648571D01*
X168687142Y-72648571D01*
X168472857Y-72577142D01*
X168330000Y-72434285D01*
X168258571Y-72291428D01*
X168187142Y-72005714D01*
X168187142Y-71791428D01*
X168258571Y-71505714D01*
X168330000Y-71362857D01*
X168472857Y-71220000D01*
X168687142Y-71148571D01*
X168830000Y-71148571D01*
X169044285Y-71220000D01*
X169115714Y-71291428D01*
X169758571Y-72648571D02*
X169758571Y-71148571D01*
X170615714Y-72648571D01*
X170615714Y-71148571D01*
X165080000Y-74492142D02*
X166222857Y-74492142D01*
X167222857Y-73563571D02*
X167365714Y-73563571D01*
X167508571Y-73635000D01*
X167580000Y-73706428D01*
X167651428Y-73849285D01*
X167722857Y-74135000D01*
X167722857Y-74492142D01*
X167651428Y-74777857D01*
X167580000Y-74920714D01*
X167508571Y-74992142D01*
X167365714Y-75063571D01*
X167222857Y-75063571D01*
X167080000Y-74992142D01*
X167008571Y-74920714D01*
X166937142Y-74777857D01*
X166865714Y-74492142D01*
X166865714Y-74135000D01*
X166937142Y-73849285D01*
X167008571Y-73706428D01*
X167080000Y-73635000D01*
X167222857Y-73563571D01*
X168294285Y-73706428D02*
X168365714Y-73635000D01*
X168508571Y-73563571D01*
X168865714Y-73563571D01*
X169008571Y-73635000D01*
X169080000Y-73706428D01*
X169151428Y-73849285D01*
X169151428Y-73992142D01*
X169080000Y-74206428D01*
X168222857Y-75063571D01*
X169151428Y-75063571D01*
D10*
X132563333Y-72262380D02*
X131991904Y-72262380D01*
X132277619Y-72262380D02*
X132277619Y-71262380D01*
X132182380Y-71405238D01*
X132087142Y-71500476D01*
X131991904Y-71548095D01*
X133182380Y-71262380D02*
X133277619Y-71262380D01*
X133372857Y-71310000D01*
X133420476Y-71357619D01*
X133468095Y-71452857D01*
X133515714Y-71643333D01*
X133515714Y-71881428D01*
X133468095Y-72071904D01*
X133420476Y-72167142D01*
X133372857Y-72214761D01*
X133277619Y-72262380D01*
X133182380Y-72262380D01*
X133087142Y-72214761D01*
X133039523Y-72167142D01*
X132991904Y-72071904D01*
X132944285Y-71881428D01*
X132944285Y-71643333D01*
X132991904Y-71452857D01*
X133039523Y-71357619D01*
X133087142Y-71310000D01*
X133182380Y-71262380D01*
X133849047Y-71262380D02*
X134468095Y-71262380D01*
X134134761Y-71643333D01*
X134277619Y-71643333D01*
X134372857Y-71690952D01*
X134420476Y-71738571D01*
X134468095Y-71833809D01*
X134468095Y-72071904D01*
X134420476Y-72167142D01*
X134372857Y-72214761D01*
X134277619Y-72262380D01*
X133991904Y-72262380D01*
X133896666Y-72214761D01*
X133849047Y-72167142D01*
X172940000Y-112841904D02*
X172892380Y-112937142D01*
X172892380Y-113080000D01*
X172940000Y-113222857D01*
X173035238Y-113318095D01*
X173130476Y-113365714D01*
X173320952Y-113413333D01*
X173463809Y-113413333D01*
X173654285Y-113365714D01*
X173749523Y-113318095D01*
X173844761Y-113222857D01*
X173892380Y-113080000D01*
X173892380Y-112984761D01*
X173844761Y-112841904D01*
X173797142Y-112794285D01*
X173463809Y-112794285D01*
X173463809Y-112984761D01*
X173892380Y-112365714D02*
X172892380Y-112365714D01*
X173892380Y-111794285D01*
X172892380Y-111794285D01*
X173892380Y-111318095D02*
X172892380Y-111318095D01*
X172892380Y-111080000D01*
X172940000Y-110937142D01*
X173035238Y-110841904D01*
X173130476Y-110794285D01*
X173320952Y-110746666D01*
X173463809Y-110746666D01*
X173654285Y-110794285D01*
X173749523Y-110841904D01*
X173844761Y-110937142D01*
X173892380Y-111080000D01*
X173892380Y-111318095D01*
X160557142Y-95492380D02*
X160557142Y-94492380D01*
X160938095Y-94492380D01*
X161033333Y-94540000D01*
X161080952Y-94587619D01*
X161128571Y-94682857D01*
X161128571Y-94825714D01*
X161080952Y-94920952D01*
X161033333Y-94968571D01*
X160938095Y-95016190D01*
X160557142Y-95016190D01*
X162128571Y-95492380D02*
X161795238Y-95016190D01*
X161557142Y-95492380D02*
X161557142Y-94492380D01*
X161938095Y-94492380D01*
X162033333Y-94540000D01*
X162080952Y-94587619D01*
X162128571Y-94682857D01*
X162128571Y-94825714D01*
X162080952Y-94920952D01*
X162033333Y-94968571D01*
X161938095Y-95016190D01*
X161557142Y-95016190D01*
X163080952Y-94540000D02*
X162985714Y-94492380D01*
X162842857Y-94492380D01*
X162700000Y-94540000D01*
X162604761Y-94635238D01*
X162557142Y-94730476D01*
X162509523Y-94920952D01*
X162509523Y-95063809D01*
X162557142Y-95254285D01*
X162604761Y-95349523D01*
X162700000Y-95444761D01*
X162842857Y-95492380D01*
X162938095Y-95492380D01*
X163080952Y-95444761D01*
X163128571Y-95397142D01*
X163128571Y-95063809D01*
X162938095Y-95063809D01*
X164319047Y-94492380D02*
X164319047Y-95301904D01*
X164366666Y-95397142D01*
X164414285Y-95444761D01*
X164509523Y-95492380D01*
X164700000Y-95492380D01*
X164795238Y-95444761D01*
X164842857Y-95397142D01*
X164890476Y-95301904D01*
X164890476Y-94492380D01*
X165890476Y-95492380D02*
X165319047Y-95492380D01*
X165604761Y-95492380D02*
X165604761Y-94492380D01*
X165509523Y-94635238D01*
X165414285Y-94730476D01*
X165319047Y-94778095D01*
X125359285Y-104040000D02*
X125359285Y-104468571D01*
X125359285Y-104254285D02*
X124609285Y-104254285D01*
X124716428Y-104325714D01*
X124787857Y-104397142D01*
X124823571Y-104468571D01*
X124609285Y-103575714D02*
X124609285Y-103504285D01*
X124645000Y-103432857D01*
X124680714Y-103397142D01*
X124752142Y-103361428D01*
X124895000Y-103325714D01*
X125073571Y-103325714D01*
X125216428Y-103361428D01*
X125287857Y-103397142D01*
X125323571Y-103432857D01*
X125359285Y-103504285D01*
X125359285Y-103575714D01*
X125323571Y-103647142D01*
X125287857Y-103682857D01*
X125216428Y-103718571D01*
X125073571Y-103754285D01*
X124895000Y-103754285D01*
X124752142Y-103718571D01*
X124680714Y-103682857D01*
X124645000Y-103647142D01*
X124609285Y-103575714D01*
X124609285Y-103075714D02*
X124609285Y-102611428D01*
X124895000Y-102861428D01*
X124895000Y-102754285D01*
X124930714Y-102682857D01*
X124966428Y-102647142D01*
X125037857Y-102611428D01*
X125216428Y-102611428D01*
X125287857Y-102647142D01*
X125323571Y-102682857D01*
X125359285Y-102754285D01*
X125359285Y-102968571D01*
X125323571Y-103040000D01*
X125287857Y-103075714D01*
X173817142Y-92916666D02*
X173864761Y-92964285D01*
X173912380Y-93107142D01*
X173912380Y-93202380D01*
X173864761Y-93345238D01*
X173769523Y-93440476D01*
X173674285Y-93488095D01*
X173483809Y-93535714D01*
X173340952Y-93535714D01*
X173150476Y-93488095D01*
X173055238Y-93440476D01*
X172960000Y-93345238D01*
X172912380Y-93202380D01*
X172912380Y-93107142D01*
X172960000Y-92964285D01*
X173007619Y-92916666D01*
X173912380Y-91964285D02*
X173912380Y-92535714D01*
X173912380Y-92250000D02*
X172912380Y-92250000D01*
X173055238Y-92345238D01*
X173150476Y-92440476D01*
X173198095Y-92535714D01*
X151591904Y-71588571D02*
X151734761Y-71636190D01*
X151782380Y-71683809D01*
X151830000Y-71779047D01*
X151830000Y-71921904D01*
X151782380Y-72017142D01*
X151734761Y-72064761D01*
X151639523Y-72112380D01*
X151258571Y-72112380D01*
X151258571Y-71112380D01*
X151591904Y-71112380D01*
X151687142Y-71160000D01*
X151734761Y-71207619D01*
X151782380Y-71302857D01*
X151782380Y-71398095D01*
X151734761Y-71493333D01*
X151687142Y-71540952D01*
X151591904Y-71588571D01*
X151258571Y-71588571D01*
X152687142Y-72112380D02*
X152687142Y-71588571D01*
X152639523Y-71493333D01*
X152544285Y-71445714D01*
X152353809Y-71445714D01*
X152258571Y-71493333D01*
X152687142Y-72064761D02*
X152591904Y-72112380D01*
X152353809Y-72112380D01*
X152258571Y-72064761D01*
X152210952Y-71969523D01*
X152210952Y-71874285D01*
X152258571Y-71779047D01*
X152353809Y-71731428D01*
X152591904Y-71731428D01*
X152687142Y-71683809D01*
X153020476Y-71445714D02*
X153401428Y-71445714D01*
X153163333Y-71112380D02*
X153163333Y-71969523D01*
X153210952Y-72064761D01*
X153306190Y-72112380D01*
X153401428Y-72112380D01*
X153591904Y-71445714D02*
X153972857Y-71445714D01*
X153734761Y-71112380D02*
X153734761Y-71969523D01*
X153782380Y-72064761D01*
X153877619Y-72112380D01*
X153972857Y-72112380D01*
X155639523Y-72017142D02*
X155591904Y-72064761D01*
X155449047Y-72112380D01*
X155353809Y-72112380D01*
X155210952Y-72064761D01*
X155115714Y-71969523D01*
X155068095Y-71874285D01*
X155020476Y-71683809D01*
X155020476Y-71540952D01*
X155068095Y-71350476D01*
X155115714Y-71255238D01*
X155210952Y-71160000D01*
X155353809Y-71112380D01*
X155449047Y-71112380D01*
X155591904Y-71160000D01*
X155639523Y-71207619D01*
X156639523Y-72112380D02*
X156306190Y-71636190D01*
X156068095Y-72112380D02*
X156068095Y-71112380D01*
X156449047Y-71112380D01*
X156544285Y-71160000D01*
X156591904Y-71207619D01*
X156639523Y-71302857D01*
X156639523Y-71445714D01*
X156591904Y-71540952D01*
X156544285Y-71588571D01*
X156449047Y-71636190D01*
X156068095Y-71636190D01*
X157591904Y-72112380D02*
X157020476Y-72112380D01*
X157306190Y-72112380D02*
X157306190Y-71112380D01*
X157210952Y-71255238D01*
X157115714Y-71350476D01*
X157020476Y-71398095D01*
X158449047Y-71112380D02*
X158258571Y-71112380D01*
X158163333Y-71160000D01*
X158115714Y-71207619D01*
X158020476Y-71350476D01*
X157972857Y-71540952D01*
X157972857Y-71921904D01*
X158020476Y-72017142D01*
X158068095Y-72064761D01*
X158163333Y-72112380D01*
X158353809Y-72112380D01*
X158449047Y-72064761D01*
X158496666Y-72017142D01*
X158544285Y-71921904D01*
X158544285Y-71683809D01*
X158496666Y-71588571D01*
X158449047Y-71540952D01*
X158353809Y-71493333D01*
X158163333Y-71493333D01*
X158068095Y-71540952D01*
X158020476Y-71588571D01*
X157972857Y-71683809D01*
X159496666Y-72112380D02*
X158925238Y-72112380D01*
X159210952Y-72112380D02*
X159210952Y-71112380D01*
X159115714Y-71255238D01*
X159020476Y-71350476D01*
X158925238Y-71398095D01*
X160353809Y-71112380D02*
X160163333Y-71112380D01*
X160068095Y-71160000D01*
X160020476Y-71207619D01*
X159925238Y-71350476D01*
X159877619Y-71540952D01*
X159877619Y-71921904D01*
X159925238Y-72017142D01*
X159972857Y-72064761D01*
X160068095Y-72112380D01*
X160258571Y-72112380D01*
X160353809Y-72064761D01*
X160401428Y-72017142D01*
X160449047Y-71921904D01*
X160449047Y-71683809D01*
X160401428Y-71588571D01*
X160353809Y-71540952D01*
X160258571Y-71493333D01*
X160068095Y-71493333D01*
X159972857Y-71540952D01*
X159925238Y-71588571D01*
X159877619Y-71683809D01*
X173872380Y-88166666D02*
X173872380Y-88738095D01*
X173872380Y-88452380D02*
X172872380Y-88452380D01*
X173015238Y-88547619D01*
X173110476Y-88642857D01*
X173158095Y-88738095D01*
X172872380Y-87547619D02*
X172872380Y-87452380D01*
X172920000Y-87357142D01*
X172967619Y-87309523D01*
X173062857Y-87261904D01*
X173253333Y-87214285D01*
X173491428Y-87214285D01*
X173681904Y-87261904D01*
X173777142Y-87309523D01*
X173824761Y-87357142D01*
X173872380Y-87452380D01*
X173872380Y-87547619D01*
X173824761Y-87642857D01*
X173777142Y-87690476D01*
X173681904Y-87738095D01*
X173491428Y-87785714D01*
X173253333Y-87785714D01*
X173062857Y-87738095D01*
X172967619Y-87690476D01*
X172920000Y-87642857D01*
X172872380Y-87547619D01*
X172872380Y-86880952D02*
X172872380Y-86261904D01*
X173253333Y-86595238D01*
X173253333Y-86452380D01*
X173300952Y-86357142D01*
X173348571Y-86309523D01*
X173443809Y-86261904D01*
X173681904Y-86261904D01*
X173777142Y-86309523D01*
X173824761Y-86357142D01*
X173872380Y-86452380D01*
X173872380Y-86738095D01*
X173824761Y-86833333D01*
X173777142Y-86880952D01*
X142693333Y-72262380D02*
X142360000Y-71786190D01*
X142121904Y-72262380D02*
X142121904Y-71262380D01*
X142502857Y-71262380D01*
X142598095Y-71310000D01*
X142645714Y-71357619D01*
X142693333Y-71452857D01*
X142693333Y-71595714D01*
X142645714Y-71690952D01*
X142598095Y-71738571D01*
X142502857Y-71786190D01*
X142121904Y-71786190D01*
X143645714Y-72262380D02*
X143074285Y-72262380D01*
X143360000Y-72262380D02*
X143360000Y-71262380D01*
X143264761Y-71405238D01*
X143169523Y-71500476D01*
X143074285Y-71548095D01*
D11*
X143458571Y-81867142D02*
X144601428Y-81867142D01*
X144030000Y-82438571D02*
X144030000Y-81295714D01*
X172788571Y-79237142D02*
X173931428Y-79237142D01*
G36*
X173418520Y-89826063D02*
G01*
X173874842Y-89826063D01*
X173874842Y-89871695D01*
X172916566Y-89871695D01*
X172916566Y-89826063D01*
X173372888Y-89826063D01*
X173372888Y-89267069D01*
X173418520Y-89267069D01*
X173418520Y-89826063D01*
G37*
G36*
X173874842Y-90202529D02*
G01*
X173418520Y-90202529D01*
X173418520Y-90767226D01*
X173372888Y-90767226D01*
X173372888Y-90202529D01*
X172916566Y-90202529D01*
X172916566Y-90156896D01*
X173874842Y-90156896D01*
X173874842Y-90202529D01*
G37*
D12*
X141826000Y-117543000D02*
X134734000Y-117543000D01*
X134734000Y-117543000D02*
X134734000Y-100725000D01*
X141826000Y-99925000D02*
X141826000Y-117543000D01*
X135534000Y-99925000D02*
X141826000Y-99925000D01*
X134734000Y-100725000D02*
X135534000Y-99925000D01*
G36*
X130573104Y-72264842D02*
G01*
X130527471Y-72264842D01*
X130527471Y-71808520D01*
X129962774Y-71808520D01*
X129962774Y-71762888D01*
X130527471Y-71762888D01*
X130527471Y-71306566D01*
X130573104Y-71306566D01*
X130573104Y-72264842D01*
G37*
G36*
X130903937Y-71762888D02*
G01*
X131462931Y-71762888D01*
X131462931Y-71808520D01*
X130903937Y-71808520D01*
X130903937Y-72264842D01*
X130858305Y-72264842D01*
X130858305Y-71306566D01*
X130903937Y-71306566D01*
X130903937Y-71762888D01*
G37*
X152100000Y-119530000D02*
X150700000Y-119530000D01*
X150700000Y-118130000D02*
X152100000Y-118130000D01*
X150700000Y-119530000D02*
X150700000Y-118130000D01*
X152100000Y-118130000D02*
X152100000Y-119530000D01*
X158648000Y-97090000D02*
X164940000Y-97090000D01*
X164940000Y-97090000D02*
X164940000Y-117820000D01*
X164940000Y-117820000D02*
X157848000Y-117820000D01*
X157848000Y-97890000D02*
X158648000Y-97090000D01*
X157848000Y-117820000D02*
X157848000Y-97890000D01*
G36*
X145416148Y-71317600D02*
G01*
X145436625Y-71329696D01*
X145452116Y-71346915D01*
X145455352Y-71353192D01*
X145461753Y-71366947D01*
X145471012Y-71387477D01*
X145482820Y-71414078D01*
X145496868Y-71446047D01*
X145512848Y-71482678D01*
X145530452Y-71523270D01*
X145549371Y-71567119D01*
X145569296Y-71613520D01*
X145581111Y-71641134D01*
X145601271Y-71688244D01*
X145620432Y-71732878D01*
X145638305Y-71774373D01*
X145654604Y-71812070D01*
X145669042Y-71845307D01*
X145681329Y-71873424D01*
X145691179Y-71895759D01*
X145698305Y-71911653D01*
X145702418Y-71920443D01*
X145703333Y-71922037D01*
X145705173Y-71917981D01*
X145709236Y-71906518D01*
X145715164Y-71888743D01*
X145722596Y-71865755D01*
X145731174Y-71838650D01*
X145740537Y-71808525D01*
X145740788Y-71807711D01*
X145752843Y-71768836D01*
X145762773Y-71737544D01*
X145770944Y-71712889D01*
X145777724Y-71693922D01*
X145783481Y-71679695D01*
X145788582Y-71669262D01*
X145793393Y-71661673D01*
X145798283Y-71655980D01*
X145800343Y-71654022D01*
X145805630Y-71649531D01*
X145811244Y-71645756D01*
X145817964Y-71642632D01*
X145826571Y-71640098D01*
X145837845Y-71638091D01*
X145852566Y-71636548D01*
X145871515Y-71635406D01*
X145895472Y-71634603D01*
X145925217Y-71634076D01*
X145961529Y-71633763D01*
X146005190Y-71633601D01*
X146055555Y-71633528D01*
X146267777Y-71633333D01*
X146267777Y-71783134D01*
X146085688Y-71782208D01*
X145903600Y-71781281D01*
X145899223Y-71795085D01*
X145896987Y-71802203D01*
X145892404Y-71816842D01*
X145885776Y-71838041D01*
X145877404Y-71864834D01*
X145867588Y-71896259D01*
X145856630Y-71931352D01*
X145844831Y-71969149D01*
X145838670Y-71988889D01*
X145823911Y-72035990D01*
X145811394Y-72075334D01*
X145800793Y-72107674D01*
X145791781Y-72133763D01*
X145784032Y-72154355D01*
X145777221Y-72170202D01*
X145771021Y-72182057D01*
X145765106Y-72190674D01*
X145759150Y-72196805D01*
X145752827Y-72201203D01*
X145745810Y-72204622D01*
X145745112Y-72204916D01*
X145720230Y-72211108D01*
X145696202Y-72209241D01*
X145674630Y-72199710D01*
X145657432Y-72183338D01*
X145653876Y-72176858D01*
X145647169Y-72162906D01*
X145637626Y-72142193D01*
X145625562Y-72115433D01*
X145611294Y-72083338D01*
X145595138Y-72046620D01*
X145577408Y-72005991D01*
X145558421Y-71962163D01*
X145538493Y-71915850D01*
X145528027Y-71891405D01*
X145507851Y-71844236D01*
X145488590Y-71799275D01*
X145470545Y-71757221D01*
X145454019Y-71718773D01*
X145439312Y-71684633D01*
X145426726Y-71655499D01*
X145416563Y-71632071D01*
X145409124Y-71615049D01*
X145404711Y-71605132D01*
X145403702Y-71602995D01*
X145397977Y-71592068D01*
X145393509Y-71604923D01*
X145391307Y-71611274D01*
X145386454Y-71625284D01*
X145379207Y-71646210D01*
X145369822Y-71673313D01*
X145358556Y-71705849D01*
X145345666Y-71743079D01*
X145331408Y-71784261D01*
X145316040Y-71828652D01*
X145299817Y-71875512D01*
X145294417Y-71891111D01*
X145275354Y-71945915D01*
X145257667Y-71996237D01*
X145241546Y-72041564D01*
X145227179Y-72081380D01*
X145214753Y-72115172D01*
X145204458Y-72142426D01*
X145196482Y-72162628D01*
X145191012Y-72175265D01*
X145188826Y-72179267D01*
X145170497Y-72197713D01*
X145149252Y-72208484D01*
X145126457Y-72211292D01*
X145103475Y-72205850D01*
X145091880Y-72199650D01*
X145079510Y-72190022D01*
X145069645Y-72179597D01*
X145067429Y-72176316D01*
X145064771Y-72170187D01*
X145059344Y-72156429D01*
X145051419Y-72135765D01*
X145041267Y-72108919D01*
X145029159Y-72076616D01*
X145015366Y-72039578D01*
X145000158Y-71998531D01*
X144983807Y-71954196D01*
X144966583Y-71907299D01*
X144958660Y-71885663D01*
X144941280Y-71838248D01*
X144924770Y-71793372D01*
X144909383Y-71751718D01*
X144895376Y-71713973D01*
X144883006Y-71680820D01*
X144872527Y-71652944D01*
X144864195Y-71631030D01*
X144858267Y-71615762D01*
X144854998Y-71607824D01*
X144854444Y-71606818D01*
X144852616Y-71610882D01*
X144848070Y-71622640D01*
X144841055Y-71641408D01*
X144831820Y-71666500D01*
X144820614Y-71697233D01*
X144807687Y-71732921D01*
X144793287Y-71772879D01*
X144777664Y-71816423D01*
X144761067Y-71862868D01*
X144752222Y-71887693D01*
X144735028Y-71935825D01*
X144718503Y-71981751D01*
X144702918Y-72024741D01*
X144688544Y-72064063D01*
X144675649Y-72098989D01*
X144664505Y-72128789D01*
X144655382Y-72152732D01*
X144648549Y-72170089D01*
X144644277Y-72180129D01*
X144643244Y-72182094D01*
X144628142Y-72197343D01*
X144608246Y-72207192D01*
X144586097Y-72211135D01*
X144564238Y-72208665D01*
X144547732Y-72201111D01*
X144535716Y-72191479D01*
X144525759Y-72181146D01*
X144524883Y-72180000D01*
X144521578Y-72173669D01*
X144515360Y-72159961D01*
X144506599Y-72139759D01*
X144495667Y-72113947D01*
X144482936Y-72083406D01*
X144468776Y-72049020D01*
X144453558Y-72011672D01*
X144440771Y-71980000D01*
X144425073Y-71941182D01*
X144410210Y-71904846D01*
X144396540Y-71871839D01*
X144384420Y-71843004D01*
X144374208Y-71819189D01*
X144366263Y-71801237D01*
X144360943Y-71789995D01*
X144358769Y-71786360D01*
X144352855Y-71785005D01*
X144338814Y-71783921D01*
X144316509Y-71783104D01*
X144285800Y-71782551D01*
X144246550Y-71782259D01*
X144198619Y-71782225D01*
X144172473Y-71782300D01*
X143992222Y-71782991D01*
X143992222Y-71633015D01*
X144211111Y-71634285D01*
X144260921Y-71634586D01*
X144302627Y-71634883D01*
X144337013Y-71635211D01*
X144364865Y-71635605D01*
X144386967Y-71636100D01*
X144404104Y-71636731D01*
X144417060Y-71637532D01*
X144426621Y-71638538D01*
X144433570Y-71639784D01*
X144438692Y-71641305D01*
X144442773Y-71643136D01*
X144445540Y-71644685D01*
X144458590Y-71654623D01*
X144469739Y-71666715D01*
X144470628Y-71667982D01*
X144474727Y-71675722D01*
X144481553Y-71690535D01*
X144490591Y-71711216D01*
X144501324Y-71736562D01*
X144513236Y-71765367D01*
X144525812Y-71796428D01*
X144527670Y-71801075D01*
X144539954Y-71831673D01*
X144551284Y-71859590D01*
X144561214Y-71883755D01*
X144569302Y-71903095D01*
X144575101Y-71916541D01*
X144578169Y-71923022D01*
X144578427Y-71923400D01*
X144580427Y-71919907D01*
X144585139Y-71908702D01*
X144592313Y-71890457D01*
X144601698Y-71865841D01*
X144613046Y-71835524D01*
X144626105Y-71800178D01*
X144640628Y-71760471D01*
X144656363Y-71717075D01*
X144673060Y-71670659D01*
X144683176Y-71642371D01*
X144700498Y-71593959D01*
X144717122Y-71547758D01*
X144732782Y-71504492D01*
X144747211Y-71464883D01*
X144760144Y-71429657D01*
X144771313Y-71399536D01*
X144780453Y-71375244D01*
X144787298Y-71357504D01*
X144791581Y-71347041D01*
X144792712Y-71344706D01*
X144805706Y-71330782D01*
X144824382Y-71320071D01*
X144845699Y-71314085D01*
X144855832Y-71313333D01*
X144878194Y-71317583D01*
X144898770Y-71329566D01*
X144912896Y-71344445D01*
X144915790Y-71350437D01*
X144921446Y-71364065D01*
X144929590Y-71384607D01*
X144939949Y-71411345D01*
X144952248Y-71443558D01*
X144966214Y-71480528D01*
X144981571Y-71521533D01*
X144998047Y-71565855D01*
X145015368Y-71612774D01*
X145023735Y-71635556D01*
X145041179Y-71683096D01*
X145057720Y-71728127D01*
X145073106Y-71769964D01*
X145087083Y-71807920D01*
X145099398Y-71841310D01*
X145109800Y-71869448D01*
X145118033Y-71891649D01*
X145123846Y-71907225D01*
X145126984Y-71915492D01*
X145127475Y-71916674D01*
X145129106Y-71912861D01*
X145133335Y-71901506D01*
X145139854Y-71883470D01*
X145148358Y-71859612D01*
X145158542Y-71830791D01*
X145170100Y-71797869D01*
X145182726Y-71761704D01*
X145189884Y-71741118D01*
X145213091Y-71674313D01*
X145233573Y-71615408D01*
X145251510Y-71563900D01*
X145267079Y-71519289D01*
X145280460Y-71481071D01*
X145291832Y-71448747D01*
X145301374Y-71421813D01*
X145309264Y-71399768D01*
X145315680Y-71382110D01*
X145320803Y-71368338D01*
X145324810Y-71357950D01*
X145327881Y-71350443D01*
X145330193Y-71345317D01*
X145331927Y-71342069D01*
X145332283Y-71341504D01*
X145344255Y-71329767D01*
X145361820Y-71320239D01*
X145381711Y-71314420D01*
X145393610Y-71313333D01*
X145416148Y-71317600D01*
G37*
X144030000Y-94312000D02*
X129600000Y-94312000D01*
X128800000Y-93512000D02*
X128800000Y-87220000D01*
X129600000Y-94312000D02*
X128800000Y-93512000D01*
X144030000Y-87220000D02*
X144030000Y-94312000D01*
X128800000Y-87220000D02*
X144030000Y-87220000D01*
G36*
X125135962Y-70157473D02*
G01*
X125106798Y-70105499D01*
X125082102Y-70051376D01*
X125061814Y-69994974D01*
X125045876Y-69936165D01*
X125034461Y-69876340D01*
X125031975Y-69856149D01*
X125030036Y-69832181D01*
X125028666Y-69805632D01*
X125027887Y-69777698D01*
X125027812Y-69765091D01*
X125223129Y-69765091D01*
X125225227Y-69808281D01*
X125230071Y-69850218D01*
X125237582Y-69889642D01*
X125241476Y-69905014D01*
X125245235Y-69918110D01*
X125249322Y-69931334D01*
X125253452Y-69943873D01*
X125257337Y-69954913D01*
X125260690Y-69963641D01*
X125263224Y-69969243D01*
X125264653Y-69970905D01*
X125264694Y-69970866D01*
X125266270Y-69967787D01*
X125269165Y-69961097D01*
X125272929Y-69951866D01*
X125276108Y-69943768D01*
X125289274Y-69912969D01*
X125305588Y-69880146D01*
X125324360Y-69846481D01*
X125344900Y-69813158D01*
X125366518Y-69781356D01*
X125386336Y-69755000D01*
X125395982Y-69743559D01*
X125408632Y-69729633D01*
X125423499Y-69713998D01*
X125439798Y-69697434D01*
X125456744Y-69680717D01*
X125473552Y-69664626D01*
X125489436Y-69649939D01*
X125503610Y-69637433D01*
X125512408Y-69630142D01*
X125562278Y-69593372D01*
X125613716Y-69561343D01*
X125666809Y-69534020D01*
X125721644Y-69511368D01*
X125778308Y-69493352D01*
X125836889Y-69479936D01*
X125897472Y-69471085D01*
X125909630Y-69469879D01*
X125930314Y-69468521D01*
X125954386Y-69467831D01*
X125980580Y-69467776D01*
X126007626Y-69468321D01*
X126034258Y-69469433D01*
X126059207Y-69471078D01*
X126081205Y-69473223D01*
X126092475Y-69474738D01*
X126143706Y-69484457D01*
X126194847Y-69497757D01*
X126244337Y-69514188D01*
X126280608Y-69528811D01*
X126290537Y-69533069D01*
X126298517Y-69536318D01*
X126303613Y-69538188D01*
X126304986Y-69538443D01*
X126303839Y-69535257D01*
X126300703Y-69528575D01*
X126296035Y-69519262D01*
X126290293Y-69508183D01*
X126283932Y-69496202D01*
X126277411Y-69484186D01*
X126271186Y-69472998D01*
X126265715Y-69463504D01*
X126263074Y-69459126D01*
X126234678Y-69417640D01*
X126202384Y-69378445D01*
X126166729Y-69342032D01*
X126128252Y-69308895D01*
X126087489Y-69279528D01*
X126044980Y-69254424D01*
X126033709Y-69248657D01*
X125992716Y-69230485D01*
X125951162Y-69216449D01*
X125908326Y-69206387D01*
X125863488Y-69200138D01*
X125815925Y-69197542D01*
X125804168Y-69197445D01*
X125747567Y-69199678D01*
X125693156Y-69206398D01*
X125640860Y-69217637D01*
X125590600Y-69233425D01*
X125542299Y-69253793D01*
X125495878Y-69278772D01*
X125451262Y-69308394D01*
X125408371Y-69342689D01*
X125382756Y-69366175D01*
X125348197Y-69402901D01*
X125317568Y-69442616D01*
X125290998Y-69485061D01*
X125268616Y-69529976D01*
X125250548Y-69577103D01*
X125236923Y-69626183D01*
X125227869Y-69676957D01*
X125227482Y-69679992D01*
X125223854Y-69721908D01*
X125223129Y-69765091D01*
X125027812Y-69765091D01*
X125027719Y-69749576D01*
X125028184Y-69722462D01*
X125029302Y-69697551D01*
X125030939Y-69677492D01*
X125039774Y-69616228D01*
X125053134Y-69557074D01*
X125071050Y-69499949D01*
X125093557Y-69444773D01*
X125120689Y-69391468D01*
X125152479Y-69339952D01*
X125188961Y-69290146D01*
X125200099Y-69276401D01*
X125219073Y-69253484D01*
X125220595Y-69217339D01*
X125225358Y-69163416D01*
X125235054Y-69110050D01*
X125245388Y-69072702D01*
X125457402Y-69072702D01*
X125459527Y-69072401D01*
X125465316Y-69070349D01*
X125473887Y-69066884D01*
X125484363Y-69062345D01*
X125484546Y-69062263D01*
X125534644Y-69042416D01*
X125587679Y-69026153D01*
X125642988Y-69013589D01*
X125699905Y-69004841D01*
X125757765Y-69000024D01*
X125815904Y-68999255D01*
X125840412Y-69000176D01*
X125898567Y-69005748D01*
X125956021Y-69016227D01*
X126012624Y-69031550D01*
X126068227Y-69051654D01*
X126122678Y-69076475D01*
X126175829Y-69105951D01*
X126227528Y-69140019D01*
X126277627Y-69178615D01*
X126290414Y-69189421D01*
X126334337Y-69230514D01*
X126374803Y-69275108D01*
X126411594Y-69322892D01*
X126444487Y-69373554D01*
X126473262Y-69426781D01*
X126497646Y-69482129D01*
X126505863Y-69503037D01*
X126510656Y-69490880D01*
X126513312Y-69483477D01*
X126516811Y-69472796D01*
X126520662Y-69460377D01*
X126523738Y-69449970D01*
X126529857Y-69427605D01*
X126534645Y-69407155D01*
X126538246Y-69387479D01*
X126540805Y-69367435D01*
X126542467Y-69345883D01*
X126543375Y-69321680D01*
X126543674Y-69293685D01*
X126543676Y-69292454D01*
X126543598Y-69269524D01*
X126543295Y-69250722D01*
X126542726Y-69235181D01*
X126541850Y-69222032D01*
X126540624Y-69210408D01*
X126539295Y-69201195D01*
X126528845Y-69149874D01*
X126514394Y-69101323D01*
X126495738Y-69055057D01*
X126472672Y-69010590D01*
X126444989Y-68967436D01*
X126434223Y-68952621D01*
X126423301Y-68939044D01*
X126409389Y-68923284D01*
X126393414Y-68906267D01*
X126376302Y-68888919D01*
X126358979Y-68872166D01*
X126342371Y-68856936D01*
X126327406Y-68844154D01*
X126319787Y-68838185D01*
X126275853Y-68808208D01*
X126230418Y-68782988D01*
X126183339Y-68762469D01*
X126134476Y-68746594D01*
X126083685Y-68735309D01*
X126043002Y-68729695D01*
X126027498Y-68728578D01*
X126008463Y-68727963D01*
X125987100Y-68727823D01*
X125964613Y-68728128D01*
X125942206Y-68728850D01*
X125921082Y-68729960D01*
X125902444Y-68731431D01*
X125887498Y-68733234D01*
X125886488Y-68733393D01*
X125834677Y-68744181D01*
X125784993Y-68759495D01*
X125737443Y-68779331D01*
X125692034Y-68803684D01*
X125648774Y-68832552D01*
X125607670Y-68865929D01*
X125582292Y-68889862D01*
X125552610Y-68921274D01*
X125526847Y-68952596D01*
X125504100Y-68985068D01*
X125483467Y-69019927D01*
X125473051Y-69039852D01*
X125467393Y-69051239D01*
X125462646Y-69061009D01*
X125459217Y-69068306D01*
X125457516Y-69072275D01*
X125457402Y-69072702D01*
X125245388Y-69072702D01*
X125249639Y-69057336D01*
X125269067Y-69005367D01*
X125293292Y-68954236D01*
X125322269Y-68904036D01*
X125355954Y-68854862D01*
X125394301Y-68806805D01*
X125437263Y-68759961D01*
X125447256Y-68749901D01*
X125494000Y-68706511D01*
X125542005Y-68667893D01*
X125591237Y-68634066D01*
X125641664Y-68605049D01*
X125693252Y-68580860D01*
X125710169Y-68574653D01*
X126239095Y-68574653D01*
X126239134Y-68574694D01*
X126242214Y-68576270D01*
X126248903Y-68579165D01*
X126258135Y-68582929D01*
X126266232Y-68586108D01*
X126296937Y-68599232D01*
X126329659Y-68615486D01*
X126363200Y-68634172D01*
X126396363Y-68654590D01*
X126427950Y-68676040D01*
X126455001Y-68696412D01*
X126466819Y-68706400D01*
X126481095Y-68719375D01*
X126497030Y-68734530D01*
X126513822Y-68751059D01*
X126530673Y-68768156D01*
X126546784Y-68785012D01*
X126561355Y-68800821D01*
X126573585Y-68814776D01*
X126579852Y-68822408D01*
X126615642Y-68870907D01*
X126646652Y-68920034D01*
X126673100Y-68970291D01*
X126695206Y-69022175D01*
X126713189Y-69076186D01*
X126727267Y-69132824D01*
X126735413Y-69177443D01*
X126737089Y-69188678D01*
X126738404Y-69199050D01*
X126739401Y-69209396D01*
X126740121Y-69220555D01*
X126740608Y-69233365D01*
X126740904Y-69248665D01*
X126741050Y-69267292D01*
X126741089Y-69289954D01*
X126741047Y-69312833D01*
X126740895Y-69331541D01*
X126740591Y-69346908D01*
X126740095Y-69359763D01*
X126739365Y-69370936D01*
X126738361Y-69381256D01*
X126737041Y-69391552D01*
X126735592Y-69401215D01*
X126725575Y-69453555D01*
X126712224Y-69504915D01*
X126695893Y-69554064D01*
X126681078Y-69590608D01*
X126676795Y-69600529D01*
X126673542Y-69608506D01*
X126671686Y-69613605D01*
X126671457Y-69614986D01*
X126674003Y-69613928D01*
X126680117Y-69611043D01*
X126688905Y-69606760D01*
X126699475Y-69601510D01*
X126700386Y-69601053D01*
X126744977Y-69576559D01*
X126785642Y-69549676D01*
X126823086Y-69519907D01*
X126847692Y-69497150D01*
X126884616Y-69457916D01*
X126916753Y-69417381D01*
X126944180Y-69375388D01*
X126966977Y-69331783D01*
X126985223Y-69286409D01*
X126998998Y-69239110D01*
X127008379Y-69189731D01*
X127009991Y-69177508D01*
X127011333Y-69161967D01*
X127012150Y-69142783D01*
X127012455Y-69121285D01*
X127012258Y-69098802D01*
X127011570Y-69076664D01*
X127010401Y-69056200D01*
X127008868Y-69039624D01*
X127000445Y-68986076D01*
X126987956Y-68935261D01*
X126971251Y-68886807D01*
X126950184Y-68840341D01*
X126924606Y-68795492D01*
X126894758Y-68752401D01*
X126860315Y-68710524D01*
X126823575Y-68673086D01*
X126784523Y-68640077D01*
X126743139Y-68611486D01*
X126699409Y-68587301D01*
X126653313Y-68567512D01*
X126604836Y-68552107D01*
X126574643Y-68544973D01*
X126530018Y-68537673D01*
X126483776Y-68533773D01*
X126437000Y-68533249D01*
X126390773Y-68536073D01*
X126346181Y-68542220D01*
X126304986Y-68551476D01*
X126291890Y-68555235D01*
X126278666Y-68559322D01*
X126266127Y-68563452D01*
X126255087Y-68567337D01*
X126246359Y-68570690D01*
X126240757Y-68573224D01*
X126239095Y-68574653D01*
X125710169Y-68574653D01*
X125745970Y-68561517D01*
X125799783Y-68547040D01*
X125810051Y-68544857D01*
X125828134Y-68541560D01*
X125848307Y-68538528D01*
X125869114Y-68535928D01*
X125889098Y-68533928D01*
X125906802Y-68532698D01*
X125918193Y-68532379D01*
X125937722Y-68532379D01*
X125954513Y-68517927D01*
X126002574Y-68479652D01*
X126052527Y-68445962D01*
X126104501Y-68416798D01*
X126158625Y-68392102D01*
X126215026Y-68371814D01*
X126273835Y-68355876D01*
X126333660Y-68344461D01*
X126353852Y-68341975D01*
X126377820Y-68340036D01*
X126404369Y-68338666D01*
X126432302Y-68337887D01*
X126460424Y-68337719D01*
X126487538Y-68338184D01*
X126512449Y-68339302D01*
X126532508Y-68340939D01*
X126593886Y-68349811D01*
X126653230Y-68363250D01*
X126710562Y-68381267D01*
X126765905Y-68403870D01*
X126819282Y-68431069D01*
X126870713Y-68462874D01*
X126920221Y-68499292D01*
X126933498Y-68510114D01*
X126956300Y-68529103D01*
X126992554Y-68530610D01*
X127046543Y-68535346D01*
X127099938Y-68545016D01*
X127152656Y-68559583D01*
X127204616Y-68579006D01*
X127255739Y-68603247D01*
X127305942Y-68632267D01*
X127355145Y-68666026D01*
X127403267Y-68704485D01*
X127450227Y-68747606D01*
X127457837Y-68755146D01*
X127501643Y-68802017D01*
X127540586Y-68850050D01*
X127574666Y-68899245D01*
X127603884Y-68949602D01*
X127628238Y-69001118D01*
X127647728Y-69053795D01*
X127662355Y-69107632D01*
X127672118Y-69162628D01*
X127676886Y-69215928D01*
X127678453Y-69248688D01*
X127692489Y-69264996D01*
X127728387Y-69310167D01*
X127760831Y-69358091D01*
X127789529Y-69408197D01*
X127814190Y-69459915D01*
X127834523Y-69512675D01*
X127850237Y-69565907D01*
X127853845Y-69581154D01*
X127863241Y-69631898D01*
X127869459Y-69685052D01*
X127872458Y-69739337D01*
X127872198Y-69793474D01*
X127868636Y-69846184D01*
X127863616Y-69885012D01*
X127851637Y-69944672D01*
X127834974Y-70002604D01*
X127813664Y-70058725D01*
X127787745Y-70112953D01*
X127757255Y-70165204D01*
X127722232Y-70215397D01*
X127699886Y-70243498D01*
X127680897Y-70266300D01*
X127679354Y-70302554D01*
X127674559Y-70356627D01*
X127664821Y-70410154D01*
X127650181Y-70463038D01*
X127630676Y-70515181D01*
X127606345Y-70566487D01*
X127577226Y-70616860D01*
X127543359Y-70666201D01*
X127525287Y-70689666D01*
X127484575Y-70737348D01*
X127441468Y-70781485D01*
X127396255Y-70821869D01*
X127349226Y-70858287D01*
X127300671Y-70890529D01*
X127250879Y-70918385D01*
X127200140Y-70941642D01*
X127157570Y-70957286D01*
X127106045Y-70971553D01*
X127052658Y-70981393D01*
X126998091Y-70986681D01*
X126994073Y-70986886D01*
X126961312Y-70988453D01*
X126945004Y-71002489D01*
X126896986Y-71040682D01*
X126846918Y-71074346D01*
X126794716Y-71103519D01*
X126740293Y-71128242D01*
X126683565Y-71148553D01*
X126624444Y-71164491D01*
X126566340Y-71175563D01*
X126552489Y-71177240D01*
X126534657Y-71178698D01*
X126513857Y-71179912D01*
X126491107Y-71180859D01*
X126467419Y-71181515D01*
X126443810Y-71181858D01*
X126421295Y-71181864D01*
X126400889Y-71181510D01*
X126383606Y-71180772D01*
X126373743Y-71179997D01*
X126311846Y-71171357D01*
X126252094Y-71158202D01*
X126194445Y-71140515D01*
X126138859Y-71118280D01*
X126085296Y-71091478D01*
X126033714Y-71060094D01*
X125984074Y-71024110D01*
X125966502Y-71009886D01*
X125943700Y-70990897D01*
X125907447Y-70989390D01*
X125853457Y-70984655D01*
X125800063Y-70974984D01*
X125747345Y-70960417D01*
X125695384Y-70940994D01*
X125644261Y-70916753D01*
X125594058Y-70887734D01*
X125544855Y-70853974D01*
X125496733Y-70815515D01*
X125449774Y-70772394D01*
X125442163Y-70764854D01*
X125398492Y-70718115D01*
X125359612Y-70670144D01*
X125325538Y-70620967D01*
X125296285Y-70570612D01*
X125271868Y-70519105D01*
X125252303Y-70466472D01*
X125237605Y-70412742D01*
X125234857Y-70399950D01*
X125231560Y-70381867D01*
X125228528Y-70361693D01*
X125225928Y-70340886D01*
X125223928Y-70320902D01*
X125222698Y-70303198D01*
X125222379Y-70291807D01*
X125222379Y-70272279D01*
X125207927Y-70255487D01*
X125195956Y-70240455D01*
X125417951Y-70240455D01*
X125418095Y-70247007D01*
X125419647Y-70282258D01*
X125422557Y-70314021D01*
X125427054Y-70343679D01*
X125433369Y-70372613D01*
X125441733Y-70402209D01*
X125446295Y-70416315D01*
X125463786Y-70460955D01*
X125485889Y-70504528D01*
X125512257Y-70546594D01*
X125542540Y-70586711D01*
X125576391Y-70624442D01*
X125613462Y-70659344D01*
X125653403Y-70690979D01*
X125676174Y-70706635D01*
X125684156Y-70711573D01*
X125694527Y-70717601D01*
X125706440Y-70724269D01*
X125719048Y-70731128D01*
X125731503Y-70737728D01*
X125742959Y-70743621D01*
X125752568Y-70748357D01*
X125759483Y-70751487D01*
X125762779Y-70752564D01*
X125762448Y-70750452D01*
X125760372Y-70744675D01*
X125756890Y-70736110D01*
X125752345Y-70725637D01*
X125752263Y-70725454D01*
X125732105Y-70674561D01*
X125715728Y-70621065D01*
X125703191Y-70565635D01*
X125694550Y-70508940D01*
X125689866Y-70451651D01*
X125689329Y-70405832D01*
X125887445Y-70405832D01*
X125889693Y-70462451D01*
X125896453Y-70516925D01*
X125907748Y-70569312D01*
X125923601Y-70619671D01*
X125944035Y-70668062D01*
X125969075Y-70714543D01*
X125998742Y-70759173D01*
X126033060Y-70802011D01*
X126052166Y-70822982D01*
X126088707Y-70858029D01*
X126127930Y-70889113D01*
X126169514Y-70916028D01*
X126213135Y-70938567D01*
X126258470Y-70956525D01*
X126264982Y-70958677D01*
X126287036Y-70965430D01*
X126307915Y-70970983D01*
X126328836Y-70975572D01*
X126351016Y-70979436D01*
X126375675Y-70982810D01*
X126404028Y-70985931D01*
X126406246Y-70986153D01*
X126415809Y-70986669D01*
X126429215Y-70986806D01*
X126445326Y-70986606D01*
X126463002Y-70986112D01*
X126481104Y-70985367D01*
X126498493Y-70984415D01*
X126514030Y-70983298D01*
X126526575Y-70982059D01*
X126531258Y-70981426D01*
X126545425Y-70978963D01*
X126561076Y-70975780D01*
X126577552Y-70972061D01*
X126594197Y-70967988D01*
X126610351Y-70963745D01*
X126625358Y-70959515D01*
X126638560Y-70955481D01*
X126649299Y-70951827D01*
X126656918Y-70948735D01*
X126660758Y-70946390D01*
X126660866Y-70945307D01*
X126657787Y-70943729D01*
X126651099Y-70940831D01*
X126641869Y-70937062D01*
X126633768Y-70933876D01*
X126584352Y-70912202D01*
X126535774Y-70885893D01*
X126488456Y-70855297D01*
X126442818Y-70820762D01*
X126399281Y-70782636D01*
X126358266Y-70741267D01*
X126320192Y-70697004D01*
X126285481Y-70650193D01*
X126278668Y-70640087D01*
X126247649Y-70589288D01*
X126221386Y-70537568D01*
X126199746Y-70484543D01*
X126182594Y-70429830D01*
X126169795Y-70373045D01*
X126161216Y-70313803D01*
X126159879Y-70300370D01*
X126158521Y-70279686D01*
X126157831Y-70255614D01*
X126157776Y-70229420D01*
X126157814Y-70227546D01*
X126356325Y-70227546D01*
X126356470Y-70253556D01*
X126357031Y-70275676D01*
X126358128Y-70295012D01*
X126359882Y-70312664D01*
X126362413Y-70329737D01*
X126365841Y-70347334D01*
X126370287Y-70366557D01*
X126372435Y-70375175D01*
X126386893Y-70422684D01*
X126405838Y-70468536D01*
X126429414Y-70513023D01*
X126457762Y-70556437D01*
X126465778Y-70567379D01*
X126476700Y-70580956D01*
X126490611Y-70596716D01*
X126506586Y-70613734D01*
X126523699Y-70631082D01*
X126541022Y-70647834D01*
X126557629Y-70663064D01*
X126572595Y-70675846D01*
X126580213Y-70681815D01*
X126624079Y-70711659D01*
X126669883Y-70736997D01*
X126717405Y-70757740D01*
X126766426Y-70773800D01*
X126816726Y-70785088D01*
X126848789Y-70789690D01*
X126864650Y-70790991D01*
X126884148Y-70791830D01*
X126905941Y-70792216D01*
X126928689Y-70792158D01*
X126951049Y-70791663D01*
X126971680Y-70790739D01*
X126989242Y-70789397D01*
X126994888Y-70788772D01*
X127046908Y-70779972D01*
X127096733Y-70766708D01*
X127144437Y-70748944D01*
X127190092Y-70726642D01*
X127233773Y-70699768D01*
X127275552Y-70668284D01*
X127315503Y-70632154D01*
X127318849Y-70628836D01*
X127351781Y-70593522D01*
X127380353Y-70557560D01*
X127405198Y-70520070D01*
X127426952Y-70480170D01*
X127429073Y-70475824D01*
X127434226Y-70465074D01*
X127438474Y-70456051D01*
X127441402Y-70449653D01*
X127442590Y-70446777D01*
X127442598Y-70446725D01*
X127440470Y-70447246D01*
X127434676Y-70449477D01*
X127426103Y-70453059D01*
X127415720Y-70457599D01*
X127364611Y-70477809D01*
X127310672Y-70494270D01*
X127254493Y-70506879D01*
X127196668Y-70515532D01*
X127137788Y-70520125D01*
X127078445Y-70520557D01*
X127059339Y-70519793D01*
X127001647Y-70514322D01*
X126944539Y-70503940D01*
X126888187Y-70488720D01*
X126832766Y-70468736D01*
X126778450Y-70444060D01*
X126725410Y-70414766D01*
X126673822Y-70380925D01*
X126623857Y-70342612D01*
X126609586Y-70330580D01*
X126565571Y-70289406D01*
X126525057Y-70244761D01*
X126488250Y-70196937D01*
X126455356Y-70146226D01*
X126426581Y-70092918D01*
X126402354Y-70037871D01*
X126394137Y-70016963D01*
X126389344Y-70029121D01*
X126384192Y-70043650D01*
X126378681Y-70061699D01*
X126373192Y-70081840D01*
X126368103Y-70102645D01*
X126363795Y-70122688D01*
X126362175Y-70131287D01*
X126360308Y-70142332D01*
X126358881Y-70152487D01*
X126357837Y-70162701D01*
X126357117Y-70173928D01*
X126356665Y-70187117D01*
X126356422Y-70203221D01*
X126356330Y-70223191D01*
X126356325Y-70227546D01*
X126157814Y-70227546D01*
X126158321Y-70202374D01*
X126159433Y-70175742D01*
X126161078Y-70150793D01*
X126163223Y-70128795D01*
X126164738Y-70117526D01*
X126174457Y-70066294D01*
X126187757Y-70015153D01*
X126198841Y-69981767D01*
X126595014Y-69981767D01*
X126596166Y-69984990D01*
X126599317Y-69991706D01*
X126604010Y-70001053D01*
X126609788Y-70012168D01*
X126616194Y-70024189D01*
X126622772Y-70036252D01*
X126629064Y-70047496D01*
X126634613Y-70057058D01*
X126636907Y-70060845D01*
X126664959Y-70101778D01*
X126697184Y-70140911D01*
X126732873Y-70177519D01*
X126771317Y-70210880D01*
X126811806Y-70240271D01*
X126815036Y-70242380D01*
X126857115Y-70266706D01*
X126901830Y-70287007D01*
X126948573Y-70303063D01*
X126996735Y-70314653D01*
X127028807Y-70319725D01*
X127042300Y-70320927D01*
X127059556Y-70321725D01*
X127079356Y-70322126D01*
X127100481Y-70322137D01*
X127121711Y-70321765D01*
X127141825Y-70321019D01*
X127159606Y-70319905D01*
X127170376Y-70318868D01*
X127223838Y-70310465D01*
X127274558Y-70298013D01*
X127322935Y-70281353D01*
X127369366Y-70260326D01*
X127414250Y-70234775D01*
X127457599Y-70204831D01*
X127499299Y-70170578D01*
X127536676Y-70133849D01*
X127569705Y-70094686D01*
X127598361Y-70053129D01*
X127622621Y-70009219D01*
X127642461Y-69962997D01*
X127657855Y-69914503D01*
X127668780Y-69863778D01*
X127671224Y-69847830D01*
X127675673Y-69803211D01*
X127676874Y-69757667D01*
X127674891Y-69712349D01*
X127669786Y-69668401D01*
X127661621Y-69626973D01*
X127658524Y-69614986D01*
X127654766Y-69601890D01*
X127650678Y-69588666D01*
X127646548Y-69576127D01*
X127642664Y-69565087D01*
X127639311Y-69556359D01*
X127636776Y-69550757D01*
X127635348Y-69549095D01*
X127635307Y-69549134D01*
X127633729Y-69552213D01*
X127630831Y-69558901D01*
X127627062Y-69568131D01*
X127623876Y-69576232D01*
X127602253Y-69625533D01*
X127575987Y-69674036D01*
X127545424Y-69721319D01*
X127510907Y-69766960D01*
X127472781Y-69810537D01*
X127431391Y-69851629D01*
X127387080Y-69889812D01*
X127340193Y-69924666D01*
X127338838Y-69925595D01*
X127291455Y-69955675D01*
X127243389Y-69981385D01*
X127193988Y-70002979D01*
X127142604Y-70020712D01*
X127088585Y-70034838D01*
X127032557Y-70045413D01*
X127021322Y-70047089D01*
X127010950Y-70048404D01*
X127000604Y-70049401D01*
X126989445Y-70050121D01*
X126976635Y-70050608D01*
X126961336Y-70050904D01*
X126942708Y-70051050D01*
X126920046Y-70051089D01*
X126897167Y-70051047D01*
X126878459Y-70050895D01*
X126863092Y-70050591D01*
X126850237Y-70050095D01*
X126839064Y-70049365D01*
X126828744Y-70048361D01*
X126818449Y-70047041D01*
X126808785Y-70045592D01*
X126754849Y-70035213D01*
X126701914Y-70021282D01*
X126651205Y-70004149D01*
X126619392Y-69991189D01*
X126609466Y-69986950D01*
X126601488Y-69983752D01*
X126596390Y-69981954D01*
X126595014Y-69981767D01*
X126198841Y-69981767D01*
X126204188Y-69965663D01*
X126218811Y-69929392D01*
X126223050Y-69919466D01*
X126226249Y-69911488D01*
X126228046Y-69906390D01*
X126228233Y-69905014D01*
X126225010Y-69906166D01*
X126218294Y-69909317D01*
X126208947Y-69914010D01*
X126197832Y-69919788D01*
X126185811Y-69926194D01*
X126173748Y-69932772D01*
X126162504Y-69939064D01*
X126152942Y-69944613D01*
X126149156Y-69946907D01*
X126108500Y-69974703D01*
X126069936Y-70006332D01*
X126033995Y-70041217D01*
X126001205Y-70078783D01*
X125972095Y-70118452D01*
X125947194Y-70159650D01*
X125938598Y-70176291D01*
X125920497Y-70217314D01*
X125906521Y-70258651D01*
X125896491Y-70301093D01*
X125890233Y-70345431D01*
X125887570Y-70392456D01*
X125887445Y-70405832D01*
X125689329Y-70405832D01*
X125689195Y-70394436D01*
X125692596Y-70337965D01*
X125700127Y-70282908D01*
X125709863Y-70237547D01*
X125726414Y-70182179D01*
X125747656Y-70127650D01*
X125773297Y-70074386D01*
X125803044Y-70022810D01*
X125836604Y-69973346D01*
X125873686Y-69926420D01*
X125913997Y-69882455D01*
X125957244Y-69841876D01*
X125989798Y-69815794D01*
X126707137Y-69815794D01*
X126715457Y-69819312D01*
X126730924Y-69825072D01*
X126750175Y-69831012D01*
X126772011Y-69836845D01*
X126795239Y-69842282D01*
X126818663Y-69847035D01*
X126841085Y-69850815D01*
X126852540Y-69852373D01*
X126864031Y-69853302D01*
X126879445Y-69853861D01*
X126897720Y-69854074D01*
X126917794Y-69853963D01*
X126938604Y-69853552D01*
X126959088Y-69852865D01*
X126978185Y-69851925D01*
X126994831Y-69850754D01*
X127007965Y-69849377D01*
X127011305Y-69848888D01*
X127062752Y-69838253D01*
X127111818Y-69823299D01*
X127158823Y-69803889D01*
X127204088Y-69779889D01*
X127247932Y-69751161D01*
X127257379Y-69744223D01*
X127270956Y-69733301D01*
X127286716Y-69719389D01*
X127303734Y-69703414D01*
X127321082Y-69686302D01*
X127337834Y-69668979D01*
X127353064Y-69652371D01*
X127365846Y-69637406D01*
X127371815Y-69629787D01*
X127401792Y-69585853D01*
X127427012Y-69540418D01*
X127447532Y-69493339D01*
X127463406Y-69444476D01*
X127474691Y-69393685D01*
X127480306Y-69353002D01*
X127481423Y-69337498D01*
X127482037Y-69318463D01*
X127482178Y-69297100D01*
X127481873Y-69274613D01*
X127481151Y-69252206D01*
X127480040Y-69231082D01*
X127478569Y-69212444D01*
X127476767Y-69197498D01*
X127476607Y-69196488D01*
X127465846Y-69144729D01*
X127450598Y-69095159D01*
X127430848Y-69047748D01*
X127406580Y-69002465D01*
X127377778Y-68959280D01*
X127344426Y-68918161D01*
X127318913Y-68891139D01*
X127283676Y-68858333D01*
X127247879Y-68829881D01*
X127210638Y-68805146D01*
X127171068Y-68783492D01*
X127165824Y-68780927D01*
X127155074Y-68775775D01*
X127146051Y-68771526D01*
X127139653Y-68768599D01*
X127136777Y-68767410D01*
X127136725Y-68767402D01*
X127137246Y-68769531D01*
X127139477Y-68775325D01*
X127143059Y-68783897D01*
X127147599Y-68794280D01*
X127167961Y-68845753D01*
X127184464Y-68899747D01*
X127197051Y-68955609D01*
X127205665Y-69012690D01*
X127210249Y-69070336D01*
X127210747Y-69127897D01*
X127207101Y-69184721D01*
X127199256Y-69240156D01*
X127190151Y-69282140D01*
X127174322Y-69335498D01*
X127153994Y-69388451D01*
X127129616Y-69439889D01*
X127116424Y-69464039D01*
X127082222Y-69519246D01*
X127044973Y-69570550D01*
X127004721Y-69617911D01*
X126961512Y-69661290D01*
X126915391Y-69700646D01*
X126866402Y-69735939D01*
X126814593Y-69767130D01*
X126760006Y-69794178D01*
X126727958Y-69807612D01*
X126707137Y-69815794D01*
X125989798Y-69815794D01*
X126003136Y-69805108D01*
X126012457Y-69798355D01*
X126044961Y-69776774D01*
X126080797Y-69755763D01*
X126118310Y-69736214D01*
X126155843Y-69719019D01*
X126172129Y-69712354D01*
X126193037Y-69704137D01*
X126180880Y-69699344D01*
X126166350Y-69694192D01*
X126148301Y-69688681D01*
X126128160Y-69683192D01*
X126107355Y-69678103D01*
X126087312Y-69673795D01*
X126078714Y-69672175D01*
X126067668Y-69670308D01*
X126057514Y-69668881D01*
X126047299Y-69667837D01*
X126036072Y-69667117D01*
X126022883Y-69666665D01*
X126006779Y-69666422D01*
X125986809Y-69666330D01*
X125982454Y-69666325D01*
X125959503Y-69666403D01*
X125940682Y-69666707D01*
X125925123Y-69667277D01*
X125911958Y-69668156D01*
X125900319Y-69669385D01*
X125891195Y-69670700D01*
X125840064Y-69681041D01*
X125791863Y-69695215D01*
X125746235Y-69713407D01*
X125702823Y-69735801D01*
X125661270Y-69762581D01*
X125621219Y-69793930D01*
X125582413Y-69829934D01*
X125547597Y-69867385D01*
X125517445Y-69905431D01*
X125491617Y-69944604D01*
X125469775Y-69985439D01*
X125451583Y-70028469D01*
X125445162Y-70046685D01*
X125434312Y-70083271D01*
X125426311Y-70119866D01*
X125421014Y-70157544D01*
X125418276Y-70197381D01*
X125417951Y-70240455D01*
X125195956Y-70240455D01*
X125169652Y-70207426D01*
X125135962Y-70157473D01*
G37*
G36*
X125038520Y-105466063D02*
G01*
X125494842Y-105466063D01*
X125494842Y-105511695D01*
X124536566Y-105511695D01*
X124536566Y-105466063D01*
X124992888Y-105466063D01*
X124992888Y-104907069D01*
X125038520Y-104907069D01*
X125038520Y-105466063D01*
G37*
G36*
X125494842Y-105842529D02*
G01*
X125038520Y-105842529D01*
X125038520Y-106407226D01*
X124992888Y-106407226D01*
X124992888Y-105842529D01*
X124536566Y-105842529D01*
X124536566Y-105796896D01*
X125494842Y-105796896D01*
X125494842Y-105842529D01*
G37*
X133170000Y-77260000D02*
X136270000Y-77260000D01*
X136270000Y-77260000D02*
X136270000Y-81410000D01*
X132370000Y-78060000D02*
X133170000Y-77260000D01*
X132370000Y-81410000D02*
X132370000Y-78060000D01*
X136270000Y-81410000D02*
X132370000Y-81410000D01*
%LPC*%
D13*
X148540000Y-76950000D03*
X145290000Y-76950000D03*
D14*
X132340000Y-100460000D03*
X132340000Y-101730000D03*
X132340000Y-103000000D03*
X132340000Y-104270000D03*
X132340000Y-105540000D03*
X132340000Y-106810000D03*
X132340000Y-108080000D03*
X132340000Y-109350000D03*
X132340000Y-110620000D03*
X132340000Y-111890000D03*
X132340000Y-113160000D03*
X132340000Y-114430000D03*
X132340000Y-115700000D03*
X132340000Y-116970000D03*
X144240000Y-116970000D03*
X144240000Y-115700000D03*
X144240000Y-114430000D03*
X144240000Y-113160000D03*
X144240000Y-111890000D03*
X144240000Y-110620000D03*
X144240000Y-109350000D03*
X144240000Y-108080000D03*
X144240000Y-106810000D03*
X144240000Y-105540000D03*
X144240000Y-104270000D03*
X144240000Y-103000000D03*
X144240000Y-101730000D03*
X144240000Y-100460000D03*
D15*
X168085000Y-91775000D03*
X168085000Y-95025000D03*
D16*
X125880000Y-124950000D03*
D17*
X127580000Y-124950000D03*
D18*
X129080000Y-124950000D03*
X130580000Y-124950000D03*
D17*
X132080000Y-124950000D03*
X133580000Y-124950000D03*
X135080000Y-124950000D03*
X136580000Y-124950000D03*
X138080000Y-124950000D03*
X139580000Y-124950000D03*
X141080000Y-124950000D03*
X142580000Y-124950000D03*
X144080000Y-124950000D03*
X145580000Y-124950000D03*
X147080000Y-124950000D03*
X148580000Y-124950000D03*
X150080000Y-124950000D03*
X151580000Y-124950000D03*
X153080000Y-124950000D03*
X154580000Y-124950000D03*
X156080000Y-124950000D03*
X157580000Y-124950000D03*
X159080000Y-124950000D03*
X160580000Y-124950000D03*
X162080000Y-124950000D03*
X163580000Y-124950000D03*
X165080000Y-124950000D03*
X166580000Y-124950000D03*
X168080000Y-124950000D03*
X169580000Y-124950000D03*
X171080000Y-124950000D03*
D16*
X172780000Y-124950000D03*
D19*
X147440000Y-81860000D03*
D20*
X170290000Y-81860000D03*
D15*
X147335000Y-97135000D03*
X147335000Y-100385000D03*
X126050000Y-84210000D03*
X126050000Y-87460000D03*
D21*
X151400000Y-118830000D03*
D22*
X125950000Y-74490000D03*
D23*
X136150000Y-74490000D03*
D14*
X154404000Y-97625000D03*
X154404000Y-98895000D03*
X154404000Y-100165000D03*
X154404000Y-101435000D03*
X154404000Y-102705000D03*
X154404000Y-103975000D03*
X154404000Y-105245000D03*
X154404000Y-106515000D03*
X154404000Y-107785000D03*
X154404000Y-109055000D03*
X154404000Y-110325000D03*
X154404000Y-111595000D03*
X154404000Y-112865000D03*
X154404000Y-114135000D03*
X154404000Y-115420000D03*
X154404000Y-116720000D03*
X168390000Y-116720000D03*
X168390000Y-115450000D03*
X168390000Y-114180000D03*
X168390000Y-112910000D03*
X168390000Y-111640000D03*
X168390000Y-110370000D03*
X168390000Y-109100000D03*
X168390000Y-107830000D03*
X168390000Y-106560000D03*
X168390000Y-105290000D03*
X168390000Y-104020000D03*
X168390000Y-102750000D03*
X168390000Y-101520000D03*
X168390000Y-100220000D03*
X168390000Y-98920000D03*
X168390000Y-97620000D03*
D24*
X129335000Y-96706000D03*
X130605000Y-96706000D03*
X131875000Y-96706000D03*
X133145000Y-96706000D03*
X134415000Y-96706000D03*
X135685000Y-96706000D03*
X136955000Y-96706000D03*
X138225000Y-96706000D03*
X139495000Y-96706000D03*
X140765000Y-96706000D03*
X142035000Y-96706000D03*
X143305000Y-96706000D03*
X143305000Y-84806000D03*
X142035000Y-84806000D03*
X140765000Y-84806000D03*
X139495000Y-84806000D03*
X138225000Y-84806000D03*
X136955000Y-84806000D03*
X135685000Y-84806000D03*
X134415000Y-84806000D03*
X133145000Y-84806000D03*
X131875000Y-84806000D03*
X130605000Y-84806000D03*
X129335000Y-84806000D03*
D25*
X170770000Y-95360000D03*
D26*
X170770000Y-85160000D03*
D22*
X140260000Y-74703500D03*
D23*
X150460000Y-74703500D03*
D14*
X130784000Y-77465000D03*
X130784000Y-78735000D03*
X130784000Y-80005000D03*
X130784000Y-81275000D03*
X137770000Y-81275000D03*
X137770000Y-80005000D03*
X137770000Y-78735000D03*
X137770000Y-77465000D03*
D25*
X129233500Y-110870000D03*
D26*
X129233500Y-100670000D03*
M02*
